<?xml version="1.0" encoding="UTF-8"?>
<!DOCTYPE svg PUBLIC "-//W3C//DTD SVG 1.1//EN" "http://www.w3.org/Graphics/SVG/1.1/DTD/svg11.dtd">
<svg xmlns="http://www.w3.org/2000/svg" version="1.1" width="512px" height="512px" style="shape-rendering:geometricPrecision; text-rendering:geometricPrecision; image-rendering:optimizeQuality; fill-rule:evenodd; clip-rule:evenodd" xmlns:xlink="http://www.w3.org/1999/xlink">
<g><path style="opacity:1" fill="#fefffe" d="M 23.5,-0.5 C 28.8333,-0.5 34.1667,-0.5 39.5,-0.5C 44.0096,1.08809 48.343,3.25475 52.5,6C 117.167,70.6667 181.833,135.333 246.5,200C 249.309,201.658 252.309,202.825 255.5,203.5C 258.691,202.825 261.691,201.658 264.5,200C 329.167,135.333 393.833,70.6667 458.5,6C 462.657,3.25475 466.99,1.08809 471.5,-0.5C 476.833,-0.5 482.167,-0.5 487.5,-0.5C 493.022,1.26512 498.022,4.09846 502.5,8C 506.626,12.5995 509.626,17.7662 511.5,23.5C 511.5,28.8333 511.5,34.1667 511.5,39.5C 509.912,44.0096 507.745,48.343 505,52.5C 440.333,117.167 375.667,181.833 311,246.5C 306.536,252.467 306.536,258.467 311,264.5C 375.667,329.167 440.333,393.833 505,458.5C 507.745,462.657 509.912,466.99 511.5,471.5C 511.5,476.833 511.5,482.167 511.5,487.5C 509.735,493.022 506.902,498.022 503,502.5C 498.4,506.626 493.234,509.626 487.5,511.5C 482.167,511.5 476.833,511.5 471.5,511.5C 466.99,509.912 462.657,507.745 458.5,505C 393.833,440.333 329.167,375.667 264.5,311C 261.691,309.342 258.691,308.175 255.5,307.5C 252.309,308.175 249.309,309.342 246.5,311C 181.833,375.667 117.167,440.333 52.5,505C 48.343,507.745 44.0096,509.912 39.5,511.5C 34.1667,511.5 28.8333,511.5 23.5,511.5C 17.9779,509.735 12.9779,506.902 8.5,503C 4.37379,498.4 1.37379,493.234 -0.5,487.5C -0.5,482.167 -0.5,476.833 -0.5,471.5C 1.08809,466.99 3.25475,462.657 6,458.5C 70.6667,393.833 135.333,329.167 200,264.5C 201.623,261.673 202.79,258.673 203.5,255.5C 202.79,252.327 201.623,249.327 200,246.5C 135.333,181.833 70.6667,117.167 6,52.5C 3.25475,48.343 1.08809,44.0096 -0.5,39.5C -0.5,34.1667 -0.5,28.8333 -0.5,23.5C 1.26512,17.9779 4.09846,12.9779 8,8.5C 12.5995,4.37379 17.7662,1.37379 23.5,-0.5 Z"/></g>
</svg>
