<svg id="svg" version="1.1" xmlns="http://www.w3.org/2000/svg" xmlns:xlink="http://www.w3.org/1999/xlink" width="400" height="400" viewBox="0, 0, 400,400"><g id="svgg"><path id="path0" d="M212.381 101.023 C 211.976 101.511,211.454 101.615,210.319 101.433 C 209.079 101.235,208.800 101.311,208.800 101.846 C 208.800 102.388,208.520 102.457,207.200 102.246 C 205.926 102.043,205.600 102.114,205.600 102.595 C 205.600 103.305,205.138 103.378,204.526 102.766 C 204.215 102.455,203.937 102.539,203.541 103.066 C 202.814 104.035,201.266 104.888,200.781 104.588 C 200.568 104.457,200.282 104.641,200.146 104.998 C 200.009 105.354,199.650 105.551,199.348 105.436 C 199.047 105.320,198.800 105.386,198.800 105.583 C 198.800 106.058,196.396 107.245,195.969 106.981 C 195.785 106.867,195.335 107.233,194.968 107.793 C 194.600 108.354,194.098 108.788,193.850 108.759 C 192.873 108.643,192.400 108.823,192.400 109.311 C 192.400 109.962,187.143 115.200,186.490 115.200 C 186.220 115.200,186.000 115.646,186.000 116.191 C 186.000 116.805,185.622 117.430,185.003 117.835 C 184.455 118.194,184.114 118.661,184.245 118.873 C 184.377 119.086,184.074 119.696,183.572 120.230 C 183.071 120.763,182.827 121.206,183.030 121.213 C 183.234 121.220,183.067 121.478,182.660 121.786 C 182.253 122.094,182.039 122.540,182.185 122.776 C 182.331 123.012,182.159 123.318,181.802 123.454 C 181.437 123.595,181.252 123.959,181.379 124.289 C 181.518 124.651,181.307 124.952,180.824 125.078 C 180.163 125.251,180.117 125.401,180.522 126.065 C 180.914 126.708,180.877 126.940,180.319 127.354 C 179.883 127.679,179.719 128.170,179.865 128.725 C 180.009 129.279,179.880 129.671,179.505 129.815 C 179.131 129.959,178.986 130.393,179.105 131.015 C 179.229 131.662,179.078 132.072,178.659 132.233 C 178.162 132.423,178.077 132.847,178.261 134.195 C 178.470 135.720,178.397 135.947,177.620 136.194 C 176.985 136.395,176.824 136.656,177.039 137.136 C 177.737 138.695,177.667 140.991,176.896 141.811 C 175.996 142.770,175.484 174.800,176.370 174.800 C 176.606 174.800,176.800 175.070,176.800 175.400 C 176.800 176.198,153.674 176.314,152.880 175.520 C 152.507 175.147,152.400 175.236,152.400 175.920 C 152.400 176.490,152.154 176.801,151.700 176.803 C 149.941 176.811,149.804 178.067,149.730 194.900 C 149.672 208.172,149.751 210.800,150.211 210.800 C 150.514 210.800,151.339 211.518,152.045 212.396 C 152.970 213.547,153.463 213.880,153.812 213.590 C 154.119 213.335,158.365 213.226,165.353 213.294 L 176.409 213.400 176.385 225.400 C 176.371 232.000,176.259 250.690,176.135 266.933 L 175.910 296.466 177.727 298.233 L 179.545 300.000 194.773 300.000 C 205.718 300.000,210.000 299.874,210.000 299.553 C 210.000 299.304,210.353 299.199,210.800 299.316 C 211.320 299.452,211.600 299.328,211.600 298.963 C 211.600 298.653,211.825 298.400,212.100 298.400 C 212.497 298.400,212.578 289.785,212.495 256.377 C 212.404 220.207,212.469 214.273,212.966 213.777 C 213.687 213.056,242.344 212.904,243.057 213.617 C 243.346 213.906,243.908 213.539,244.891 212.417 C 245.671 211.528,246.466 210.800,246.657 210.800 C 246.849 210.800,246.941 209.991,246.863 209.003 C 246.752 207.614,246.870 207.148,247.379 206.953 C 247.940 206.737,247.999 206.295,247.771 203.986 C 247.563 201.878,247.639 201.079,248.111 200.406 C 248.553 199.775,248.665 198.888,248.525 197.139 C 248.372 195.228,248.475 194.580,249.031 193.966 C 249.414 193.542,249.611 193.078,249.468 192.934 C 249.324 192.791,249.407 192.432,249.652 192.137 C 249.980 191.742,249.979 191.600,249.649 191.600 C 249.033 191.600,249.093 187.975,249.722 187.148 C 250.536 186.078,250.281 177.424,249.410 176.553 C 248.880 176.023,248.657 175.984,248.414 176.378 C 248.192 176.737,248.020 176.756,247.826 176.443 C 247.633 176.130,242.547 176.000,230.548 176.000 C 216.344 176.000,213.449 175.906,212.971 175.429 C 212.301 174.758,212.109 152.060,212.768 151.380 C 212.971 151.171,213.182 150.190,213.239 149.200 C 213.295 148.210,213.498 147.191,213.690 146.936 C 213.896 146.661,213.867 146.365,213.619 146.212 C 213.085 145.882,213.069 144.400,213.600 144.400 C 213.820 144.400,214.000 143.783,214.000 143.029 C 214.000 142.048,214.281 141.437,214.986 140.882 C 215.529 140.455,215.856 139.990,215.714 139.847 C 215.391 139.525,217.987 136.800,218.616 136.800 C 218.869 136.800,219.402 136.440,219.800 136.000 C 220.198 135.560,220.946 135.200,221.462 135.200 C 221.978 135.200,222.400 134.996,222.400 134.748 C 222.400 134.457,222.884 134.374,223.757 134.516 C 224.628 134.657,225.419 134.522,225.966 134.139 C 226.842 133.525,242.808 133.302,245.619 133.864 C 246.448 134.030,246.800 133.943,246.800 133.574 C 246.800 133.285,247.535 132.382,248.434 131.569 C 249.426 130.672,249.898 129.984,249.634 129.821 C 249.336 129.637,249.200 125.488,249.200 116.600 C 249.200 108.396,249.053 103.557,248.800 103.400 C 248.580 103.264,248.400 102.803,248.400 102.376 C 248.400 101.878,248.126 101.600,247.633 101.600 C 247.212 101.600,246.792 101.375,246.700 101.100 C 246.551 100.653,222.922 100.390,217.652 100.777 C 216.911 100.832,215.543 100.762,214.614 100.623 C 213.315 100.428,212.798 100.521,212.381 101.023 M384.806 277.700 C 384.811 278.428,384.886 278.485,385.200 278.000 C 385.701 277.224,385.701 276.800,385.200 276.800 C 384.980 276.800,384.803 277.205,384.806 277.700 M367.260 310.242 C 366.531 311.066,367.000 311.457,367.781 310.676 C 368.121 310.336,368.400 309.954,368.400 309.829 C 368.400 309.409,367.806 309.624,367.260 310.242 M365.660 312.642 C 364.931 313.466,365.400 313.857,366.181 313.076 C 366.521 312.736,366.800 312.354,366.800 312.229 C 366.800 311.809,366.206 312.024,365.660 312.642 " stroke="none" fill="#040404" fill-rule="evenodd"></path><path id="path1" d="M178.700 0.275 C 176.555 0.360,174.800 0.602,174.800 0.814 C 174.800 1.027,173.540 1.200,172.000 1.200 C 170.400 1.200,169.200 1.371,169.200 1.600 C 169.200 1.822,168.133 2.000,166.800 2.000 C 165.467 2.000,164.400 2.178,164.400 2.400 C 164.400 2.620,163.410 2.800,162.200 2.800 C 160.990 2.800,160.000 2.980,160.000 3.200 C 160.000 3.420,159.280 3.600,158.400 3.600 C 157.520 3.600,156.800 3.780,156.800 4.000 C 156.800 4.220,155.900 4.400,154.800 4.400 C 153.700 4.400,152.800 4.580,152.800 4.800 C 152.800 5.020,152.080 5.200,151.200 5.200 C 150.320 5.200,149.600 5.380,149.600 5.600 C 149.600 5.820,148.880 6.000,148.000 6.000 C 147.120 6.000,146.400 6.180,146.400 6.400 C 146.400 6.620,145.860 6.800,145.200 6.800 C 144.540 6.800,144.000 6.980,144.000 7.200 C 144.000 7.420,143.370 7.600,142.600 7.600 C 141.830 7.600,141.200 7.780,141.200 8.000 C 141.200 8.220,140.660 8.400,140.000 8.400 C 139.340 8.400,138.800 8.580,138.800 8.800 C 138.800 9.020,138.260 9.200,137.600 9.200 C 136.940 9.200,136.400 9.362,136.400 9.561 C 136.400 9.759,135.320 10.047,134.000 10.200 C 132.680 10.353,131.600 10.641,131.600 10.839 C 131.600 11.038,131.240 11.200,130.800 11.200 C 130.360 11.200,130.000 11.380,130.000 11.600 C 130.000 11.820,129.561 12.000,129.024 12.000 C 128.487 12.000,127.936 12.180,127.800 12.400 C 127.664 12.620,127.113 12.800,126.576 12.800 C 126.039 12.800,125.600 12.980,125.600 13.200 C 125.600 13.420,125.240 13.600,124.800 13.600 C 124.360 13.600,124.000 13.780,124.000 14.000 C 124.000 14.220,123.460 14.400,122.800 14.400 C 122.140 14.400,121.600 14.580,121.600 14.800 C 121.600 15.020,121.240 15.200,120.800 15.200 C 120.360 15.200,120.000 15.380,120.000 15.600 C 120.000 15.820,119.640 16.000,119.200 16.000 C 118.760 16.000,118.400 16.180,118.400 16.400 C 118.400 16.620,118.040 16.800,117.600 16.800 C 117.160 16.800,116.800 16.980,116.800 17.200 C 116.800 17.420,116.260 17.600,115.600 17.600 C 114.940 17.600,114.400 17.780,114.400 18.000 C 114.400 18.220,114.040 18.400,113.600 18.400 C 113.160 18.400,112.800 18.580,112.800 18.800 C 112.800 19.020,112.440 19.200,112.000 19.200 C 111.560 19.200,111.200 19.380,111.200 19.600 C 111.200 19.820,110.930 20.000,110.600 20.000 C 110.270 20.000,110.000 20.180,110.000 20.400 C 110.000 20.620,109.640 20.800,109.200 20.800 C 108.760 20.800,108.400 20.980,108.400 21.200 C 108.400 21.420,108.040 21.600,107.600 21.600 C 107.160 21.600,106.800 21.780,106.800 22.000 C 106.800 22.220,106.480 22.400,106.088 22.400 C 105.697 22.400,105.117 22.760,104.800 23.200 C 104.483 23.640,103.903 24.000,103.512 24.000 C 103.120 24.000,102.800 24.180,102.800 24.400 C 102.800 24.620,102.440 24.800,102.000 24.800 C 101.560 24.800,101.200 24.980,101.200 25.200 C 101.200 25.420,100.840 25.600,100.400 25.600 C 99.960 25.600,99.600 25.780,99.600 26.000 C 99.600 26.220,99.240 26.400,98.800 26.400 C 98.360 26.400,98.000 26.546,98.000 26.725 C 98.000 26.904,97.094 27.446,95.986 27.930 C 94.878 28.413,93.869 29.077,93.743 29.405 C 93.617 29.732,93.213 30.000,92.846 30.000 C 92.478 30.000,91.917 30.360,91.600 30.800 C 91.283 31.240,90.743 31.600,90.400 31.600 C 90.057 31.600,89.517 31.960,89.200 32.400 C 88.883 32.840,88.343 33.200,88.000 33.200 C 87.657 33.200,87.117 33.560,86.800 34.000 C 86.483 34.440,85.943 34.800,85.600 34.800 C 85.257 34.800,84.717 35.160,84.400 35.600 C 84.083 36.040,83.575 36.400,83.272 36.400 C 82.969 36.400,82.217 36.940,81.600 37.600 C 80.983 38.260,80.263 38.800,80.000 38.800 C 79.737 38.800,79.017 39.340,78.400 40.000 C 77.783 40.660,77.165 41.200,77.026 41.200 C 76.887 41.200,76.143 41.830,75.373 42.600 C 74.603 43.370,73.698 44.000,73.361 44.000 C 73.024 44.000,71.871 44.900,70.800 46.000 C 69.729 47.100,68.654 48.000,68.412 48.000 C 68.170 48.000,66.179 49.845,63.988 52.100 C 59.003 57.230,57.230 59.003,52.100 63.988 C 49.845 66.179,48.000 68.170,48.000 68.412 C 48.000 68.654,47.100 69.729,46.000 70.800 C 44.900 71.871,44.000 73.024,44.000 73.361 C 44.000 73.698,43.370 74.603,42.600 75.373 C 41.830 76.143,41.200 76.887,41.200 77.026 C 41.200 77.165,40.660 77.783,40.000 78.400 C 39.340 79.017,38.800 79.737,38.800 80.000 C 38.800 80.263,38.260 80.983,37.600 81.600 C 36.940 82.217,36.400 82.969,36.400 83.272 C 36.400 83.575,36.040 84.083,35.600 84.400 C 35.160 84.717,34.800 85.257,34.800 85.600 C 34.800 85.943,34.440 86.483,34.000 86.800 C 33.560 87.117,33.200 87.657,33.200 88.000 C 33.200 88.343,32.840 88.883,32.400 89.200 C 31.960 89.517,31.600 90.057,31.600 90.400 C 31.600 90.743,31.240 91.283,30.800 91.600 C 30.360 91.917,30.000 92.478,30.000 92.846 C 30.000 93.213,29.732 93.617,29.405 93.743 C 29.077 93.869,28.413 94.878,27.930 95.986 C 27.446 97.094,26.904 98.000,26.725 98.000 C 26.546 98.000,26.400 98.360,26.400 98.800 C 26.400 99.240,26.220 99.600,26.000 99.600 C 25.780 99.600,25.600 99.960,25.600 100.400 C 25.600 100.840,25.420 101.200,25.200 101.200 C 24.980 101.200,24.800 101.560,24.800 102.000 C 24.800 102.440,24.620 102.800,24.400 102.800 C 24.180 102.800,24.000 103.120,24.000 103.512 C 24.000 103.903,23.640 104.483,23.200 104.800 C 22.760 105.117,22.400 105.697,22.400 106.088 C 22.400 106.480,22.220 106.800,22.000 106.800 C 21.780 106.800,21.600 107.160,21.600 107.600 C 21.600 108.040,21.420 108.400,21.200 108.400 C 20.980 108.400,20.800 108.760,20.800 109.200 C 20.800 109.640,20.620 110.000,20.400 110.000 C 20.180 110.000,20.000 110.270,20.000 110.600 C 20.000 110.930,19.820 111.200,19.600 111.200 C 19.380 111.200,19.200 111.560,19.200 112.000 C 19.200 112.440,19.020 112.800,18.800 112.800 C 18.580 112.800,18.400 113.160,18.400 113.600 C 18.400 114.040,18.220 114.400,18.000 114.400 C 17.780 114.400,17.600 114.940,17.600 115.600 C 17.600 116.260,17.420 116.800,17.200 116.800 C 16.980 116.800,16.800 117.160,16.800 117.600 C 16.800 118.040,16.620 118.400,16.400 118.400 C 16.180 118.400,16.000 118.760,16.000 119.200 C 16.000 119.640,15.820 120.000,15.600 120.000 C 15.380 120.000,15.200 120.360,15.200 120.800 C 15.200 121.240,15.020 121.600,14.800 121.600 C 14.580 121.600,14.400 122.140,14.400 122.800 C 14.400 123.460,14.220 124.000,14.000 124.000 C 13.780 124.000,13.600 124.360,13.600 124.800 C 13.600 125.240,13.420 125.600,13.200 125.600 C 12.980 125.600,12.800 126.039,12.800 126.576 C 12.800 127.113,12.620 127.664,12.400 127.800 C 12.180 127.936,12.000 128.487,12.000 129.024 C 12.000 129.561,11.820 130.000,11.600 130.000 C 11.380 130.000,11.200 130.360,11.200 130.800 C 11.200 131.240,11.038 131.600,10.839 131.600 C 10.641 131.600,10.353 132.680,10.200 134.000 C 10.047 135.320,9.759 136.400,9.561 136.400 C 9.362 136.400,9.200 136.940,9.200 137.600 C 9.200 138.260,9.020 138.800,8.800 138.800 C 8.580 138.800,8.400 139.340,8.400 140.000 C 8.400 140.660,8.220 141.200,8.000 141.200 C 7.780 141.200,7.600 141.830,7.600 142.600 C 7.600 143.370,7.420 144.000,7.200 144.000 C 6.980 144.000,6.800 144.540,6.800 145.200 C 6.800 145.860,6.620 146.400,6.400 146.400 C 6.180 146.400,6.000 147.120,6.000 148.000 C 6.000 148.880,5.820 149.600,5.600 149.600 C 5.380 149.600,5.200 150.320,5.200 151.200 C 5.200 152.080,5.020 152.800,4.800 152.800 C 4.580 152.800,4.400 153.700,4.400 154.800 C 4.400 155.900,4.220 156.800,4.000 156.800 C 3.780 156.800,3.600 157.520,3.600 158.400 C 3.600 159.280,3.420 160.000,3.200 160.000 C 2.980 160.000,2.800 160.990,2.800 162.200 C 2.800 163.410,2.620 164.400,2.400 164.400 C 2.178 164.400,2.000 165.467,2.000 166.800 C 2.000 168.133,1.822 169.200,1.600 169.200 C 1.372 169.200,1.200 170.389,1.200 171.967 C 1.200 173.824,1.036 174.788,0.700 174.900 C -0.032 175.144,-0.032 224.856,0.700 225.100 C 1.036 225.212,1.200 226.176,1.200 228.033 C 1.200 229.611,1.372 230.800,1.600 230.800 C 1.822 230.800,2.000 231.867,2.000 233.200 C 2.000 234.533,2.178 235.600,2.400 235.600 C 2.622 235.600,2.800 236.667,2.800 238.000 C 2.800 239.333,2.978 240.400,3.200 240.400 C 3.420 240.400,3.600 241.030,3.600 241.800 C 3.600 242.570,3.780 243.200,4.000 243.200 C 4.220 243.200,4.400 244.100,4.400 245.200 C 4.400 246.300,4.580 247.200,4.800 247.200 C 5.020 247.200,5.200 247.920,5.200 248.800 C 5.200 249.680,5.380 250.400,5.600 250.400 C 5.820 250.400,6.000 251.120,6.000 252.000 C 6.000 252.880,6.180 253.600,6.400 253.600 C 6.620 253.600,6.800 254.140,6.800 254.800 C 6.800 255.460,6.980 256.000,7.200 256.000 C 7.420 256.000,7.600 256.630,7.600 257.400 C 7.600 258.170,7.780 258.800,8.000 258.800 C 8.220 258.800,8.400 259.340,8.400 260.000 C 8.400 260.660,8.580 261.200,8.800 261.200 C 9.020 261.200,9.200 261.740,9.200 262.400 C 9.200 263.060,9.362 263.600,9.561 263.600 C 9.759 263.600,10.047 264.680,10.200 266.000 C 10.353 267.320,10.641 268.400,10.839 268.400 C 11.038 268.400,11.200 268.760,11.200 269.200 C 11.200 269.640,11.380 270.000,11.600 270.000 C 11.820 270.000,12.000 270.540,12.000 271.200 C 12.000 271.860,12.180 272.400,12.400 272.400 C 12.620 272.400,12.800 272.940,12.800 273.600 C 12.800 274.260,12.980 274.800,13.200 274.800 C 13.420 274.800,13.600 275.070,13.600 275.400 C 13.600 275.730,13.780 276.000,14.000 276.000 C 14.220 276.000,14.400 276.360,14.400 276.800 C 14.400 277.240,14.580 277.600,14.800 277.600 C 15.020 277.600,15.200 278.140,15.200 278.800 C 15.200 279.460,15.380 280.000,15.600 280.000 C 15.820 280.000,16.000 280.360,16.000 280.800 C 16.000 281.240,16.180 281.600,16.400 281.600 C 16.620 281.600,16.800 281.960,16.800 282.400 C 16.800 282.840,16.980 283.200,17.200 283.200 C 17.420 283.200,17.600 283.740,17.600 284.400 C 17.600 285.060,17.780 285.600,18.000 285.600 C 18.220 285.600,18.400 285.960,18.400 286.400 C 18.400 286.840,18.580 287.200,18.800 287.200 C 19.020 287.200,19.200 287.560,19.200 288.000 C 19.200 288.440,19.380 288.800,19.600 288.800 C 19.820 288.800,20.000 289.160,20.000 289.600 C 20.000 290.040,20.180 290.400,20.400 290.400 C 20.620 290.400,20.800 290.670,20.800 291.000 C 20.800 291.330,20.980 291.600,21.200 291.600 C 21.420 291.600,21.600 291.960,21.600 292.400 C 21.600 292.840,21.780 293.200,22.000 293.200 C 22.220 293.200,22.400 293.520,22.400 293.912 C 22.400 294.303,22.760 294.883,23.200 295.200 C 23.640 295.517,24.000 296.097,24.000 296.488 C 24.000 296.880,24.180 297.200,24.400 297.200 C 24.620 297.200,24.800 297.560,24.800 298.000 C 24.800 298.440,24.980 298.800,25.200 298.800 C 25.420 298.800,25.600 299.160,25.600 299.600 C 25.600 300.040,25.780 300.400,26.000 300.400 C 26.220 300.400,26.400 300.683,26.400 301.029 C 26.400 301.374,26.670 301.927,27.000 302.257 C 27.330 302.587,27.600 303.204,27.600 303.629 C 27.600 304.053,27.780 304.400,28.000 304.400 C 28.220 304.400,28.400 304.720,28.400 305.112 C 28.400 305.503,28.760 306.083,29.200 306.400 C 29.640 306.717,30.000 307.285,30.000 307.661 C 30.000 308.038,30.360 308.460,30.800 308.600 C 31.240 308.740,31.600 309.162,31.600 309.539 C 31.600 309.915,31.960 310.483,32.400 310.800 C 32.840 311.117,33.200 311.657,33.200 312.000 C 33.200 312.343,33.560 312.883,34.000 313.200 C 34.440 313.517,34.800 314.057,34.800 314.400 C 34.800 314.743,35.160 315.283,35.600 315.600 C 36.040 315.917,36.400 316.425,36.400 316.728 C 36.400 317.031,36.940 317.783,37.600 318.400 C 38.260 319.017,38.800 319.737,38.800 320.000 C 38.800 320.263,39.340 320.983,40.000 321.600 C 40.660 322.217,41.200 322.943,41.200 323.214 C 41.200 323.743,42.707 325.200,43.254 325.200 C 43.436 325.200,43.708 325.691,43.858 326.290 C 44.009 326.890,45.002 328.228,46.066 329.264 C 47.130 330.300,48.000 331.345,48.000 331.586 C 48.000 331.827,50.205 334.179,52.900 336.814 C 58.999 342.776,59.130 342.907,63.985 347.900 C 66.178 350.155,68.170 352.000,68.412 352.000 C 68.654 352.000,69.729 352.900,70.800 354.000 C 71.871 355.100,72.946 356.000,73.187 356.000 C 73.429 356.000,74.257 356.630,75.027 357.400 C 75.797 358.170,76.618 358.800,76.853 358.800 C 77.087 358.800,77.783 359.340,78.400 360.000 C 79.017 360.660,79.737 361.200,80.000 361.200 C 80.263 361.200,80.983 361.740,81.600 362.400 C 82.217 363.060,82.969 363.600,83.272 363.600 C 83.575 363.600,84.083 363.960,84.400 364.400 C 84.717 364.840,85.257 365.200,85.600 365.200 C 85.943 365.200,86.483 365.560,86.800 366.000 C 87.117 366.440,87.657 366.800,88.000 366.800 C 88.343 366.800,88.883 367.160,89.200 367.600 C 89.517 368.040,90.057 368.400,90.400 368.400 C 90.743 368.400,91.283 368.760,91.600 369.200 C 91.917 369.640,92.485 370.000,92.861 370.000 C 93.238 370.000,93.660 370.360,93.800 370.800 C 93.940 371.240,94.402 371.600,94.827 371.600 C 95.252 371.600,95.600 371.780,95.600 372.000 C 95.600 372.220,95.920 372.400,96.312 372.400 C 96.703 372.400,97.283 372.760,97.600 373.200 C 97.917 373.640,98.497 374.000,98.888 374.000 C 99.280 374.000,99.600 374.164,99.600 374.365 C 99.600 374.566,100.320 374.851,101.200 375.000 C 102.080 375.149,102.800 375.434,102.800 375.635 C 102.800 375.836,103.120 376.000,103.512 376.000 C 103.903 376.000,104.483 376.360,104.800 376.800 C 105.117 377.240,105.697 377.600,106.088 377.600 C 106.480 377.600,106.800 377.780,106.800 378.000 C 106.800 378.220,107.160 378.400,107.600 378.400 C 108.040 378.400,108.400 378.580,108.400 378.800 C 108.400 379.020,108.760 379.200,109.200 379.200 C 109.640 379.200,110.000 379.380,110.000 379.600 C 110.000 379.820,110.270 380.000,110.600 380.000 C 110.930 380.000,111.200 380.180,111.200 380.400 C 111.200 380.620,111.560 380.800,112.000 380.800 C 112.440 380.800,112.800 380.980,112.800 381.200 C 112.800 381.420,113.160 381.600,113.600 381.600 C 114.040 381.600,114.400 381.780,114.400 382.000 C 114.400 382.220,114.940 382.400,115.600 382.400 C 116.260 382.400,116.800 382.580,116.800 382.800 C 116.800 383.020,117.160 383.200,117.600 383.200 C 118.040 383.200,118.400 383.380,118.400 383.600 C 118.400 383.820,118.760 384.000,119.200 384.000 C 119.640 384.000,120.000 384.180,120.000 384.400 C 120.000 384.620,120.540 384.800,121.200 384.800 C 121.860 384.800,122.400 384.980,122.400 385.200 C 122.400 385.420,122.760 385.600,123.200 385.600 C 123.640 385.600,124.000 385.780,124.000 386.000 C 124.000 386.220,124.360 386.400,124.800 386.400 C 125.240 386.400,125.600 386.580,125.600 386.800 C 125.600 387.020,126.050 387.200,126.600 387.200 C 127.150 387.200,127.600 387.380,127.600 387.600 C 127.600 387.820,128.140 388.000,128.800 388.000 C 129.460 388.000,130.000 388.180,130.000 388.400 C 130.000 388.620,130.360 388.800,130.800 388.800 C 131.240 388.800,131.600 388.980,131.600 389.200 C 131.600 389.420,132.140 389.600,132.800 389.600 C 133.460 389.600,134.000 389.780,134.000 390.000 C 134.000 390.220,134.540 390.400,135.200 390.400 C 135.860 390.400,136.400 390.569,136.400 390.776 C 136.400 390.982,137.660 391.276,139.200 391.427 C 140.740 391.579,142.000 391.860,142.000 392.052 C 142.000 392.243,142.450 392.400,143.000 392.400 C 143.550 392.400,144.000 392.580,144.000 392.800 C 144.000 393.020,144.720 393.200,145.600 393.200 C 146.480 393.200,147.200 393.380,147.200 393.600 C 147.200 393.820,147.740 394.000,148.400 394.000 C 149.060 394.000,149.600 394.180,149.600 394.400 C 149.600 394.620,150.320 394.800,151.200 394.800 C 152.080 394.800,152.800 394.980,152.800 395.200 C 152.800 395.420,153.700 395.600,154.800 395.600 C 155.900 395.600,156.800 395.780,156.800 396.000 C 156.800 396.220,157.520 396.400,158.400 396.400 C 159.280 396.400,160.000 396.580,160.000 396.800 C 160.000 397.020,160.990 397.200,162.200 397.200 C 163.410 397.200,164.400 397.380,164.400 397.600 C 164.400 397.822,165.467 398.000,166.800 398.000 C 168.133 398.000,169.200 398.178,169.200 398.400 C 169.200 398.628,170.389 398.800,171.967 398.800 C 173.824 398.800,174.788 398.964,174.900 399.300 C 175.144 400.032,224.856 400.032,225.100 399.300 C 225.212 398.964,226.176 398.800,228.033 398.800 C 229.611 398.800,230.800 398.628,230.800 398.400 C 230.800 398.178,231.867 398.000,233.200 398.000 C 234.533 398.000,235.600 397.822,235.600 397.600 C 235.600 397.378,236.667 397.200,238.000 397.200 C 239.333 397.200,240.400 397.022,240.400 396.800 C 240.400 396.580,241.030 396.400,241.800 396.400 C 242.570 396.400,243.200 396.220,243.200 396.000 C 243.200 395.780,244.100 395.600,245.200 395.600 C 246.300 395.600,247.200 395.420,247.200 395.200 C 247.200 394.980,247.920 394.800,248.800 394.800 C 249.680 394.800,250.400 394.620,250.400 394.400 C 250.400 394.180,251.120 394.000,252.000 394.000 C 252.880 394.000,253.600 393.820,253.600 393.600 C 253.600 393.380,254.140 393.200,254.800 393.200 C 255.460 393.200,256.000 393.020,256.000 392.800 C 256.000 392.580,256.630 392.400,257.400 392.400 C 258.170 392.400,258.800 392.238,258.800 392.039 C 258.800 391.841,259.880 391.553,261.200 391.400 C 262.520 391.247,263.600 390.959,263.600 390.761 C 263.600 390.562,264.140 390.400,264.800 390.400 C 265.460 390.400,266.000 390.220,266.000 390.000 C 266.000 389.780,266.540 389.600,267.200 389.600 C 267.860 389.600,268.400 389.420,268.400 389.200 C 268.400 388.980,268.760 388.800,269.200 388.800 C 269.640 388.800,270.000 388.620,270.000 388.400 C 270.000 388.180,270.540 388.000,271.200 388.000 C 271.860 388.000,272.400 387.820,272.400 387.600 C 272.400 387.380,272.940 387.200,273.600 387.200 C 274.260 387.200,274.800 387.020,274.800 386.800 C 274.800 386.580,275.070 386.400,275.400 386.400 C 275.730 386.400,276.000 386.220,276.000 386.000 C 276.000 385.780,276.540 385.600,277.200 385.600 C 277.860 385.600,278.400 385.420,278.400 385.200 C 278.400 384.980,278.760 384.800,279.200 384.800 C 279.640 384.800,280.000 384.620,280.000 384.400 C 280.000 384.180,280.360 384.000,280.800 384.000 C 281.240 384.000,281.600 383.820,281.600 383.600 C 281.600 383.380,281.960 383.200,282.400 383.200 C 282.840 383.200,283.200 383.020,283.200 382.800 C 283.200 382.580,283.740 382.400,284.400 382.400 C 285.060 382.400,285.600 382.220,285.600 382.000 C 285.600 381.780,285.960 381.600,286.400 381.600 C 286.840 381.600,287.200 381.420,287.200 381.200 C 287.200 380.980,287.560 380.800,288.000 380.800 C 288.440 380.800,288.800 380.620,288.800 380.400 C 288.800 380.180,289.160 380.000,289.600 380.000 C 290.040 380.000,290.400 379.820,290.400 379.600 C 290.400 379.380,290.670 379.200,291.000 379.200 C 291.330 379.200,291.600 379.020,291.600 378.800 C 291.600 378.580,291.960 378.400,292.400 378.400 C 292.840 378.400,293.200 378.220,293.200 378.000 C 293.200 377.780,293.520 377.600,293.912 377.600 C 294.303 377.600,294.883 377.240,295.200 376.800 C 295.517 376.360,296.097 376.000,296.488 376.000 C 296.880 376.000,297.200 375.836,297.200 375.635 C 297.200 375.434,297.920 375.149,298.800 375.000 C 299.680 374.851,300.400 374.566,300.400 374.365 C 300.400 374.164,300.720 374.000,301.112 374.000 C 301.503 374.000,302.083 373.640,302.400 373.200 C 302.717 372.760,303.297 372.400,303.688 372.400 C 304.080 372.400,304.400 372.220,304.400 372.000 C 304.400 371.780,304.720 371.600,305.112 371.600 C 305.503 371.600,306.083 371.240,306.400 370.800 C 306.717 370.360,307.285 370.000,307.661 370.000 C 308.038 370.000,308.460 369.640,308.600 369.200 C 308.740 368.760,309.162 368.400,309.539 368.400 C 309.915 368.400,310.483 368.040,310.800 367.600 C 311.117 367.160,311.657 366.800,312.000 366.800 C 312.343 366.800,312.883 366.440,313.200 366.000 C 313.517 365.560,314.057 365.200,314.400 365.200 C 314.743 365.200,315.283 364.840,315.600 364.400 C 315.917 363.960,316.425 363.600,316.728 363.600 C 317.031 363.600,317.783 363.060,318.400 362.400 C 319.017 361.740,319.737 361.200,320.000 361.200 C 320.263 361.200,320.983 360.660,321.600 360.000 C 322.217 359.340,322.986 358.800,323.310 358.800 C 323.633 358.800,324.436 358.170,325.094 357.400 C 325.752 356.630,326.506 356.000,326.771 356.000 C 327.035 356.000,328.129 355.100,329.200 354.000 C 330.271 352.900,331.345 352.000,331.586 352.000 C 331.827 352.000,334.185 349.795,336.826 347.100 C 342.585 341.223,341.223 342.585,347.100 336.826 C 349.795 334.185,352.000 331.827,352.000 331.586 C 352.000 331.345,352.900 330.271,354.000 329.200 C 355.100 328.129,356.000 327.035,356.000 326.771 C 356.000 326.506,356.630 325.752,357.400 325.094 C 358.170 324.436,358.800 323.633,358.800 323.310 C 358.800 322.986,359.340 322.217,360.000 321.600 C 360.660 320.983,361.200 320.263,361.200 320.000 C 361.200 319.737,361.754 319.004,362.430 318.372 C 363.343 317.519,363.627 316.937,363.530 316.111 C 363.417 315.142,363.522 315.017,364.351 315.134 C 365.235 315.258,365.283 315.170,365.041 313.880 C 364.806 312.626,364.881 312.466,365.813 312.232 C 366.614 312.031,366.790 311.798,366.597 311.190 C 366.411 310.605,366.610 310.287,367.380 309.936 C 368.117 309.601,368.345 309.258,368.180 308.736 C 368.014 308.215,368.243 307.872,368.980 307.536 C 369.699 307.209,369.944 306.853,369.788 306.363 C 369.626 305.851,369.814 305.625,370.483 305.530 C 371.148 305.436,371.402 305.134,371.409 304.430 C 371.413 303.897,371.619 303.394,371.866 303.311 C 372.113 303.229,372.223 302.810,372.111 302.381 C 371.975 301.862,372.109 301.600,372.509 301.600 C 372.840 301.600,373.086 301.287,373.056 300.904 C 373.025 300.522,373.404 300.029,373.897 299.811 C 374.505 299.541,374.722 299.185,374.570 298.706 C 374.420 298.234,374.556 298.000,374.981 298.000 C 375.468 298.000,375.553 297.753,375.348 296.934 C 375.126 296.052,375.194 295.912,375.740 296.122 C 376.454 296.396,376.659 295.808,375.993 295.396 C 375.415 295.039,375.970 294.303,376.628 294.555 C 376.928 294.671,377.298 294.565,377.449 294.321 C 377.615 294.052,377.541 293.989,377.262 294.162 C 376.451 294.663,376.764 293.403,377.600 292.800 C 378.040 292.483,378.400 291.903,378.400 291.512 C 378.400 291.120,378.580 290.800,378.800 290.800 C 379.020 290.800,379.200 290.459,379.200 290.043 C 379.200 289.626,379.467 289.183,379.793 289.058 C 380.131 288.928,380.285 288.565,380.150 288.215 C 380.021 287.877,380.114 287.600,380.357 287.600 C 380.601 287.600,380.800 287.259,380.800 286.843 C 380.800 286.426,381.078 285.979,381.417 285.849 C 381.895 285.665,381.940 285.436,381.617 284.832 C 381.055 283.782,381.089 283.600,381.843 283.600 C 382.257 283.600,382.402 283.381,382.250 282.985 C 382.115 282.633,382.271 282.271,382.614 282.139 C 382.944 282.013,383.166 281.614,383.107 281.254 C 383.048 280.895,383.225 280.645,383.500 280.700 C 383.775 280.755,384.000 280.440,384.000 280.000 C 384.000 279.560,384.203 279.200,384.450 279.200 C 384.738 279.200,384.812 278.762,384.657 277.985 C 384.480 277.098,384.580 276.706,385.030 276.533 C 385.369 276.403,385.551 276.050,385.436 275.748 C 385.320 275.447,385.470 275.200,385.770 275.200 C 386.521 275.200,386.838 274.199,386.269 273.624 C 385.910 273.261,385.960 273.060,386.483 272.765 C 386.862 272.551,387.066 272.116,386.941 271.789 C 386.796 271.414,386.959 271.200,387.389 271.200 C 387.930 271.200,388.012 270.963,387.800 270.000 C 387.590 269.043,387.671 268.800,388.200 268.800 C 388.723 268.800,388.810 268.556,388.611 267.649 C 388.392 266.652,388.495 266.463,389.379 266.241 C 390.467 265.968,390.808 264.800,389.800 264.800 C 388.845 264.800,389.105 264.110,390.160 263.846 C 390.997 263.636,391.157 263.295,391.400 261.202 C 391.553 259.881,391.841 258.800,392.039 258.800 C 392.238 258.800,392.400 258.170,392.400 257.400 C 392.400 256.630,392.580 256.000,392.800 256.000 C 393.020 256.000,393.200 255.460,393.200 254.800 C 393.200 254.140,393.380 253.600,393.600 253.600 C 393.820 253.600,394.000 252.880,394.000 252.000 C 394.000 251.120,394.180 250.400,394.400 250.400 C 394.620 250.400,394.800 249.680,394.800 248.800 C 394.800 247.920,394.980 247.200,395.200 247.200 C 395.420 247.200,395.600 246.300,395.600 245.200 C 395.600 244.100,395.780 243.200,396.000 243.200 C 396.220 243.200,396.400 242.570,396.400 241.800 C 396.400 241.030,396.580 240.400,396.800 240.400 C 397.022 240.400,397.200 239.333,397.200 238.000 C 397.200 236.667,397.378 235.600,397.600 235.600 C 397.822 235.600,398.000 234.533,398.000 233.200 C 398.000 231.867,398.178 230.800,398.400 230.800 C 398.628 230.800,398.800 229.611,398.800 228.033 C 398.800 226.176,398.964 225.212,399.300 225.100 C 400.032 224.856,400.032 175.144,399.300 174.900 C 398.956 174.785,398.800 173.744,398.800 171.567 C 398.800 169.722,398.633 168.400,398.400 168.400 C 398.178 168.400,398.000 167.333,398.000 166.000 C 398.000 164.667,397.822 163.600,397.600 163.600 C 397.380 163.600,397.200 162.790,397.200 161.800 C 397.200 160.810,397.020 160.000,396.800 160.000 C 396.580 160.000,396.400 159.100,396.400 158.000 C 396.400 156.900,396.220 156.000,396.000 156.000 C 395.780 156.000,395.600 155.280,395.600 154.400 C 395.600 153.520,395.420 152.800,395.200 152.800 C 394.980 152.800,394.800 152.080,394.800 151.200 C 394.800 150.320,394.620 149.600,394.400 149.600 C 394.180 149.600,394.000 148.880,394.000 148.000 C 394.000 147.120,393.820 146.400,393.600 146.400 C 393.380 146.400,393.200 145.860,393.200 145.200 C 393.200 144.540,393.020 144.000,392.800 144.000 C 392.580 144.000,392.400 143.370,392.400 142.600 C 392.400 141.830,392.238 141.200,392.039 141.200 C 391.841 141.200,391.553 140.120,391.400 138.800 C 391.247 137.480,390.959 136.400,390.761 136.400 C 390.562 136.400,390.400 135.860,390.400 135.200 C 390.400 134.540,390.220 134.000,390.000 134.000 C 389.780 134.000,389.600 133.460,389.600 132.800 C 389.600 132.140,389.420 131.600,389.200 131.600 C 388.980 131.600,388.800 131.060,388.800 130.400 C 388.800 129.740,388.620 129.200,388.400 129.200 C 388.180 129.200,388.000 128.840,388.000 128.400 C 388.000 127.960,387.820 127.600,387.600 127.600 C 387.380 127.600,387.200 127.150,387.200 126.600 C 387.200 126.050,387.020 125.600,386.800 125.600 C 386.580 125.600,386.400 125.240,386.400 124.800 C 386.400 124.360,386.220 124.000,386.000 124.000 C 385.780 124.000,385.600 123.460,385.600 122.800 C 385.600 122.140,385.420 121.600,385.200 121.600 C 384.980 121.600,384.800 121.240,384.800 120.800 C 384.800 120.360,384.620 120.000,384.400 120.000 C 384.180 120.000,384.000 119.640,384.000 119.200 C 384.000 118.760,383.820 118.400,383.600 118.400 C 383.380 118.400,383.200 118.040,383.200 117.600 C 383.200 117.160,383.020 116.800,382.800 116.800 C 382.580 116.800,382.400 116.260,382.400 115.600 C 382.400 114.940,382.220 114.400,382.000 114.400 C 381.780 114.400,381.600 114.040,381.600 113.600 C 381.600 113.160,381.420 112.800,381.200 112.800 C 380.980 112.800,380.800 112.440,380.800 112.000 C 380.800 111.560,380.620 111.200,380.400 111.200 C 380.180 111.200,380.000 110.930,380.000 110.600 C 380.000 110.270,379.820 110.000,379.600 110.000 C 379.380 110.000,379.200 109.640,379.200 109.200 C 379.200 108.760,379.020 108.400,378.800 108.400 C 378.580 108.400,378.400 108.040,378.400 107.600 C 378.400 107.160,378.220 106.800,378.000 106.800 C 377.780 106.800,377.600 106.440,377.600 106.000 C 377.600 105.560,377.420 105.200,377.200 105.200 C 376.980 105.200,376.800 104.880,376.800 104.488 C 376.800 104.097,376.450 103.525,376.023 103.217 C 375.596 102.909,375.130 101.969,374.988 101.128 C 374.846 100.288,374.566 99.600,374.365 99.600 C 374.164 99.600,374.000 99.280,374.000 98.888 C 374.000 98.497,373.640 97.917,373.200 97.600 C 372.760 97.283,372.400 96.703,372.400 96.312 C 372.400 95.920,372.220 95.600,372.000 95.600 C 371.780 95.600,371.600 95.252,371.600 94.827 C 371.600 94.402,371.240 93.940,370.800 93.800 C 370.360 93.660,370.000 93.238,370.000 92.861 C 370.000 92.485,369.640 91.917,369.200 91.600 C 368.760 91.283,368.400 90.743,368.400 90.400 C 368.400 90.057,368.040 89.517,367.600 89.200 C 367.160 88.883,366.800 88.343,366.800 88.000 C 366.800 87.657,366.440 87.117,366.000 86.800 C 365.560 86.483,365.200 85.943,365.200 85.600 C 365.200 85.257,364.840 84.717,364.400 84.400 C 363.960 84.083,363.600 83.575,363.600 83.272 C 363.600 82.969,363.060 82.217,362.400 81.600 C 361.740 80.983,361.200 80.263,361.200 80.000 C 361.200 79.737,360.660 79.017,360.000 78.400 C 359.340 77.783,358.800 77.087,358.800 76.853 C 358.800 76.618,358.170 75.797,357.400 75.027 C 356.630 74.257,356.000 73.429,356.000 73.187 C 356.000 72.946,355.100 71.871,354.000 70.800 C 352.900 69.729,352.000 68.654,352.000 68.412 C 352.000 68.170,350.155 66.178,347.900 63.985 C 342.907 59.130,342.776 58.999,336.814 52.900 C 334.179 50.205,331.827 48.000,331.586 48.000 C 331.345 48.000,330.300 47.130,329.264 46.066 C 328.228 45.002,326.890 44.009,326.290 43.858 C 325.691 43.708,325.200 43.436,325.200 43.254 C 325.200 42.707,323.743 41.200,323.214 41.200 C 322.943 41.200,322.217 40.660,321.600 40.000 C 320.983 39.340,320.263 38.800,320.000 38.800 C 319.737 38.800,319.017 38.260,318.400 37.600 C 317.783 36.940,317.031 36.400,316.728 36.400 C 316.425 36.400,315.917 36.040,315.600 35.600 C 315.283 35.160,314.743 34.800,314.400 34.800 C 314.057 34.800,313.517 34.440,313.200 34.000 C 312.883 33.560,312.343 33.200,312.000 33.200 C 311.657 33.200,311.117 32.840,310.800 32.400 C 310.483 31.960,309.915 31.600,309.539 31.600 C 309.162 31.600,308.740 31.240,308.600 30.800 C 308.460 30.360,308.038 30.000,307.661 30.000 C 307.285 30.000,306.717 29.640,306.400 29.200 C 306.083 28.760,305.503 28.400,305.112 28.400 C 304.720 28.400,304.400 28.220,304.400 28.000 C 304.400 27.780,304.053 27.600,303.629 27.600 C 303.204 27.600,302.587 27.330,302.257 27.000 C 301.927 26.670,301.374 26.400,301.029 26.400 C 300.683 26.400,300.400 26.220,300.400 26.000 C 300.400 25.780,300.040 25.600,299.600 25.600 C 299.160 25.600,298.800 25.420,298.800 25.200 C 298.800 24.980,298.480 24.800,298.088 24.800 C 297.697 24.800,297.117 24.440,296.800 24.000 C 296.483 23.560,295.903 23.200,295.512 23.200 C 295.120 23.200,294.800 23.020,294.800 22.800 C 294.800 22.580,294.440 22.400,294.000 22.400 C 293.560 22.400,293.200 22.220,293.200 22.000 C 293.200 21.780,292.840 21.600,292.400 21.600 C 291.960 21.600,291.600 21.420,291.600 21.200 C 291.600 20.980,291.330 20.800,291.000 20.800 C 290.670 20.800,290.400 20.620,290.400 20.400 C 290.400 20.180,290.040 20.000,289.600 20.000 C 289.160 20.000,288.800 19.820,288.800 19.600 C 288.800 19.380,288.440 19.200,288.000 19.200 C 287.560 19.200,287.200 19.020,287.200 18.800 C 287.200 18.580,286.840 18.400,286.400 18.400 C 285.960 18.400,285.600 18.220,285.600 18.000 C 285.600 17.780,285.240 17.600,284.800 17.600 C 284.360 17.600,284.000 17.420,284.000 17.200 C 284.000 16.980,283.460 16.800,282.800 16.800 C 282.140 16.800,281.600 16.620,281.600 16.400 C 281.600 16.180,281.240 16.000,280.800 16.000 C 280.360 16.000,280.000 15.820,280.000 15.600 C 280.000 15.380,279.640 15.200,279.200 15.200 C 278.760 15.200,278.400 15.020,278.400 14.800 C 278.400 14.580,277.860 14.400,277.200 14.400 C 276.540 14.400,276.000 14.220,276.000 14.000 C 276.000 13.780,275.730 13.600,275.400 13.600 C 275.070 13.600,274.800 13.420,274.800 13.200 C 274.800 12.980,274.260 12.800,273.600 12.800 C 272.940 12.800,272.400 12.620,272.400 12.400 C 272.400 12.180,272.040 12.000,271.600 12.000 C 271.160 12.000,270.800 11.820,270.800 11.600 C 270.800 11.380,270.260 11.200,269.600 11.200 C 268.940 11.200,268.400 11.038,268.400 10.839 C 268.400 10.641,267.320 10.353,266.000 10.200 C 264.680 10.047,263.600 9.759,263.600 9.561 C 263.600 9.362,263.060 9.200,262.400 9.200 C 261.740 9.200,261.200 9.020,261.200 8.800 C 261.200 8.580,260.660 8.400,260.000 8.400 C 259.340 8.400,258.800 8.220,258.800 8.000 C 258.800 7.780,258.170 7.600,257.400 7.600 C 256.630 7.600,256.000 7.420,256.000 7.200 C 256.000 6.980,255.460 6.800,254.800 6.800 C 254.140 6.800,253.600 6.620,253.600 6.400 C 253.600 6.180,252.880 6.000,252.000 6.000 C 251.120 6.000,250.400 5.820,250.400 5.600 C 250.400 5.380,249.680 5.200,248.800 5.200 C 247.920 5.200,247.200 5.020,247.200 4.800 C 247.200 4.580,246.480 4.400,245.600 4.400 C 244.720 4.400,244.000 4.220,244.000 4.000 C 244.000 3.780,243.190 3.600,242.200 3.600 C 241.210 3.600,240.400 3.420,240.400 3.200 C 240.400 2.980,239.500 2.800,238.400 2.800 C 237.300 2.800,236.400 2.620,236.400 2.400 C 236.400 2.178,235.333 2.000,234.000 2.000 C 232.667 2.000,231.600 1.822,231.600 1.600 C 231.600 1.367,230.278 1.200,228.433 1.200 C 226.288 1.200,225.214 1.042,225.103 0.709 C 224.941 0.224,188.617 -0.116,178.700 0.275 M217.400 100.069 C 220.285 99.792,244.600 99.594,245.169 99.843 C 245.516 99.995,246.186 100.082,246.659 100.036 C 247.576 99.948,249.759 101.820,249.405 102.392 C 249.290 102.579,249.367 102.792,249.577 102.866 C 249.808 102.947,249.983 108.533,250.020 117.000 L 250.081 131.000 248.341 132.800 L 246.600 134.600 236.800 134.400 C 227.859 134.218,226.932 134.261,226.225 134.900 C 225.368 135.673,224.183 135.820,223.800 135.200 C 223.426 134.595,222.800 134.721,222.800 135.400 C 222.800 135.733,222.444 136.000,222.000 136.000 C 221.560 136.000,221.199 136.135,221.197 136.300 C 221.194 136.611,219.296 137.600,218.702 137.600 C 218.123 137.600,216.533 139.399,216.692 139.875 C 216.774 140.123,216.653 140.444,216.421 140.587 C 216.190 140.730,216.000 141.197,216.000 141.624 C 216.000 142.070,215.727 142.400,215.357 142.400 C 214.996 142.400,214.801 142.627,214.913 142.917 C 215.022 143.201,214.864 143.772,214.562 144.185 C 214.199 144.681,214.095 145.456,214.257 146.466 C 214.421 147.491,214.320 148.215,213.951 148.659 C 213.365 149.365,212.847 172.538,213.371 174.625 L 213.620 175.617 229.910 175.484 C 238.869 175.410,246.666 175.211,247.235 175.041 C 249.407 174.392,252.288 179.607,250.769 181.438 C 250.528 181.727,250.559 182.629,250.853 183.903 C 251.277 185.738,251.242 186.017,250.450 187.129 C 249.693 188.193,249.634 188.564,249.982 190.073 C 250.556 192.561,250.494 193.348,249.654 194.249 C 248.995 194.958,248.956 195.312,249.322 197.327 C 249.696 199.391,249.658 199.689,248.916 200.503 C 248.166 201.325,248.134 201.607,248.524 203.894 C 248.915 206.183,248.883 206.463,248.129 207.294 C 247.495 207.994,247.380 208.454,247.624 209.316 C 247.900 210.291,247.716 210.661,246.167 212.255 L 244.395 214.079 228.897 214.139 L 213.400 214.200 213.200 255.600 C 213.090 278.370,213.153 297.221,213.341 297.490 C 213.563 297.809,213.262 298.400,212.477 299.185 L 211.273 300.389 194.483 300.378 C 176.839 300.366,175.475 300.220,176.559 298.467 C 176.689 298.256,176.526 297.981,176.198 297.854 C 175.673 297.653,175.600 292.535,175.600 255.783 L 175.600 213.940 164.092 214.036 C 151.814 214.138,150.389 213.951,150.060 212.197 C 149.978 211.759,149.664 211.258,149.362 211.084 C 148.923 210.831,148.910 210.613,149.297 209.994 C 149.675 209.388,149.674 209.114,149.290 208.730 C 148.700 208.140,148.587 180.955,149.171 180.033 C 149.368 179.722,149.385 179.087,149.209 178.623 C 148.844 177.664,150.805 175.309,151.573 175.784 C 151.808 175.929,152.000 175.812,152.000 175.524 C 152.000 175.004,155.912 174.961,171.905 175.304 C 174.383 175.357,176.228 175.340,176.005 175.267 C 175.116 174.974,175.488 142.391,176.390 141.609 C 177.059 141.029,177.120 140.716,176.790 139.565 C 176.238 137.642,176.306 136.011,176.948 135.764 C 177.343 135.613,177.441 135.058,177.297 133.784 C 177.145 132.439,177.243 131.958,177.705 131.781 C 178.088 131.634,178.232 131.245,178.096 130.724 C 177.964 130.220,178.117 129.767,178.487 129.559 C 178.875 129.342,179.023 128.857,178.900 128.210 C 178.765 127.507,178.882 127.200,179.284 127.200 C 179.698 127.200,179.812 126.860,179.685 126.000 C 179.580 125.280,179.687 124.800,179.955 124.800 C 180.200 124.800,180.400 124.440,180.400 124.000 C 180.400 123.560,180.580 123.200,180.800 123.200 C 181.020 123.200,181.200 122.840,181.200 122.400 C 181.200 121.960,181.380 121.600,181.600 121.600 C 181.820 121.600,182.000 121.240,182.000 120.800 C 182.000 120.360,182.180 120.000,182.400 120.000 C 182.620 120.000,182.800 119.650,182.800 119.223 C 182.800 118.795,183.159 118.194,183.597 117.887 C 184.036 117.580,184.301 117.234,184.186 117.119 C 183.912 116.845,185.900 114.777,187.287 113.892 C 187.957 113.465,188.288 112.972,188.148 112.609 C 187.868 111.880,189.032 110.650,189.744 110.923 C 190.032 111.034,190.601 110.680,191.009 110.137 C 192.591 108.029,193.192 107.511,193.788 107.740 C 194.125 107.869,194.400 107.788,194.400 107.559 C 194.400 106.941,195.455 106.000,196.148 106.000 C 196.481 106.000,196.866 105.817,197.004 105.593 C 197.142 105.370,197.423 105.291,197.628 105.417 C 197.832 105.544,198.000 105.470,198.000 105.253 C 198.000 104.739,200.391 103.547,200.851 103.832 C 201.046 103.952,201.318 103.759,201.454 103.402 C 201.591 103.046,201.935 102.843,202.219 102.952 C 202.502 103.061,202.841 102.870,202.972 102.529 C 203.128 102.122,203.545 101.973,204.185 102.095 C 204.806 102.214,205.241 102.069,205.384 101.697 C 205.548 101.269,205.969 101.180,206.958 101.366 C 207.995 101.560,208.365 101.468,208.558 100.966 C 208.746 100.475,209.130 100.369,210.104 100.541 C 210.891 100.680,211.793 100.546,212.400 100.200 C 213.066 99.820,213.868 99.722,214.800 99.907 C 215.570 100.059,216.740 100.132,217.400 100.069 " stroke="none" fill="#fbfbfb" fill-rule="evenodd"></path><path id="path2" d="M217.200 100.400 L 215.400 100.680 217.076 100.740 C 217.998 100.773,218.864 100.620,219.000 100.400 C 219.136 100.180,219.192 100.027,219.124 100.060 C 219.056 100.093,218.190 100.246,217.200 100.400 M247.416 100.774 C 247.271 101.008,247.424 101.200,247.757 101.200 C 248.089 101.200,248.544 101.515,248.768 101.900 C 248.992 102.285,249.181 102.403,249.188 102.162 C 249.208 101.451,247.719 100.285,247.416 100.774 M188.636 111.560 C 188.119 112.132,188.069 112.396,188.436 112.622 C 188.736 112.808,188.821 112.757,188.655 112.489 C 188.507 112.250,188.790 111.772,189.282 111.427 C 189.775 111.082,189.986 110.800,189.751 110.800 C 189.516 110.800,189.014 111.142,188.636 111.560 M226.652 133.916 C 226.544 134.090,227.118 134.170,227.928 134.093 C 230.402 133.859,230.693 133.695,228.724 133.646 C 227.692 133.621,226.759 133.742,226.652 133.916 M175.761 142.558 C 175.643 142.865,175.608 143.810,175.683 144.658 C 175.810 146.087,175.834 146.046,176.010 144.100 C 176.204 141.956,176.141 141.567,175.761 142.558 M213.180 150.290 C 213.071 151.219,213.133 151.827,213.320 151.640 C 213.506 151.454,213.596 150.694,213.519 149.951 C 213.383 148.633,213.375 148.642,213.180 150.290 M152.138 175.417 C 152.008 175.757,152.013 176.147,152.151 176.284 C 152.288 176.421,152.400 176.214,152.400 175.824 C 152.400 175.347,152.604 175.193,153.021 175.353 C 153.377 175.489,153.537 175.422,153.397 175.195 C 153.033 174.607,152.407 174.717,152.138 175.417 M249.021 194.377 C 248.634 194.804,248.412 195.389,248.527 195.677 C 248.689 196.080,248.744 196.069,248.768 195.631 C 248.786 195.319,249.098 194.734,249.462 194.331 C 249.826 193.929,250.034 193.600,249.924 193.600 C 249.814 193.600,249.408 193.950,249.021 194.377 M153.512 213.928 C 153.134 214.078,157.944 214.145,164.202 214.077 L 175.579 213.954 175.691 220.277 L 175.802 226.600 176.001 220.099 L 176.200 213.599 165.200 213.628 C 159.150 213.643,153.890 213.779,153.512 213.928 M220.926 213.900 C 225.066 213.965,231.726 213.965,235.726 213.899 C 239.727 213.834,236.340 213.781,228.200 213.781 C 220.060 213.781,216.787 213.834,220.926 213.900 M175.755 242.600 C 175.756 245.460,175.820 246.578,175.897 245.083 C 175.974 243.589,175.974 241.249,175.896 239.883 C 175.818 238.518,175.755 239.740,175.755 242.600 " stroke="none" fill="#acacac" fill-rule="evenodd"></path><path id="path3" d="M225.900 99.899 C 229.475 99.966,235.325 99.966,238.900 99.899 C 242.475 99.833,239.550 99.779,232.400 99.779 C 225.250 99.779,222.325 99.833,225.900 99.899 M208.643 100.731 C 208.456 101.033,211.844 101.089,212.144 100.789 C 212.249 100.684,211.542 100.567,210.572 100.530 C 209.603 100.492,208.734 100.583,208.643 100.731 M205.465 101.500 C 205.364 101.665,206.029 101.824,206.941 101.854 C 208.147 101.893,208.382 101.819,207.800 101.582 C 206.761 101.159,205.695 101.121,205.465 101.500 M249.778 116.600 C 249.779 123.640,249.833 126.464,249.899 122.875 C 249.966 119.286,249.966 113.526,249.899 110.075 C 249.833 106.624,249.778 109.560,249.778 116.600 M198.146 104.998 C 198.019 105.326,197.727 105.479,197.496 105.336 C 197.251 105.184,197.195 105.269,197.362 105.538 C 197.793 106.237,198.282 106.093,198.516 105.200 C 198.759 104.270,198.483 104.119,198.146 104.998 M178.102 130.900 C 178.194 131.175,177.984 131.635,177.635 131.922 C 177.095 132.366,177.132 132.380,177.885 132.016 C 178.429 131.753,178.682 131.359,178.542 130.994 C 178.267 130.277,177.863 130.190,178.102 130.900 M177.206 133.833 C 177.209 134.255,177.395 134.870,177.618 135.200 C 177.915 135.638,177.952 135.476,177.756 134.600 C 177.427 133.129,177.198 132.810,177.206 133.833 M237.400 134.369 C 242.460 134.502,246.742 134.502,246.915 134.370 C 247.089 134.237,242.949 134.129,237.715 134.129 L 228.200 134.129 237.400 134.369 M225.777 134.838 C 225.628 135.078,225.083 135.194,224.565 135.095 C 224.048 134.997,223.719 135.070,223.836 135.258 C 223.952 135.446,224.352 135.594,224.724 135.587 C 225.470 135.573,227.226 134.400,226.500 134.400 C 226.251 134.400,225.925 134.597,225.777 134.838 M176.644 139.000 C 176.973 140.471,177.202 140.790,177.194 139.767 C 177.191 139.345,177.005 138.730,176.782 138.400 C 176.485 137.962,176.448 138.124,176.644 139.000 M213.067 151.867 C 212.697 152.236,212.729 174.709,213.100 174.938 C 213.265 175.040,213.400 169.831,213.400 163.362 C 213.400 156.893,213.385 151.600,213.367 151.600 C 213.348 151.600,213.213 151.720,213.067 151.867 M153.546 175.307 C 153.715 175.475,158.791 175.565,164.827 175.506 L 175.800 175.399 164.519 175.200 C 158.315 175.090,153.377 175.138,153.546 175.307 M250.558 179.876 C 250.583 180.875,250.746 181.407,250.963 181.193 C 251.180 180.978,251.163 180.305,250.921 179.517 L 250.517 178.200 250.558 179.876 M149.049 180.215 C 148.912 180.573,148.841 187.106,148.890 194.733 L 148.980 208.600 149.190 194.200 C 149.415 178.747,149.420 179.249,149.049 180.215 M250.093 192.400 C 250.093 193.170,250.175 193.485,250.276 193.100 C 250.376 192.715,250.376 192.085,250.276 191.700 C 250.175 191.315,250.093 191.630,250.093 192.400 M249.260 198.569 C 249.227 199.211,248.892 200.111,248.515 200.569 C 247.842 201.385,247.846 201.385,248.747 200.557 C 249.413 199.944,249.617 199.397,249.492 198.557 L 249.320 197.400 249.260 198.569 M150.201 212.802 C 150.319 212.993,150.955 213.418,151.615 213.747 C 152.274 214.076,152.717 214.189,152.599 213.998 C 152.481 213.807,151.845 213.382,151.185 213.053 C 150.526 212.724,150.083 212.611,150.201 212.802 M212.984 214.500 C 212.880 214.775,212.840 233.270,212.897 255.600 L 213.000 296.200 213.200 255.100 C 213.310 232.495,213.349 214.000,213.287 214.000 C 213.226 214.000,213.089 214.225,212.984 214.500 M175.759 232.000 C 175.759 235.190,175.821 236.495,175.897 234.900 C 175.973 233.305,175.973 230.695,175.897 229.100 C 175.821 227.505,175.759 228.810,175.759 232.000 M178.667 300.108 C 178.771 300.277,186.246 300.404,195.278 300.391 C 204.310 300.378,211.614 300.280,211.508 300.175 C 211.181 299.848,178.465 299.781,178.667 300.108 M372.984 300.427 C 372.839 300.661,372.816 300.949,372.933 301.067 C 373.220 301.353,374.000 300.848,374.000 300.376 C 374.000 299.865,373.309 299.899,372.984 300.427 " stroke="none" fill="#bcbcbc" fill-rule="evenodd"></path><path id="path4" d="M212.300 100.557 C 211.915 100.849,211.600 101.231,211.600 101.406 C 211.600 101.581,211.948 101.409,212.373 101.024 C 212.941 100.510,213.498 100.394,214.473 100.587 C 215.457 100.781,215.645 100.740,215.200 100.430 C 214.384 99.861,213.145 99.915,212.300 100.557 M219.062 100.300 C 218.960 100.465,224.872 100.600,232.200 100.600 C 239.528 100.600,245.440 100.465,245.338 100.300 C 245.236 100.135,239.324 100.000,232.200 100.000 C 225.076 100.000,219.164 100.135,219.062 100.300 M246.694 100.239 C 246.247 100.687,246.883 101.600,247.643 101.600 C 248.126 101.600,248.400 101.881,248.400 102.376 C 248.400 102.803,248.580 103.264,248.800 103.400 C 249.053 103.557,249.200 108.396,249.200 116.600 C 249.200 123.724,249.335 129.636,249.500 129.738 C 249.665 129.841,249.750 123.911,249.690 116.562 C 249.621 108.235,249.432 103.200,249.190 103.200 C 248.975 103.200,248.800 102.823,248.800 102.363 C 248.800 101.872,248.481 101.442,248.028 101.323 C 247.568 101.203,247.343 100.894,247.470 100.561 C 247.684 100.003,247.151 99.782,246.694 100.239 M206.200 102.001 C 207.212 102.435,208.801 102.495,208.798 102.100 C 208.797 101.935,208.032 101.768,207.098 101.729 C 205.842 101.677,205.608 101.748,206.200 102.001 M201.600 104.027 C 201.600 104.272,201.259 104.346,200.800 104.200 C 200.360 104.060,200.000 104.108,200.000 104.306 C 200.000 104.833,201.213 104.746,202.383 104.136 C 203.372 103.620,203.375 103.605,202.500 103.602 C 202.005 103.601,201.600 103.792,201.600 104.027 M198.400 105.400 C 198.400 105.733,198.044 106.000,197.600 106.000 C 197.160 106.000,196.800 106.199,196.800 106.443 C 196.800 106.686,196.537 106.785,196.215 106.661 C 195.871 106.529,195.291 106.867,194.809 107.479 C 194.358 108.053,193.878 108.411,193.742 108.275 C 193.373 107.907,192.000 108.749,192.000 109.344 C 192.000 110.010,190.222 111.689,189.880 111.347 C 189.505 110.972,188.363 112.016,188.646 112.475 C 188.955 112.975,187.247 114.791,186.430 114.832 C 185.968 114.855,185.943 114.920,186.335 115.076 C 187.008 115.345,189.656 112.826,189.320 112.237 C 189.184 111.996,189.224 111.938,189.410 112.107 C 189.814 112.475,192.400 110.066,192.400 109.322 C 192.400 108.824,192.868 108.642,193.850 108.759 C 194.098 108.788,194.600 108.354,194.968 107.793 C 195.335 107.233,195.785 106.867,195.969 106.981 C 196.396 107.245,198.800 106.058,198.800 105.583 C 198.800 105.386,199.115 105.326,199.500 105.450 C 200.091 105.640,200.106 105.608,199.600 105.244 C 198.770 104.647,198.400 104.695,198.400 105.400 M185.640 116.400 C 185.602 117.122,185.492 117.249,185.244 116.857 C 185.055 116.559,184.799 116.477,184.676 116.676 C 184.553 116.875,184.592 117.263,184.762 117.538 C 185.200 118.248,186.127 117.072,185.879 116.119 C 185.746 115.605,185.678 115.685,185.640 116.400 M183.737 118.580 C 183.891 118.981,183.767 119.086,183.333 118.919 C 182.842 118.731,182.766 118.864,182.981 119.539 C 183.137 120.031,183.081 120.400,182.852 120.400 C 182.631 120.400,182.476 120.748,182.508 121.172 C 182.540 121.597,182.712 121.855,182.890 121.745 C 183.067 121.635,183.124 121.401,183.016 121.226 C 182.908 121.050,183.162 120.596,183.582 120.216 C 184.346 119.525,184.545 118.000,183.872 118.000 C 183.675 118.000,183.614 118.261,183.737 118.580 M181.737 122.467 C 181.860 122.852,181.689 123.234,181.333 123.370 C 180.994 123.500,180.816 123.864,180.936 124.178 C 181.056 124.491,180.981 124.836,180.768 124.944 C 180.554 125.052,180.610 125.086,180.890 125.020 C 181.171 124.954,181.348 124.677,181.285 124.405 C 181.222 124.133,181.443 123.705,181.778 123.455 C 182.231 123.115,182.276 122.848,181.955 122.400 C 181.586 121.886,181.555 121.895,181.737 122.467 M180.036 125.922 C 180.537 126.741,180.521 126.889,179.898 127.243 C 179.414 127.518,179.268 127.930,179.427 128.567 C 179.586 129.200,179.458 129.569,179.020 129.737 C 178.563 129.912,178.453 130.270,178.634 130.991 C 178.828 131.768,178.733 132.000,178.219 132.000 C 177.579 132.000,177.654 135.362,178.308 136.000 C 178.420 136.110,178.403 135.362,178.269 134.338 C 178.075 132.856,178.155 132.426,178.659 132.233 C 179.078 132.072,179.229 131.662,179.105 131.015 C 178.986 130.395,179.131 129.959,179.502 129.816 C 179.891 129.667,180.005 129.276,179.845 128.638 C 179.683 127.993,179.799 127.609,180.203 127.454 C 180.994 127.151,180.961 126.231,180.136 125.549 C 179.527 125.046,179.519 125.077,180.036 125.922 M248.600 131.430 L 247.400 132.455 248.700 131.741 C 249.415 131.349,250.000 130.886,250.000 130.714 C 250.000 130.259,249.923 130.299,248.600 131.430 M226.034 134.031 C 225.503 134.473,224.818 134.739,224.513 134.622 C 224.208 134.505,224.068 134.587,224.203 134.805 C 224.614 135.470,225.414 135.249,226.400 134.200 C 227.527 133.001,227.362 132.925,226.034 134.031 M231.400 133.852 C 233.896 134.110,246.812 134.188,245.927 133.940 C 245.417 133.797,241.670 133.691,237.600 133.704 C 233.530 133.717,230.740 133.784,231.400 133.852 M222.400 134.800 C 222.400 135.020,221.978 135.200,221.462 135.200 C 220.946 135.200,220.198 135.560,219.800 136.000 C 219.402 136.440,218.869 136.800,218.616 136.800 C 217.987 136.800,215.391 139.525,215.714 139.847 C 215.856 139.990,215.529 140.455,214.986 140.882 C 214.318 141.408,214.000 142.057,214.000 142.896 C 214.000 143.576,214.130 144.004,214.288 143.845 C 214.446 143.687,214.581 143.162,214.588 142.679 C 214.595 142.148,214.817 141.846,215.149 141.916 C 215.487 141.988,215.612 141.808,215.474 141.449 C 215.351 141.129,215.506 140.768,215.819 140.648 C 216.131 140.528,216.295 140.192,216.183 139.900 C 215.937 139.259,218.175 137.013,218.722 137.352 C 218.935 137.484,219.330 137.325,219.600 137.000 C 219.870 136.675,220.250 136.507,220.445 136.628 C 220.640 136.749,220.800 136.567,220.800 136.224 C 220.800 135.825,221.161 135.600,221.800 135.600 C 222.422 135.600,222.800 135.373,222.800 135.000 C 222.800 134.670,222.710 134.400,222.600 134.400 C 222.490 134.400,222.400 134.580,222.400 134.800 M177.060 139.046 C 177.214 140.371,177.140 141.190,176.849 141.370 C 176.602 141.522,176.400 141.851,176.400 142.100 C 176.400 142.349,176.664 142.204,176.987 141.776 C 177.654 140.895,177.779 138.499,177.204 137.600 C 176.946 137.197,176.899 137.671,177.060 139.046 M176.101 144.200 C 176.105 145.080,176.187 145.393,176.283 144.895 C 176.379 144.398,176.375 143.678,176.275 143.295 C 176.175 142.913,176.096 143.320,176.101 144.200 M213.200 145.176 C 213.200 145.603,213.335 146.036,213.500 146.138 C 213.665 146.240,213.800 145.891,213.800 145.362 C 213.800 144.833,213.665 144.400,213.500 144.400 C 213.335 144.400,213.200 144.749,213.200 145.176 M175.695 160.220 C 175.623 171.202,175.717 174.757,176.092 175.132 C 176.481 175.521,174.109 175.600,164.730 175.512 C 158.210 175.450,152.959 175.535,153.061 175.700 C 153.462 176.346,176.800 176.051,176.800 175.400 C 176.800 175.070,176.622 174.800,176.405 174.800 C 176.154 174.800,175.970 169.504,175.900 160.300 L 175.790 145.800 175.695 160.220 M213.617 146.800 C 213.229 147.818,213.235 148.925,213.626 148.534 C 213.873 148.287,213.989 147.751,213.884 147.342 C 213.779 146.934,213.659 146.690,213.617 146.800 M212.667 151.467 C 212.297 151.837,212.329 175.200,212.700 175.200 C 212.865 175.200,213.000 169.800,213.000 163.200 C 213.000 156.600,212.985 151.200,212.967 151.200 C 212.948 151.200,212.813 151.320,212.667 151.467 M230.400 175.600 L 213.000 175.813 230.220 175.906 C 243.334 175.978,247.568 176.119,247.979 176.500 C 248.410 176.900,248.461 176.900,248.235 176.500 C 248.080 176.225,248.154 176.000,248.400 176.000 C 248.646 176.000,248.736 175.820,248.600 175.600 C 248.464 175.380,248.228 175.242,248.076 175.294 C 247.924 175.345,239.970 175.483,230.400 175.600 M150.711 176.763 C 150.430 177.164,150.065 177.517,149.900 177.546 C 149.735 177.576,149.600 177.690,149.600 177.800 C 149.600 177.910,149.600 178.202,149.600 178.449 C 149.600 178.759,149.785 178.744,150.200 178.400 C 150.530 178.126,150.800 177.667,150.800 177.379 C 150.800 177.091,151.205 176.796,151.700 176.724 C 152.464 176.613,152.496 176.550,151.911 176.313 C 151.462 176.131,151.044 176.288,150.711 176.763 M250.200 180.562 C 250.200 181.091,250.335 181.440,250.500 181.338 C 250.665 181.236,250.800 180.803,250.800 180.376 C 250.800 179.949,250.665 179.600,250.500 179.600 C 250.335 179.600,250.200 180.033,250.200 180.562 M149.467 180.267 C 149.097 180.637,149.129 208.309,149.500 208.538 C 149.665 208.640,149.800 202.261,149.800 194.362 C 149.800 186.463,149.785 180.000,149.767 180.000 C 149.748 180.000,149.613 180.120,149.467 180.267 M250.179 185.166 C 250.190 186.022,250.335 186.640,250.500 186.538 C 250.892 186.296,250.875 184.737,250.473 184.104 C 250.290 183.816,250.167 184.261,250.179 185.166 M249.200 190.600 C 249.200 191.150,249.355 191.600,249.545 191.600 C 249.734 191.600,249.803 191.150,249.698 190.600 C 249.593 190.050,249.438 189.600,249.353 189.600 C 249.269 189.600,249.200 190.050,249.200 190.600 M249.599 192.200 C 249.547 192.420,249.534 192.758,249.569 192.950 C 249.605 193.143,249.318 193.683,248.932 194.150 L 248.230 195.000 249.154 194.150 C 249.715 193.633,250.002 193.006,249.885 192.550 C 249.779 192.137,249.651 191.980,249.599 192.200 M248.554 197.899 C 248.579 199.054,248.735 199.999,248.900 199.999 C 249.273 200.000,249.223 198.136,248.814 196.800 C 248.592 196.074,248.520 196.375,248.554 197.899 M247.853 204.047 C 248.016 206.205,247.937 206.739,247.426 206.935 C 246.737 207.199,246.521 210.180,247.162 210.576 C 247.368 210.704,247.430 210.104,247.307 209.184 C 247.138 207.923,247.248 207.453,247.809 207.043 C 248.455 206.570,248.484 206.260,248.091 203.959 L 247.654 201.400 247.853 204.047 M149.383 210.427 C 149.238 210.662,149.500 210.953,149.968 211.076 C 150.677 211.261,150.734 211.398,150.312 211.907 C 149.876 212.431,149.944 212.480,150.803 212.261 C 151.351 212.122,151.575 212.111,151.300 212.237 C 150.592 212.562,150.676 213.333,151.389 213.059 C 151.716 212.934,152.149 213.137,152.359 213.513 C 152.569 213.887,152.839 214.095,152.959 213.974 C 153.307 213.626,150.805 210.800,150.147 210.800 C 149.820 210.800,149.664 210.620,149.800 210.400 C 149.936 210.180,149.957 210.000,149.847 210.000 C 149.737 210.000,149.528 210.192,149.383 210.427 M245.633 211.515 C 245.321 211.892,244.705 212.605,244.263 213.100 C 243.822 213.595,243.627 213.985,243.830 213.966 C 244.309 213.922,247.004 210.795,246.546 210.815 C 246.356 210.824,245.945 211.139,245.633 211.515 M153.865 213.494 C 153.761 213.662,158.744 213.750,164.938 213.688 L 176.200 213.576 176.091 229.864 C 176.031 238.822,176.087 246.047,176.215 245.919 C 176.343 245.791,176.447 238.422,176.447 229.543 L 176.447 213.400 165.251 213.294 C 159.093 213.235,153.970 213.325,153.865 213.494 M212.900 213.798 C 212.506 214.246,212.421 223.046,212.498 255.483 L 212.596 296.600 212.700 255.639 C 212.776 225.759,212.927 214.529,213.259 214.129 C 213.632 213.680,216.354 213.601,228.419 213.691 C 236.507 213.751,243.041 213.665,242.938 213.500 C 242.559 212.887,213.448 213.176,212.900 213.798 M175.697 272.104 C 175.603 295.999,175.625 296.829,176.365 297.463 C 176.786 297.823,177.043 298.343,176.938 298.618 C 176.720 299.184,177.439 299.737,178.493 299.814 C 179.462 299.886,179.421 299.806,177.603 298.094 L 176.006 296.590 175.900 271.995 L 175.794 247.400 175.697 272.104 M211.600 299.024 C 211.600 299.367,211.420 299.536,211.200 299.400 C 210.980 299.264,210.800 299.343,210.800 299.576 C 210.800 300.284,211.545 300.050,212.000 299.200 C 212.290 298.658,212.295 298.400,212.014 298.400 C 211.786 298.400,211.600 298.681,211.600 299.024 " stroke="none" fill="#6c6c6c" fill-rule="evenodd"></path></g></svg>