<svg id="svg" version="1.1" xmlns="http://www.w3.org/2000/svg" xmlns:xlink="http://www.w3.org/1999/xlink" width="400" height="400" viewBox="0, 0, 400,400"><g id="svgg"><path id="path0" d="M222.200 100.400 C 222.059 100.629,220.004 100.800,217.400 100.800 C 214.796 100.800,212.741 100.971,212.600 101.200 C 212.464 101.420,211.733 101.600,210.976 101.600 C 210.219 101.600,209.600 101.780,209.600 102.000 C 209.600 102.220,208.880 102.400,208.000 102.400 C 207.120 102.400,206.400 102.580,206.400 102.800 C 206.400 103.020,205.860 103.200,205.200 103.200 C 204.540 103.200,204.000 103.380,204.000 103.600 C 204.000 103.820,203.640 104.000,203.200 104.000 C 202.760 104.000,202.400 104.180,202.400 104.400 C 202.400 104.620,202.068 104.800,201.661 104.800 C 200.813 104.800,198.529 105.868,198.184 106.426 C 198.056 106.633,197.197 107.146,196.276 107.567 C 195.354 107.987,194.164 108.797,193.630 109.366 C 193.097 109.935,192.461 110.400,192.217 110.400 C 191.660 110.400,187.600 114.478,187.600 115.038 C 187.600 115.265,187.060 115.968,186.400 116.600 C 185.740 117.232,185.200 117.964,185.200 118.226 C 185.200 118.488,184.932 118.924,184.605 119.196 C 184.277 119.468,183.277 121.245,182.381 123.145 C 181.485 125.045,180.583 126.913,180.376 127.295 C 180.169 127.677,180.000 128.341,180.000 128.771 C 180.000 129.201,179.820 129.664,179.600 129.800 C 179.380 129.936,179.200 130.667,179.200 131.424 C 179.200 132.181,179.020 132.800,178.800 132.800 C 178.580 132.800,178.400 133.599,178.400 134.576 C 178.400 135.553,178.220 136.464,178.000 136.600 C 177.780 136.736,177.600 137.971,177.600 139.344 C 177.600 140.717,177.422 142.018,177.205 142.235 C 176.960 142.480,176.769 148.964,176.705 159.215 L 176.600 175.800 164.681 175.906 L 152.761 176.012 151.381 177.393 L 150.000 178.773 150.000 194.605 L 150.000 210.436 150.982 211.418 C 151.522 211.958,152.242 212.400,152.582 212.400 C 152.922 212.400,153.200 212.577,153.200 212.794 C 153.200 213.041,157.558 213.227,164.900 213.294 L 176.600 213.400 176.702 255.376 L 176.804 297.352 177.672 298.276 C 178.149 298.784,178.947 299.200,179.446 299.200 C 179.945 299.200,180.464 299.380,180.600 299.600 C 180.757 299.854,186.004 300.000,195.024 300.000 C 204.208 300.000,209.200 299.859,209.200 299.600 C 209.200 299.380,209.740 299.200,210.400 299.200 C 211.333 299.200,211.600 299.022,211.600 298.400 C 211.600 297.960,211.780 297.600,212.000 297.600 C 212.264 297.600,212.400 283.267,212.400 255.400 L 212.400 213.200 228.000 213.200 C 237.356 213.200,243.600 213.051,243.600 212.828 C 243.600 212.623,243.991 212.398,244.470 212.328 C 245.647 212.155,246.735 210.166,246.771 208.124 C 246.787 207.202,246.980 206.336,247.200 206.200 C 247.420 206.064,247.600 204.624,247.600 203.000 C 247.600 201.376,247.780 199.936,248.000 199.800 C 248.220 199.664,248.400 198.033,248.400 196.176 C 248.400 194.192,248.565 192.800,248.800 192.800 C 249.031 192.800,249.200 191.541,249.200 189.824 C 249.200 188.187,249.380 186.736,249.600 186.600 C 250.761 185.883,250.046 178.601,248.685 177.283 L 247.371 176.009 229.985 175.904 L 212.600 175.800 212.495 162.100 C 212.425 153.046,212.527 148.400,212.795 148.400 C 213.023 148.400,213.200 147.354,213.200 146.000 C 213.200 144.667,213.378 143.600,213.600 143.600 C 213.820 143.600,214.000 143.268,214.000 142.861 C 214.000 141.929,215.031 139.839,215.808 139.193 C 216.134 138.923,216.400 138.454,216.400 138.151 C 216.400 137.848,216.648 137.600,216.951 137.600 C 217.254 137.600,217.719 137.339,217.984 137.019 C 218.848 135.979,222.521 134.400,224.079 134.400 C 224.915 134.400,225.600 134.220,225.600 134.000 C 225.600 133.744,229.267 133.600,235.800 133.600 C 242.333 133.600,246.000 133.456,246.000 133.200 C 246.000 132.980,246.345 132.800,246.766 132.800 C 247.233 132.800,247.741 132.331,248.064 131.600 C 248.356 130.940,248.731 130.400,248.898 130.400 C 249.064 130.400,249.200 124.407,249.200 117.081 L 249.200 103.762 247.683 102.281 C 246.849 101.467,245.769 100.800,245.283 100.800 C 244.797 100.800,244.400 100.620,244.400 100.400 C 244.400 100.143,240.475 100.000,233.424 100.000 C 226.537 100.000,222.355 100.149,222.200 100.400 " stroke="none" fill="#fcfcfc" fill-rule="evenodd"></path><path id="path1" d="M178.700 0.275 C 176.555 0.360,174.800 0.602,174.800 0.814 C 174.800 1.027,173.540 1.200,172.000 1.200 C 170.400 1.200,169.200 1.371,169.200 1.600 C 169.200 1.822,168.133 2.000,166.800 2.000 C 165.467 2.000,164.400 2.178,164.400 2.400 C 164.400 2.620,163.410 2.800,162.200 2.800 C 160.990 2.800,160.000 2.980,160.000 3.200 C 160.000 3.420,159.280 3.600,158.400 3.600 C 157.520 3.600,156.800 3.780,156.800 4.000 C 156.800 4.220,155.900 4.400,154.800 4.400 C 153.700 4.400,152.800 4.580,152.800 4.800 C 152.800 5.020,152.080 5.200,151.200 5.200 C 150.320 5.200,149.600 5.380,149.600 5.600 C 149.600 5.820,148.880 6.000,148.000 6.000 C 147.120 6.000,146.400 6.180,146.400 6.400 C 146.400 6.620,145.860 6.800,145.200 6.800 C 144.540 6.800,144.000 6.980,144.000 7.200 C 144.000 7.420,143.370 7.600,142.600 7.600 C 141.830 7.600,141.200 7.780,141.200 8.000 C 141.200 8.220,140.660 8.400,140.000 8.400 C 139.340 8.400,138.800 8.580,138.800 8.800 C 138.800 9.020,138.260 9.200,137.600 9.200 C 136.940 9.200,136.400 9.357,136.400 9.548 C 136.400 9.740,135.493 10.017,134.384 10.164 C 133.275 10.311,131.739 10.785,130.972 11.216 C 130.204 11.647,129.232 12.000,128.811 12.000 C 128.391 12.000,127.936 12.180,127.800 12.400 C 127.664 12.620,127.113 12.800,126.576 12.800 C 126.039 12.800,125.600 12.980,125.600 13.200 C 125.600 13.420,125.240 13.600,124.800 13.600 C 124.360 13.600,124.000 13.780,124.000 14.000 C 124.000 14.220,123.460 14.400,122.800 14.400 C 122.140 14.400,121.600 14.580,121.600 14.800 C 121.600 15.020,121.240 15.200,120.800 15.200 C 120.360 15.200,120.000 15.380,120.000 15.600 C 120.000 15.820,119.640 16.000,119.200 16.000 C 118.760 16.000,118.400 16.180,118.400 16.400 C 118.400 16.620,118.040 16.800,117.600 16.800 C 117.160 16.800,116.800 16.980,116.800 17.200 C 116.800 17.420,116.260 17.600,115.600 17.600 C 114.940 17.600,114.400 17.780,114.400 18.000 C 114.400 18.220,114.040 18.400,113.600 18.400 C 113.160 18.400,112.800 18.580,112.800 18.800 C 112.800 19.020,112.440 19.200,112.000 19.200 C 111.560 19.200,111.200 19.380,111.200 19.600 C 111.200 19.820,110.930 20.000,110.600 20.000 C 110.270 20.000,110.000 20.180,110.000 20.400 C 110.000 20.620,109.640 20.800,109.200 20.800 C 108.760 20.800,108.400 20.980,108.400 21.200 C 108.400 21.420,108.040 21.600,107.600 21.600 C 107.160 21.600,106.800 21.780,106.800 22.000 C 106.800 22.220,106.480 22.400,106.088 22.400 C 105.697 22.400,105.117 22.760,104.800 23.200 C 104.483 23.640,103.903 24.000,103.512 24.000 C 103.120 24.000,102.800 24.180,102.800 24.400 C 102.800 24.620,102.440 24.800,102.000 24.800 C 101.560 24.800,101.200 24.980,101.200 25.200 C 101.200 25.420,100.840 25.600,100.400 25.600 C 99.960 25.600,99.600 25.780,99.600 26.000 C 99.600 26.220,99.240 26.400,98.800 26.400 C 98.360 26.400,98.000 26.546,98.000 26.725 C 98.000 26.904,97.094 27.446,95.986 27.930 C 94.878 28.413,93.869 29.077,93.743 29.405 C 93.617 29.732,93.213 30.000,92.846 30.000 C 92.478 30.000,91.917 30.360,91.600 30.800 C 91.283 31.240,90.743 31.600,90.400 31.600 C 90.057 31.600,89.517 31.960,89.200 32.400 C 88.883 32.840,88.343 33.200,88.000 33.200 C 87.657 33.200,87.117 33.560,86.800 34.000 C 86.483 34.440,85.943 34.800,85.600 34.800 C 85.257 34.800,84.717 35.160,84.400 35.600 C 84.083 36.040,83.575 36.400,83.272 36.400 C 82.969 36.400,82.217 36.940,81.600 37.600 C 80.983 38.260,80.263 38.800,80.000 38.800 C 79.737 38.800,79.017 39.340,78.400 40.000 C 77.783 40.660,77.165 41.200,77.026 41.200 C 76.887 41.200,76.143 41.830,75.373 42.600 C 74.603 43.370,73.754 44.002,73.487 44.004 C 73.219 44.006,72.057 44.906,70.905 46.004 C 69.752 47.102,68.582 48.009,68.305 48.019 C 68.027 48.029,66.090 49.853,64.000 52.072 C 61.910 54.291,58.878 57.387,57.262 58.953 C 49.365 66.607,48.000 67.997,48.000 68.388 C 48.000 68.620,47.102 69.752,46.004 70.905 C 44.906 72.057,44.006 73.219,44.004 73.487 C 44.002 73.754,43.370 74.603,42.600 75.373 C 41.830 76.143,41.200 76.887,41.200 77.026 C 41.200 77.165,40.660 77.783,40.000 78.400 C 39.340 79.017,38.800 79.737,38.800 80.000 C 38.800 80.263,38.260 80.983,37.600 81.600 C 36.940 82.217,36.400 82.969,36.400 83.272 C 36.400 83.575,36.040 84.083,35.600 84.400 C 35.160 84.717,34.800 85.257,34.800 85.600 C 34.800 85.943,34.440 86.483,34.000 86.800 C 33.560 87.117,33.200 87.657,33.200 88.000 C 33.200 88.343,32.840 88.883,32.400 89.200 C 31.960 89.517,31.600 90.057,31.600 90.400 C 31.600 90.743,31.240 91.283,30.800 91.600 C 30.360 91.917,30.000 92.478,30.000 92.846 C 30.000 93.213,29.732 93.617,29.405 93.743 C 29.077 93.869,28.413 94.878,27.930 95.986 C 27.446 97.094,26.904 98.000,26.725 98.000 C 26.546 98.000,26.400 98.360,26.400 98.800 C 26.400 99.240,26.220 99.600,26.000 99.600 C 25.780 99.600,25.600 99.960,25.600 100.400 C 25.600 100.840,25.420 101.200,25.200 101.200 C 24.980 101.200,24.800 101.560,24.800 102.000 C 24.800 102.440,24.620 102.800,24.400 102.800 C 24.180 102.800,24.000 103.120,24.000 103.512 C 24.000 103.903,23.640 104.483,23.200 104.800 C 22.760 105.117,22.400 105.697,22.400 106.088 C 22.400 106.480,22.220 106.800,22.000 106.800 C 21.780 106.800,21.600 107.160,21.600 107.600 C 21.600 108.040,21.420 108.400,21.200 108.400 C 20.980 108.400,20.800 108.760,20.800 109.200 C 20.800 109.640,20.620 110.000,20.400 110.000 C 20.180 110.000,20.000 110.270,20.000 110.600 C 20.000 110.930,19.820 111.200,19.600 111.200 C 19.380 111.200,19.200 111.560,19.200 112.000 C 19.200 112.440,19.020 112.800,18.800 112.800 C 18.580 112.800,18.400 113.160,18.400 113.600 C 18.400 114.040,18.220 114.400,18.000 114.400 C 17.780 114.400,17.600 114.940,17.600 115.600 C 17.600 116.260,17.420 116.800,17.200 116.800 C 16.980 116.800,16.800 117.160,16.800 117.600 C 16.800 118.040,16.620 118.400,16.400 118.400 C 16.180 118.400,16.000 118.760,16.000 119.200 C 16.000 119.640,15.820 120.000,15.600 120.000 C 15.380 120.000,15.200 120.360,15.200 120.800 C 15.200 121.240,15.020 121.600,14.800 121.600 C 14.580 121.600,14.400 122.140,14.400 122.800 C 14.400 123.460,14.220 124.000,14.000 124.000 C 13.780 124.000,13.600 124.360,13.600 124.800 C 13.600 125.240,13.420 125.600,13.200 125.600 C 12.980 125.600,12.800 126.039,12.800 126.576 C 12.800 127.113,12.620 127.664,12.400 127.800 C 12.180 127.936,12.000 128.391,12.000 128.811 C 12.000 129.232,11.647 130.204,11.216 130.972 C 10.785 131.739,10.311 133.275,10.164 134.384 C 10.017 135.493,9.740 136.400,9.548 136.400 C 9.357 136.400,9.200 136.940,9.200 137.600 C 9.200 138.260,9.020 138.800,8.800 138.800 C 8.580 138.800,8.400 139.340,8.400 140.000 C 8.400 140.660,8.220 141.200,8.000 141.200 C 7.780 141.200,7.600 141.830,7.600 142.600 C 7.600 143.370,7.420 144.000,7.200 144.000 C 6.980 144.000,6.800 144.540,6.800 145.200 C 6.800 145.860,6.620 146.400,6.400 146.400 C 6.180 146.400,6.000 147.120,6.000 148.000 C 6.000 148.880,5.820 149.600,5.600 149.600 C 5.380 149.600,5.200 150.320,5.200 151.200 C 5.200 152.080,5.020 152.800,4.800 152.800 C 4.580 152.800,4.400 153.700,4.400 154.800 C 4.400 155.900,4.220 156.800,4.000 156.800 C 3.780 156.800,3.600 157.520,3.600 158.400 C 3.600 159.280,3.420 160.000,3.200 160.000 C 2.980 160.000,2.800 160.990,2.800 162.200 C 2.800 163.410,2.620 164.400,2.400 164.400 C 2.178 164.400,2.000 165.467,2.000 166.800 C 2.000 168.133,1.822 169.200,1.600 169.200 C 1.372 169.200,1.200 170.389,1.200 171.967 C 1.200 173.824,1.036 174.788,0.700 174.900 C -0.032 175.144,-0.032 224.856,0.700 225.100 C 1.036 225.212,1.200 226.176,1.200 228.033 C 1.200 229.611,1.372 230.800,1.600 230.800 C 1.822 230.800,2.000 231.867,2.000 233.200 C 2.000 234.533,2.178 235.600,2.400 235.600 C 2.622 235.600,2.800 236.667,2.800 238.000 C 2.800 239.333,2.978 240.400,3.200 240.400 C 3.420 240.400,3.600 241.030,3.600 241.800 C 3.600 242.570,3.780 243.200,4.000 243.200 C 4.220 243.200,4.400 244.100,4.400 245.200 C 4.400 246.300,4.580 247.200,4.800 247.200 C 5.020 247.200,5.200 247.920,5.200 248.800 C 5.200 249.680,5.380 250.400,5.600 250.400 C 5.820 250.400,6.000 251.120,6.000 252.000 C 6.000 252.880,6.180 253.600,6.400 253.600 C 6.620 253.600,6.800 254.140,6.800 254.800 C 6.800 255.460,6.980 256.000,7.200 256.000 C 7.420 256.000,7.600 256.630,7.600 257.400 C 7.600 258.170,7.780 258.800,8.000 258.800 C 8.220 258.800,8.400 259.340,8.400 260.000 C 8.400 260.660,8.580 261.200,8.800 261.200 C 9.020 261.200,9.200 261.740,9.200 262.400 C 9.200 263.060,9.362 263.600,9.561 263.600 C 9.759 263.600,10.047 264.680,10.200 266.000 C 10.353 267.320,10.596 268.401,10.739 268.403 C 11.109 268.408,12.000 270.424,12.000 271.256 C 12.000 271.639,12.180 272.064,12.400 272.200 C 12.620 272.336,12.800 272.761,12.800 273.144 C 12.800 274.019,13.699 275.993,14.100 275.997 C 14.265 275.999,14.400 276.360,14.400 276.800 C 14.400 277.240,14.580 277.600,14.800 277.600 C 15.020 277.600,15.200 278.140,15.200 278.800 C 15.200 279.460,15.380 280.000,15.600 280.000 C 15.820 280.000,16.000 280.360,16.000 280.800 C 16.000 281.240,16.180 281.600,16.400 281.600 C 16.620 281.600,16.800 281.960,16.800 282.400 C 16.800 282.840,16.980 283.200,17.200 283.200 C 17.420 283.200,17.600 283.740,17.600 284.400 C 17.600 285.060,17.780 285.600,18.000 285.600 C 18.220 285.600,18.400 285.960,18.400 286.400 C 18.400 286.840,18.580 287.200,18.800 287.200 C 19.020 287.200,19.200 287.560,19.200 288.000 C 19.200 288.440,19.380 288.800,19.600 288.800 C 19.820 288.800,20.000 289.160,20.000 289.600 C 20.000 290.040,20.180 290.400,20.400 290.400 C 20.620 290.400,20.800 290.670,20.800 291.000 C 20.800 291.330,20.980 291.600,21.200 291.600 C 21.420 291.600,21.600 291.960,21.600 292.400 C 21.600 292.840,21.780 293.200,22.000 293.200 C 22.220 293.200,22.400 293.520,22.400 293.912 C 22.400 294.303,22.760 294.883,23.200 295.200 C 23.640 295.517,24.000 296.097,24.000 296.488 C 24.000 296.880,24.180 297.200,24.400 297.200 C 24.620 297.200,24.800 297.560,24.800 298.000 C 24.800 298.440,24.980 298.800,25.200 298.800 C 25.420 298.800,25.600 299.160,25.600 299.600 C 25.600 300.040,25.780 300.400,26.000 300.400 C 26.220 300.400,26.400 300.760,26.400 301.200 C 26.400 301.640,26.546 302.000,26.725 302.000 C 26.904 302.000,27.428 302.864,27.889 303.921 C 28.350 304.978,29.014 306.080,29.364 306.370 C 29.714 306.660,30.000 307.144,30.000 307.446 C 30.000 307.747,30.360 308.218,30.800 308.493 C 31.240 308.768,31.600 309.269,31.600 309.608 C 31.600 309.946,31.960 310.483,32.400 310.800 C 32.840 311.117,33.200 311.657,33.200 312.000 C 33.200 312.343,33.560 312.883,34.000 313.200 C 34.440 313.517,34.800 314.057,34.800 314.400 C 34.800 314.743,35.160 315.283,35.600 315.600 C 36.040 315.917,36.400 316.425,36.400 316.728 C 36.400 317.031,36.940 317.783,37.600 318.400 C 38.260 319.017,38.800 319.737,38.800 320.000 C 38.800 320.263,39.340 320.983,40.000 321.600 C 40.660 322.217,41.200 322.943,41.200 323.214 C 41.200 323.743,42.707 325.200,43.254 325.200 C 43.436 325.200,43.708 325.691,43.858 326.290 C 44.009 326.890,45.002 328.228,46.066 329.264 C 47.130 330.300,48.000 331.349,48.000 331.594 C 48.000 331.840,50.205 334.186,52.900 336.810 C 58.913 342.661,59.082 342.831,63.994 347.900 C 66.179 350.155,68.166 352.000,68.409 352.000 C 68.653 352.000,69.729 352.900,70.800 354.000 C 71.871 355.100,72.946 356.000,73.187 356.000 C 73.429 356.000,74.257 356.630,75.027 357.400 C 75.797 358.170,76.618 358.800,76.853 358.800 C 77.087 358.800,77.783 359.340,78.400 360.000 C 79.017 360.660,79.737 361.200,80.000 361.200 C 80.263 361.200,80.983 361.740,81.600 362.400 C 82.217 363.060,82.969 363.600,83.272 363.600 C 83.575 363.600,84.083 363.960,84.400 364.400 C 84.717 364.840,85.257 365.200,85.600 365.200 C 85.943 365.200,86.483 365.560,86.800 366.000 C 87.117 366.440,87.657 366.800,88.000 366.800 C 88.343 366.800,88.883 367.160,89.200 367.600 C 89.517 368.040,90.057 368.400,90.400 368.400 C 90.743 368.400,91.283 368.760,91.600 369.200 C 91.917 369.640,92.478 370.000,92.846 370.000 C 93.213 370.000,93.615 370.261,93.737 370.581 C 93.860 370.900,94.768 371.530,95.756 371.980 C 96.743 372.430,97.663 372.979,97.800 373.200 C 98.120 373.717,101.365 375.200,102.178 375.200 C 102.520 375.200,102.800 375.380,102.800 375.600 C 102.800 375.820,103.120 376.000,103.512 376.000 C 103.903 376.000,104.483 376.360,104.800 376.800 C 105.117 377.240,105.697 377.600,106.088 377.600 C 106.480 377.600,106.800 377.780,106.800 378.000 C 106.800 378.220,107.160 378.400,107.600 378.400 C 108.040 378.400,108.400 378.580,108.400 378.800 C 108.400 379.020,108.760 379.200,109.200 379.200 C 109.640 379.200,110.000 379.346,110.000 379.525 C 110.000 379.704,110.630 380.098,111.400 380.400 C 112.170 380.702,112.800 381.096,112.800 381.275 C 112.800 381.454,113.160 381.600,113.600 381.600 C 114.040 381.600,114.400 381.780,114.400 382.000 C 114.400 382.220,114.940 382.400,115.600 382.400 C 116.260 382.400,116.800 382.580,116.800 382.800 C 116.800 383.020,117.160 383.200,117.600 383.200 C 118.040 383.200,118.400 383.380,118.400 383.600 C 118.400 383.820,118.760 384.000,119.200 384.000 C 119.640 384.000,120.000 384.180,120.000 384.400 C 120.000 384.620,120.540 384.800,121.200 384.800 C 121.860 384.800,122.400 384.980,122.400 385.200 C 122.400 385.420,122.760 385.600,123.200 385.600 C 123.640 385.600,124.000 385.780,124.000 386.000 C 124.000 386.220,124.360 386.400,124.800 386.400 C 125.240 386.400,125.600 386.580,125.600 386.800 C 125.600 387.020,126.039 387.200,126.576 387.200 C 127.113 387.200,127.664 387.380,127.800 387.600 C 127.936 387.820,128.487 388.000,129.024 388.000 C 129.561 388.000,130.000 388.180,130.000 388.400 C 130.000 388.620,130.349 388.800,130.776 388.800 C 131.203 388.800,131.664 388.980,131.800 389.200 C 131.936 389.420,132.487 389.600,133.024 389.600 C 133.561 389.600,134.000 389.780,134.000 390.000 C 134.000 390.220,134.540 390.400,135.200 390.400 C 135.860 390.400,136.400 390.569,136.400 390.776 C 136.400 390.982,137.660 391.276,139.200 391.427 C 140.740 391.579,142.000 391.860,142.000 392.052 C 142.000 392.243,142.450 392.400,143.000 392.400 C 143.550 392.400,144.000 392.580,144.000 392.800 C 144.000 393.020,144.720 393.200,145.600 393.200 C 146.480 393.200,147.200 393.380,147.200 393.600 C 147.200 393.820,147.740 394.000,148.400 394.000 C 149.060 394.000,149.600 394.180,149.600 394.400 C 149.600 394.620,150.320 394.800,151.200 394.800 C 152.080 394.800,152.800 394.980,152.800 395.200 C 152.800 395.420,153.700 395.600,154.800 395.600 C 155.900 395.600,156.800 395.780,156.800 396.000 C 156.800 396.220,157.520 396.400,158.400 396.400 C 159.280 396.400,160.000 396.580,160.000 396.800 C 160.000 397.020,160.990 397.200,162.200 397.200 C 163.410 397.200,164.400 397.380,164.400 397.600 C 164.400 397.822,165.467 398.000,166.800 398.000 C 168.133 398.000,169.200 398.178,169.200 398.400 C 169.200 398.628,170.389 398.800,171.967 398.800 C 173.824 398.800,174.788 398.964,174.900 399.300 C 175.144 400.032,224.856 400.032,225.100 399.300 C 225.212 398.964,226.176 398.800,228.033 398.800 C 229.611 398.800,230.800 398.628,230.800 398.400 C 230.800 398.178,231.867 398.000,233.200 398.000 C 234.533 398.000,235.600 397.822,235.600 397.600 C 235.600 397.380,236.579 397.200,237.776 397.200 C 238.973 397.200,240.064 397.020,240.200 396.800 C 240.336 396.580,241.067 396.400,241.824 396.400 C 242.581 396.400,243.200 396.220,243.200 396.000 C 243.200 395.780,244.100 395.600,245.200 395.600 C 246.300 395.600,247.200 395.420,247.200 395.200 C 247.200 394.980,247.920 394.800,248.800 394.800 C 249.680 394.800,250.400 394.620,250.400 394.400 C 250.400 394.180,251.120 394.000,252.000 394.000 C 252.880 394.000,253.600 393.820,253.600 393.600 C 253.600 393.380,254.140 393.200,254.800 393.200 C 255.460 393.200,256.000 393.020,256.000 392.800 C 256.000 392.580,256.630 392.400,257.400 392.400 C 258.170 392.400,258.800 392.241,258.800 392.046 C 258.800 391.851,259.787 391.569,260.994 391.418 C 262.200 391.267,263.291 390.977,263.417 390.772 C 263.544 390.567,264.177 390.400,264.824 390.400 C 265.471 390.400,266.000 390.220,266.000 390.000 C 266.000 389.780,266.540 389.600,267.200 389.600 C 267.860 389.600,268.401 389.465,268.403 389.300 C 268.408 388.853,270.426 388.000,271.480 388.000 C 271.986 388.000,272.400 387.820,272.400 387.600 C 272.400 387.380,272.724 387.200,273.120 387.200 C 274.014 387.200,275.993 386.306,275.997 385.900 C 275.999 385.735,276.540 385.600,277.200 385.600 C 277.860 385.600,278.400 385.420,278.400 385.200 C 278.400 384.980,278.760 384.800,279.200 384.800 C 279.640 384.800,280.000 384.620,280.000 384.400 C 280.000 384.180,280.360 384.000,280.800 384.000 C 281.240 384.000,281.600 383.820,281.600 383.600 C 281.600 383.380,281.960 383.200,282.400 383.200 C 282.840 383.200,283.200 383.020,283.200 382.800 C 283.200 382.580,283.740 382.400,284.400 382.400 C 285.060 382.400,285.600 382.220,285.600 382.000 C 285.600 381.780,285.960 381.600,286.400 381.600 C 286.840 381.600,287.200 381.420,287.200 381.200 C 287.200 380.980,287.560 380.800,288.000 380.800 C 288.440 380.800,288.800 380.654,288.800 380.475 C 288.800 380.296,289.430 379.902,290.200 379.600 C 290.970 379.298,291.600 378.904,291.600 378.725 C 291.600 378.546,291.960 378.400,292.400 378.400 C 292.840 378.400,293.200 378.220,293.200 378.000 C 293.200 377.780,293.520 377.600,293.912 377.600 C 294.303 377.600,294.883 377.240,295.200 376.800 C 295.517 376.360,296.097 376.000,296.488 376.000 C 296.880 376.000,297.200 375.836,297.200 375.635 C 297.200 375.434,297.920 375.149,298.800 375.000 C 299.680 374.851,300.400 374.566,300.400 374.365 C 300.400 374.164,300.717 374.000,301.104 374.000 C 301.491 374.000,302.032 373.640,302.307 373.200 C 302.582 372.760,303.165 372.400,303.603 372.400 C 304.042 372.400,304.400 372.220,304.400 372.000 C 304.400 371.780,304.717 371.600,305.104 371.600 C 305.491 371.600,306.032 371.240,306.307 370.800 C 306.582 370.360,307.074 370.000,307.400 370.000 C 307.726 370.000,308.218 369.640,308.493 369.200 C 308.768 368.760,309.269 368.400,309.608 368.400 C 309.946 368.400,310.483 368.040,310.800 367.600 C 311.117 367.160,311.657 366.800,312.000 366.800 C 312.343 366.800,312.883 366.440,313.200 366.000 C 313.517 365.560,314.057 365.200,314.400 365.200 C 314.743 365.200,315.283 364.840,315.600 364.400 C 315.917 363.960,316.425 363.600,316.728 363.600 C 317.031 363.600,317.783 363.060,318.400 362.400 C 319.017 361.740,319.737 361.200,320.000 361.200 C 320.263 361.200,320.983 360.660,321.600 360.000 C 322.217 359.340,322.986 358.800,323.310 358.800 C 323.633 358.800,324.436 358.170,325.094 357.400 C 325.752 356.630,326.506 356.000,326.771 356.000 C 327.035 356.000,328.129 355.100,329.200 354.000 C 330.271 352.900,331.345 352.000,331.586 352.000 C 331.827 352.000,334.185 349.795,336.826 347.100 C 342.585 341.223,341.223 342.585,347.100 336.826 C 349.795 334.185,352.000 331.827,352.000 331.586 C 352.000 331.345,352.900 330.271,354.000 329.200 C 355.100 328.129,356.000 327.035,356.000 326.771 C 356.000 326.506,356.630 325.752,357.400 325.094 C 358.170 324.436,358.800 323.633,358.800 323.310 C 358.800 322.986,359.340 322.217,360.000 321.600 C 360.660 320.983,361.200 320.263,361.200 320.000 C 361.200 319.737,361.740 319.017,362.400 318.400 C 363.060 317.783,363.600 317.031,363.600 316.728 C 363.600 316.425,363.960 315.917,364.400 315.600 C 364.840 315.283,365.200 314.743,365.200 314.400 C 365.200 314.057,365.560 313.517,366.000 313.200 C 366.440 312.883,366.800 312.343,366.800 312.000 C 366.800 311.657,367.160 311.117,367.600 310.800 C 368.040 310.483,368.400 309.946,368.400 309.608 C 368.400 309.269,368.760 308.768,369.200 308.493 C 369.640 308.218,370.000 307.764,370.000 307.485 C 370.000 307.205,370.360 306.717,370.800 306.400 C 371.240 306.083,371.600 305.503,371.600 305.112 C 371.600 304.720,371.780 304.400,372.000 304.400 C 372.220 304.400,372.400 304.080,372.400 303.688 C 372.400 303.297,372.760 302.717,373.200 302.400 C 373.640 302.083,374.000 301.503,374.000 301.112 C 374.000 300.720,374.164 300.400,374.365 300.400 C 374.566 300.400,374.851 299.680,375.000 298.800 C 375.149 297.920,375.434 297.200,375.635 297.200 C 375.836 297.200,376.000 296.880,376.000 296.488 C 376.000 296.097,376.360 295.517,376.800 295.200 C 377.240 294.883,377.600 294.303,377.600 293.912 C 377.600 293.520,377.780 293.200,378.000 293.200 C 378.220 293.200,378.400 292.840,378.400 292.400 C 378.400 291.960,378.580 291.600,378.800 291.600 C 379.020 291.600,379.200 291.330,379.200 291.000 C 379.200 290.670,379.380 290.400,379.600 290.400 C 379.820 290.400,380.000 290.040,380.000 289.600 C 380.000 289.160,380.180 288.800,380.400 288.800 C 380.620 288.800,380.800 288.440,380.800 288.000 C 380.800 287.560,380.980 287.200,381.200 287.200 C 381.420 287.200,381.600 286.840,381.600 286.400 C 381.600 285.960,381.780 285.600,382.000 285.600 C 382.220 285.600,382.400 285.060,382.400 284.400 C 382.400 283.740,382.580 283.200,382.800 283.200 C 383.020 283.200,383.200 282.840,383.200 282.400 C 383.200 281.960,383.380 281.600,383.600 281.600 C 383.820 281.600,384.000 281.240,384.000 280.800 C 384.000 280.360,384.180 280.000,384.400 280.000 C 384.620 280.000,384.800 279.640,384.800 279.200 C 384.800 278.760,384.980 278.400,385.200 278.400 C 385.420 278.400,385.600 277.860,385.600 277.200 C 385.600 276.540,385.780 276.000,386.000 276.000 C 386.220 276.000,386.400 275.730,386.400 275.400 C 386.400 275.070,386.580 274.800,386.800 274.800 C 387.020 274.800,387.200 274.260,387.200 273.600 C 387.200 272.940,387.380 272.400,387.600 272.400 C 387.820 272.400,388.000 271.860,388.000 271.200 C 388.000 270.540,388.180 270.000,388.400 270.000 C 388.620 270.000,388.800 269.640,388.800 269.200 C 388.800 268.760,388.980 268.400,389.200 268.400 C 389.420 268.400,389.600 267.860,389.600 267.200 C 389.600 266.540,389.780 266.000,390.000 266.000 C 390.220 266.000,390.400 265.471,390.400 264.824 C 390.400 264.177,390.567 263.544,390.772 263.417 C 390.977 263.291,391.267 262.200,391.418 260.994 C 391.569 259.787,391.851 258.800,392.046 258.800 C 392.241 258.800,392.400 258.170,392.400 257.400 C 392.400 256.630,392.580 256.000,392.800 256.000 C 393.020 256.000,393.200 255.460,393.200 254.800 C 393.200 254.140,393.380 253.600,393.600 253.600 C 393.820 253.600,394.000 252.880,394.000 252.000 C 394.000 251.120,394.180 250.400,394.400 250.400 C 394.620 250.400,394.800 249.680,394.800 248.800 C 394.800 247.920,394.980 247.200,395.200 247.200 C 395.420 247.200,395.600 246.300,395.600 245.200 C 395.600 244.100,395.780 243.200,396.000 243.200 C 396.220 243.200,396.400 242.581,396.400 241.824 C 396.400 241.067,396.580 240.336,396.800 240.200 C 397.020 240.064,397.200 238.973,397.200 237.776 C 397.200 236.579,397.380 235.600,397.600 235.600 C 397.822 235.600,398.000 234.533,398.000 233.200 C 398.000 231.867,398.178 230.800,398.400 230.800 C 398.628 230.800,398.800 229.611,398.800 228.033 C 398.800 226.176,398.964 225.212,399.300 225.100 C 400.032 224.856,400.032 175.144,399.300 174.900 C 398.956 174.785,398.800 173.744,398.800 171.567 C 398.800 169.722,398.633 168.400,398.400 168.400 C 398.178 168.400,398.000 167.333,398.000 166.000 C 398.000 164.667,397.822 163.600,397.600 163.600 C 397.380 163.600,397.200 162.790,397.200 161.800 C 397.200 160.810,397.020 160.000,396.800 160.000 C 396.580 160.000,396.400 159.100,396.400 158.000 C 396.400 156.900,396.220 156.000,396.000 156.000 C 395.780 156.000,395.600 155.280,395.600 154.400 C 395.600 153.520,395.420 152.800,395.200 152.800 C 394.980 152.800,394.800 152.080,394.800 151.200 C 394.800 150.320,394.620 149.600,394.400 149.600 C 394.180 149.600,394.000 148.880,394.000 148.000 C 394.000 147.120,393.820 146.400,393.600 146.400 C 393.380 146.400,393.200 145.860,393.200 145.200 C 393.200 144.540,393.020 144.000,392.800 144.000 C 392.580 144.000,392.400 143.370,392.400 142.600 C 392.400 141.830,392.238 141.200,392.039 141.200 C 391.841 141.200,391.553 140.120,391.400 138.800 C 391.247 137.480,390.959 136.400,390.761 136.400 C 390.562 136.400,390.400 135.860,390.400 135.200 C 390.400 134.540,390.220 134.000,390.000 134.000 C 389.780 134.000,389.600 133.561,389.600 133.024 C 389.600 132.487,389.420 131.936,389.200 131.800 C 388.980 131.664,388.800 131.023,388.800 130.376 C 388.800 129.729,388.665 129.199,388.500 129.197 C 388.094 129.193,387.200 127.214,387.200 126.320 C 387.200 125.924,387.020 125.600,386.800 125.600 C 386.580 125.600,386.400 125.240,386.400 124.800 C 386.400 124.360,386.220 124.000,386.000 124.000 C 385.780 124.000,385.600 123.460,385.600 122.800 C 385.600 122.140,385.420 121.600,385.200 121.600 C 384.980 121.600,384.800 121.240,384.800 120.800 C 384.800 120.360,384.620 120.000,384.400 120.000 C 384.180 120.000,384.000 119.640,384.000 119.200 C 384.000 118.760,383.820 118.400,383.600 118.400 C 383.380 118.400,383.200 118.040,383.200 117.600 C 383.200 117.160,383.020 116.800,382.800 116.800 C 382.580 116.800,382.400 116.260,382.400 115.600 C 382.400 114.940,382.220 114.400,382.000 114.400 C 381.780 114.400,381.600 114.040,381.600 113.600 C 381.600 113.160,381.454 112.800,381.275 112.800 C 381.096 112.800,380.702 112.170,380.400 111.400 C 380.098 110.630,379.704 110.000,379.525 110.000 C 379.346 110.000,379.200 109.640,379.200 109.200 C 379.200 108.760,379.020 108.400,378.800 108.400 C 378.580 108.400,378.400 108.040,378.400 107.600 C 378.400 107.160,378.220 106.800,378.000 106.800 C 377.780 106.800,377.600 106.440,377.600 106.000 C 377.600 105.560,377.420 105.200,377.200 105.200 C 376.980 105.200,376.800 104.880,376.800 104.488 C 376.800 104.097,376.440 103.517,376.000 103.200 C 375.560 102.883,375.200 102.383,375.200 102.090 C 375.200 101.345,373.688 98.102,373.200 97.800 C 372.979 97.663,372.430 96.743,371.980 95.756 C 371.530 94.768,370.900 93.860,370.581 93.737 C 370.261 93.615,370.000 93.213,370.000 92.846 C 370.000 92.478,369.640 91.917,369.200 91.600 C 368.760 91.283,368.400 90.743,368.400 90.400 C 368.400 90.057,368.040 89.517,367.600 89.200 C 367.160 88.883,366.800 88.343,366.800 88.000 C 366.800 87.657,366.440 87.117,366.000 86.800 C 365.560 86.483,365.200 85.943,365.200 85.600 C 365.200 85.257,364.840 84.717,364.400 84.400 C 363.960 84.083,363.600 83.575,363.600 83.272 C 363.600 82.969,363.060 82.217,362.400 81.600 C 361.740 80.983,361.200 80.263,361.200 80.000 C 361.200 79.737,360.660 79.017,360.000 78.400 C 359.340 77.783,358.800 77.087,358.800 76.853 C 358.800 76.618,358.170 75.797,357.400 75.027 C 356.630 74.257,356.000 73.429,356.000 73.187 C 356.000 72.946,355.100 71.871,354.000 70.800 C 352.900 69.729,352.000 68.653,352.000 68.409 C 352.000 68.166,350.155 66.179,347.900 63.994 C 342.831 59.082,342.661 58.913,336.810 52.900 C 334.186 50.205,331.840 48.000,331.594 48.000 C 331.349 48.000,330.300 47.130,329.264 46.066 C 328.228 45.002,326.890 44.009,326.290 43.858 C 325.691 43.708,325.200 43.436,325.200 43.254 C 325.200 42.707,323.743 41.200,323.214 41.200 C 322.943 41.200,322.217 40.660,321.600 40.000 C 320.983 39.340,320.263 38.800,320.000 38.800 C 319.737 38.800,319.017 38.260,318.400 37.600 C 317.783 36.940,317.031 36.400,316.728 36.400 C 316.425 36.400,315.917 36.040,315.600 35.600 C 315.283 35.160,314.743 34.800,314.400 34.800 C 314.057 34.800,313.517 34.440,313.200 34.000 C 312.883 33.560,312.343 33.200,312.000 33.200 C 311.657 33.200,311.117 32.840,310.800 32.400 C 310.483 31.960,309.946 31.600,309.608 31.600 C 309.269 31.600,308.768 31.240,308.493 30.800 C 308.218 30.360,307.747 30.000,307.446 30.000 C 307.144 30.000,306.660 29.714,306.370 29.364 C 306.080 29.014,304.978 28.350,303.921 27.889 C 302.864 27.428,302.000 26.904,302.000 26.725 C 302.000 26.546,301.640 26.400,301.200 26.400 C 300.760 26.400,300.400 26.220,300.400 26.000 C 300.400 25.780,300.040 25.600,299.600 25.600 C 299.160 25.600,298.800 25.420,298.800 25.200 C 298.800 24.980,298.480 24.800,298.088 24.800 C 297.697 24.800,297.117 24.440,296.800 24.000 C 296.483 23.560,295.903 23.200,295.512 23.200 C 295.120 23.200,294.800 23.020,294.800 22.800 C 294.800 22.580,294.440 22.400,294.000 22.400 C 293.560 22.400,293.200 22.220,293.200 22.000 C 293.200 21.780,292.840 21.600,292.400 21.600 C 291.960 21.600,291.600 21.420,291.600 21.200 C 291.600 20.980,291.330 20.800,291.000 20.800 C 290.670 20.800,290.400 20.620,290.400 20.400 C 290.400 20.180,290.040 20.000,289.600 20.000 C 289.160 20.000,288.800 19.820,288.800 19.600 C 288.800 19.380,288.440 19.200,288.000 19.200 C 287.560 19.200,287.200 19.020,287.200 18.800 C 287.200 18.580,286.840 18.400,286.400 18.400 C 285.960 18.400,285.600 18.220,285.600 18.000 C 285.600 17.780,285.240 17.600,284.800 17.600 C 284.360 17.600,284.000 17.420,284.000 17.200 C 284.000 16.980,283.460 16.800,282.800 16.800 C 282.140 16.800,281.600 16.620,281.600 16.400 C 281.600 16.180,281.240 16.000,280.800 16.000 C 280.360 16.000,280.000 15.820,280.000 15.600 C 280.000 15.380,279.640 15.200,279.200 15.200 C 278.760 15.200,278.400 15.020,278.400 14.800 C 278.400 14.580,277.860 14.400,277.200 14.400 C 276.540 14.400,275.999 14.265,275.997 14.100 C 275.993 13.744,274.059 12.800,273.332 12.800 C 273.053 12.800,272.183 12.440,271.400 12.000 C 270.617 11.560,269.621 11.200,269.188 11.200 C 268.755 11.200,268.400 11.038,268.400 10.839 C 268.400 10.641,267.320 10.353,266.000 10.200 C 264.680 10.047,263.600 9.759,263.600 9.561 C 263.600 9.362,263.060 9.200,262.400 9.200 C 261.740 9.200,261.200 9.020,261.200 8.800 C 261.200 8.580,260.660 8.400,260.000 8.400 C 259.340 8.400,258.800 8.220,258.800 8.000 C 258.800 7.780,258.170 7.600,257.400 7.600 C 256.630 7.600,256.000 7.420,256.000 7.200 C 256.000 6.980,255.460 6.800,254.800 6.800 C 254.140 6.800,253.600 6.620,253.600 6.400 C 253.600 6.180,252.880 6.000,252.000 6.000 C 251.120 6.000,250.400 5.820,250.400 5.600 C 250.400 5.380,249.680 5.200,248.800 5.200 C 247.920 5.200,247.200 5.020,247.200 4.800 C 247.200 4.580,246.480 4.400,245.600 4.400 C 244.720 4.400,244.000 4.220,244.000 4.000 C 244.000 3.780,243.190 3.600,242.200 3.600 C 241.210 3.600,240.400 3.420,240.400 3.200 C 240.400 2.980,239.500 2.800,238.400 2.800 C 237.300 2.800,236.400 2.620,236.400 2.400 C 236.400 2.178,235.333 2.000,234.000 2.000 C 232.667 2.000,231.600 1.822,231.600 1.600 C 231.600 1.367,230.278 1.200,228.433 1.200 C 226.288 1.200,225.214 1.042,225.103 0.709 C 224.941 0.224,188.617 -0.116,178.700 0.275 M244.600 100.000 C 244.736 100.220,245.234 100.400,245.707 100.400 C 246.179 100.400,247.249 101.067,248.083 101.881 L 249.600 103.362 249.571 116.781 C 249.531 135.185,250.529 133.928,235.924 133.971 C 229.803 133.989,225.953 134.152,225.800 134.400 C 225.664 134.620,224.879 134.800,224.055 134.800 C 222.526 134.800,218.400 136.577,218.400 137.236 C 218.400 137.436,218.040 137.600,217.600 137.600 C 217.100 137.600,216.800 137.867,216.800 138.312 C 216.800 138.703,216.440 139.283,216.000 139.600 C 215.560 139.917,215.200 140.497,215.200 140.888 C 215.200 141.280,215.020 141.600,214.800 141.600 C 214.580 141.600,214.400 142.039,214.400 142.576 C 214.400 143.113,214.220 143.664,214.000 143.800 C 213.780 143.936,213.600 145.016,213.600 146.200 C 213.600 147.384,213.420 148.464,213.200 148.600 C 212.946 148.757,212.800 153.737,212.800 162.224 L 212.800 175.600 230.201 175.600 L 247.602 175.600 249.001 177.083 L 250.400 178.567 250.400 182.683 C 250.400 185.161,250.241 186.800,250.000 186.800 C 249.769 186.800,249.600 188.059,249.600 189.776 C 249.600 191.413,249.420 192.864,249.200 193.000 C 248.980 193.136,248.800 194.756,248.800 196.600 C 248.800 198.444,248.620 200.064,248.400 200.200 C 248.180 200.336,248.000 201.787,248.000 203.424 C 248.000 205.141,247.831 206.400,247.600 206.400 C 247.380 206.400,247.200 207.300,247.200 208.400 C 247.200 209.500,247.063 210.400,246.895 210.400 C 246.727 210.400,246.412 210.794,246.195 211.276 C 245.204 213.474,244.694 213.539,228.100 213.571 L 212.800 213.600 212.800 255.339 C 212.800 300.960,212.868 299.600,210.594 299.600 C 210.073 299.600,209.536 299.780,209.400 300.000 C 209.243 300.254,204.004 300.400,195.000 300.400 C 185.996 300.400,180.757 300.254,180.600 300.000 C 180.464 299.780,179.905 299.600,179.358 299.600 C 178.811 299.600,177.922 299.158,177.382 298.618 L 176.400 297.636 176.400 255.618 L 176.400 213.600 164.995 213.600 C 152.941 213.600,152.926 213.598,150.700 211.625 L 149.600 210.650 149.600 194.642 L 149.600 178.634 151.081 177.117 L 152.562 175.600 164.481 175.600 L 176.400 175.600 176.400 158.800 C 176.400 147.867,176.540 142.000,176.800 142.000 C 177.029 142.000,177.200 140.800,177.200 139.200 C 177.200 137.600,177.371 136.400,177.600 136.400 C 177.820 136.400,178.000 135.601,178.000 134.624 C 178.000 133.647,178.180 132.736,178.400 132.600 C 178.620 132.464,178.800 131.744,178.800 131.000 C 178.800 130.256,178.980 129.536,179.200 129.400 C 179.420 129.264,179.600 128.713,179.600 128.176 C 179.600 127.639,179.780 127.200,180.000 127.200 C 180.220 127.200,180.400 126.840,180.400 126.400 C 180.400 125.960,180.580 125.600,180.800 125.600 C 181.020 125.600,181.200 125.319,181.200 124.975 C 181.200 124.119,183.527 119.359,184.230 118.775 C 184.544 118.515,184.800 118.074,184.800 117.796 C 184.800 117.518,185.338 116.865,185.996 116.345 C 186.654 115.825,187.194 115.171,187.196 114.891 C 187.201 114.262,191.414 110.000,192.031 110.000 C 192.277 110.000,192.983 109.460,193.600 108.800 C 194.217 108.140,195.009 107.600,195.360 107.600 C 195.712 107.600,196.000 107.420,196.000 107.200 C 196.000 106.980,196.320 106.800,196.712 106.800 C 197.103 106.800,197.683 106.440,198.000 106.000 C 198.317 105.560,198.897 105.200,199.288 105.200 C 199.680 105.200,200.000 105.020,200.000 104.800 C 200.000 104.580,200.355 104.400,200.788 104.400 C 201.221 104.400,202.217 104.040,203.000 103.600 C 203.783 103.160,204.768 102.800,205.189 102.800 C 205.609 102.800,206.064 102.620,206.200 102.400 C 206.336 102.180,207.056 102.000,207.800 102.000 C 208.544 102.000,209.264 101.820,209.400 101.600 C 209.536 101.380,210.256 101.200,211.000 101.200 C 211.744 101.200,212.464 101.020,212.600 100.800 C 212.739 100.574,214.711 100.397,217.124 100.394 C 219.476 100.391,221.670 100.213,222.000 100.000 C 222.819 99.470,244.273 99.470,244.600 100.000 " stroke="none" fill="#04acec" fill-rule="evenodd"></path><path id="path2" d="" stroke="none" fill="#100d4f4" fill-rule="evenodd"></path><path id="path3" d="M233.300 99.900 C 240.238 99.970,244.400 100.160,244.400 100.406 C 244.400 100.623,244.856 100.800,245.413 100.800 C 246.036 100.800,246.961 101.334,247.813 102.187 L 249.200 103.573 249.200 116.987 C 249.200 125.662,249.059 130.400,248.800 130.400 C 248.580 130.400,248.400 130.683,248.400 131.029 C 248.400 131.837,247.437 132.800,246.629 132.800 C 246.283 132.800,246.000 132.980,246.000 133.200 C 246.000 133.456,242.333 133.600,235.800 133.600 C 229.267 133.600,225.600 133.744,225.600 134.000 C 225.600 134.220,224.915 134.400,224.079 134.400 C 223.242 134.400,221.637 134.859,220.511 135.419 C 218.427 136.458,217.086 137.600,217.951 137.600 C 218.198 137.600,218.400 137.436,218.400 137.236 C 218.400 136.577,222.526 134.800,224.055 134.800 C 224.879 134.800,225.664 134.620,225.800 134.400 C 225.953 134.152,229.803 133.989,235.924 133.971 C 250.529 133.928,249.531 135.185,249.571 116.781 L 249.600 103.362 248.083 101.881 C 247.249 101.067,246.179 100.400,245.707 100.400 C 245.234 100.400,244.736 100.220,244.600 100.000 C 244.443 99.745,240.332 99.634,233.276 99.693 L 222.200 99.787 233.300 99.900 M217.406 100.299 C 214.989 100.371,212.838 100.602,212.626 100.814 C 212.413 101.027,211.657 101.200,210.944 101.200 C 210.231 101.200,209.536 101.380,209.400 101.600 C 209.264 101.820,208.544 102.000,207.800 102.000 C 207.056 102.000,206.336 102.180,206.200 102.400 C 206.064 102.620,205.609 102.800,205.189 102.800 C 204.768 102.800,203.811 103.145,203.061 103.566 C 202.311 103.987,201.271 104.412,200.749 104.511 C 200.003 104.653,200.078 104.703,201.100 104.746 C 201.815 104.775,202.400 104.620,202.400 104.400 C 202.400 104.180,202.760 104.000,203.200 104.000 C 203.640 104.000,204.000 103.820,204.000 103.600 C 204.000 103.380,204.540 103.200,205.200 103.200 C 205.860 103.200,206.400 103.020,206.400 102.800 C 206.400 102.580,207.019 102.400,207.776 102.400 C 208.533 102.400,209.264 102.220,209.400 102.000 C 209.536 101.780,210.256 101.600,211.000 101.600 C 211.744 101.600,212.464 101.420,212.600 101.200 C 212.742 100.971,214.804 100.800,217.424 100.800 C 220.208 100.800,222.000 100.643,222.000 100.400 C 222.000 100.180,221.955 100.038,221.900 100.085 C 221.845 100.132,219.822 100.228,217.406 100.299 M198.000 106.000 C 197.683 106.440,197.103 106.800,196.712 106.800 C 196.320 106.800,196.000 106.980,196.000 107.200 C 196.000 107.420,195.712 107.600,195.360 107.600 C 195.009 107.600,194.217 108.140,193.600 108.800 C 192.983 109.460,192.277 110.000,192.031 110.000 C 191.414 110.000,187.201 114.262,187.196 114.891 C 187.194 115.171,186.654 115.825,185.996 116.345 C 185.338 116.865,184.800 117.518,184.800 117.796 C 184.800 118.074,184.528 118.528,184.195 118.804 C 183.677 119.234,182.813 120.825,181.537 123.700 C 181.360 124.099,181.392 124.400,181.613 124.400 C 181.826 124.400,182.000 124.040,182.000 123.600 C 182.000 123.160,182.146 122.800,182.325 122.800 C 182.504 122.800,182.899 122.166,183.203 121.391 C 183.507 120.617,184.081 119.689,184.478 119.329 C 184.875 118.970,185.200 118.468,185.200 118.213 C 185.200 117.958,185.740 117.232,186.400 116.600 C 187.060 115.968,187.600 115.253,187.600 115.011 C 187.600 114.455,191.683 110.400,192.243 110.400 C 192.473 110.400,193.097 109.935,193.630 109.366 C 194.164 108.797,195.354 107.987,196.276 107.567 C 197.197 107.146,198.071 106.609,198.217 106.373 C 198.363 106.137,198.868 105.788,199.341 105.597 C 200.169 105.263,200.171 105.250,199.388 105.225 C 198.942 105.211,198.317 105.560,198.000 106.000 M180.400 126.400 C 180.400 126.840,180.220 127.200,180.000 127.200 C 179.780 127.200,179.600 127.639,179.600 128.176 C 179.600 128.713,179.420 129.264,179.200 129.400 C 178.980 129.536,178.800 130.256,178.800 131.000 C 178.800 131.744,178.620 132.464,178.400 132.600 C 178.180 132.736,178.000 133.647,178.000 134.624 C 178.000 135.601,177.820 136.400,177.600 136.400 C 177.371 136.400,177.200 137.600,177.200 139.200 C 177.200 140.800,177.029 142.000,176.800 142.000 C 176.540 142.000,176.400 147.867,176.400 158.800 L 176.400 175.600 164.481 175.600 L 152.562 175.600 151.081 177.117 L 149.600 178.634 149.600 194.642 L 149.600 210.650 150.700 211.625 C 152.926 213.598,152.941 213.600,164.995 213.600 L 176.400 213.600 176.400 255.618 L 176.400 297.636 177.382 298.618 C 177.922 299.158,178.811 299.600,179.358 299.600 C 179.905 299.600,180.464 299.780,180.600 300.000 C 180.757 300.254,185.996 300.400,195.000 300.400 C 204.004 300.400,209.243 300.254,209.400 300.000 C 209.536 299.780,210.073 299.600,210.594 299.600 C 212.868 299.600,212.800 300.960,212.800 255.339 L 212.800 213.600 228.100 213.571 C 244.694 213.539,245.204 213.474,246.195 211.276 C 246.412 210.794,246.727 210.400,246.895 210.400 C 247.063 210.400,247.200 209.500,247.200 208.400 C 247.200 207.300,247.380 206.400,247.600 206.400 C 247.831 206.400,248.000 205.141,248.000 203.424 C 248.000 201.787,248.180 200.336,248.400 200.200 C 248.620 200.064,248.800 198.444,248.800 196.600 C 248.800 194.756,248.980 193.136,249.200 193.000 C 249.420 192.864,249.600 191.413,249.600 189.776 C 249.600 188.059,249.769 186.800,250.000 186.800 C 250.241 186.800,250.400 185.161,250.400 182.683 L 250.400 178.567 249.001 177.083 L 247.602 175.600 230.201 175.600 L 212.800 175.600 212.800 162.224 C 212.800 153.737,212.946 148.757,213.200 148.600 C 213.420 148.464,213.600 147.384,213.600 146.200 C 213.600 145.016,213.780 143.936,214.000 143.800 C 214.220 143.664,214.400 143.113,214.400 142.576 C 214.400 142.039,214.580 141.600,214.800 141.600 C 215.020 141.600,215.200 141.280,215.200 140.888 C 215.200 140.497,215.560 139.917,216.000 139.600 C 216.440 139.283,216.789 138.658,216.775 138.212 C 216.750 137.429,216.737 137.431,216.403 138.259 C 216.212 138.732,215.875 139.230,215.653 139.367 C 215.081 139.721,214.000 141.990,214.000 142.838 C 214.000 143.231,213.820 143.664,213.600 143.800 C 213.380 143.936,213.200 145.027,213.200 146.224 C 213.200 147.427,213.019 148.400,212.795 148.400 C 212.527 148.400,212.425 153.046,212.495 162.100 L 212.600 175.800 229.985 175.904 L 247.371 176.009 248.685 177.283 C 250.046 178.601,250.761 185.883,249.600 186.600 C 249.380 186.736,249.200 188.176,249.200 189.800 C 249.200 191.424,249.020 192.864,248.800 193.000 C 248.580 193.136,248.400 194.767,248.400 196.624 C 248.400 198.608,248.235 200.000,248.000 200.000 C 247.769 200.000,247.600 201.259,247.600 202.976 C 247.600 204.613,247.420 206.064,247.200 206.200 C 246.980 206.336,246.800 207.129,246.800 207.962 C 246.800 213.027,246.171 213.200,227.739 213.200 L 212.400 213.200 212.400 255.120 C 212.400 299.741,212.423 299.190,210.524 299.197 C 210.042 299.199,209.536 299.380,209.400 299.600 C 209.062 300.147,180.938 300.147,180.600 299.600 C 180.464 299.380,179.945 299.200,179.446 299.200 C 178.947 299.200,178.149 298.784,177.672 298.276 L 176.804 297.352 176.702 255.376 L 176.600 213.400 164.900 213.294 C 157.558 213.227,153.200 213.041,153.200 212.794 C 153.200 212.577,152.922 212.400,152.582 212.400 C 152.242 212.400,151.522 211.958,150.982 211.418 L 150.000 210.436 150.000 194.497 L 150.000 178.557 151.313 177.285 L 152.626 176.012 164.613 175.906 L 176.600 175.800 176.705 159.215 C 176.769 148.964,176.960 142.480,177.205 142.235 C 177.422 142.018,177.600 140.717,177.600 139.344 C 177.600 137.971,177.780 136.736,178.000 136.600 C 178.220 136.464,178.400 135.564,178.400 134.600 C 178.400 133.636,178.580 132.736,178.800 132.600 C 179.020 132.464,179.200 131.821,179.200 131.171 C 179.200 130.521,179.359 129.677,179.553 129.295 C 179.748 128.913,180.144 128.060,180.434 127.400 C 180.725 126.740,181.026 126.065,181.105 125.900 C 181.183 125.735,181.057 125.600,180.824 125.600 C 180.591 125.600,180.400 125.960,180.400 126.400 " stroke="none" fill="#44d4f4" fill-rule="evenodd"></path><path id="path4" d="" stroke="none" fill="#04d8f4" fill-rule="evenodd"></path></g></svg>