<svg id="svg" version="1.1" xmlns="http://www.w3.org/2000/svg" xmlns:xlink="http://www.w3.org/1999/xlink" width="400" height="400" viewBox="0, 0, 400,400"><g id="svgg"><path id="path0" d="M234.000 17.200 C 234.000 17.433,232.667 17.600,230.800 17.600 C 228.933 17.600,227.600 17.767,227.600 18.000 C 227.600 18.220,226.610 18.400,225.400 18.400 C 224.190 18.400,223.200 18.580,223.200 18.800 C 223.200 19.020,222.300 19.200,221.200 19.200 C 220.100 19.200,219.200 19.380,219.200 19.600 C 219.200 19.820,218.480 20.000,217.600 20.000 C 216.720 20.000,216.000 20.180,216.000 20.400 C 216.000 20.622,214.933 20.800,213.600 20.800 C 212.267 20.800,211.200 20.978,211.200 21.200 C 211.200 21.420,210.390 21.600,209.400 21.600 C 208.410 21.600,207.600 21.780,207.600 22.000 C 207.600 22.229,206.400 22.400,204.800 22.400 C 203.200 22.400,202.000 22.571,202.000 22.800 C 202.000 23.033,200.667 23.200,198.800 23.200 C 196.933 23.200,195.600 23.367,195.600 23.600 C 195.600 23.849,193.267 24.000,189.400 24.000 C 185.975 24.000,183.200 24.162,183.200 24.361 C 183.200 24.560,181.535 24.829,179.500 24.960 C 173.301 25.357,170.800 25.655,170.800 25.999 C 170.800 26.179,169.855 26.422,168.700 26.540 C 163.193 27.102,159.388 27.706,159.267 28.036 C 159.193 28.236,158.428 28.400,157.567 28.400 C 156.705 28.400,156.000 28.580,156.000 28.800 C 156.000 29.020,155.100 29.200,154.000 29.200 C 152.900 29.200,152.000 29.380,152.000 29.600 C 152.000 29.820,151.100 30.000,150.000 30.000 C 148.900 30.000,148.000 30.180,148.000 30.400 C 148.000 30.620,147.100 30.800,146.000 30.800 C 144.900 30.800,144.000 30.980,144.000 31.200 C 144.000 31.420,143.010 31.600,141.800 31.600 C 140.590 31.600,139.600 31.780,139.600 32.000 C 139.600 32.220,138.700 32.400,137.600 32.400 C 136.500 32.400,135.600 32.580,135.600 32.800 C 135.600 33.022,134.533 33.200,133.200 33.200 C 131.867 33.200,130.800 33.378,130.800 33.600 C 130.800 33.820,129.900 34.000,128.800 34.000 C 127.700 34.000,126.800 34.180,126.800 34.400 C 126.800 34.620,125.990 34.800,125.000 34.800 C 124.010 34.800,123.200 34.980,123.200 35.200 C 123.200 35.420,122.480 35.600,121.600 35.600 C 120.720 35.600,120.000 35.780,120.000 36.000 C 120.000 36.220,119.280 36.400,118.400 36.400 C 117.520 36.400,116.800 36.580,116.800 36.800 C 116.800 37.020,116.440 37.200,116.000 37.200 C 115.467 37.200,115.200 37.467,115.200 38.000 C 115.200 38.440,115.020 38.800,114.800 38.800 C 114.580 38.800,114.400 39.160,114.400 39.600 C 114.400 40.133,114.133 40.400,113.600 40.400 C 113.160 40.400,112.800 40.559,112.800 40.754 C 112.800 40.949,111.810 41.232,110.600 41.383 C 109.390 41.534,108.400 41.825,108.400 42.029 C 108.400 42.233,107.860 42.400,107.200 42.400 C 106.540 42.400,106.000 42.580,106.000 42.800 C 106.000 43.020,105.717 43.200,105.371 43.200 C 104.639 43.200,103.600 44.138,103.600 44.800 C 103.600 45.462,102.561 46.400,101.829 46.400 C 101.483 46.400,101.200 46.580,101.200 46.800 C 101.200 47.020,100.660 47.200,100.000 47.200 C 99.184 47.200,98.800 47.398,98.800 47.818 C 98.800 48.530,97.054 50.400,96.390 50.400 C 95.808 50.400,94.800 51.414,94.800 52.000 C 94.800 52.590,93.790 53.600,93.200 53.600 C 92.538 53.600,91.600 54.639,91.600 55.371 C 91.600 55.717,91.407 56.000,91.171 56.000 C 90.534 56.000,89.600 57.053,89.600 57.771 C 89.600 58.133,89.261 58.400,88.800 58.400 C 88.356 58.400,88.000 58.667,88.000 59.000 C 88.000 59.330,87.717 59.600,87.371 59.600 C 86.563 59.600,85.600 60.563,85.600 61.371 C 85.600 61.733,85.261 62.000,84.800 62.000 C 84.338 62.000,84.000 62.267,84.000 62.631 C 84.000 62.979,83.280 63.954,82.400 64.800 C 81.520 65.646,80.800 66.621,80.800 66.969 C 80.800 67.333,80.462 67.600,80.000 67.600 C 79.541 67.600,79.200 67.867,79.200 68.226 C 79.200 68.570,78.330 69.700,77.266 70.736 C 76.202 71.772,75.209 73.110,75.058 73.710 C 74.908 74.309,74.620 74.800,74.419 74.800 C 73.889 74.800,70.000 78.666,70.000 79.193 C 70.000 79.438,68.740 80.881,67.200 82.400 C 65.660 83.919,64.400 85.362,64.400 85.607 C 64.400 85.852,63.500 86.929,62.400 88.000 C 61.300 89.071,60.400 90.218,60.400 90.547 C 60.400 90.877,60.040 91.260,59.600 91.400 C 59.160 91.540,58.800 91.814,58.800 92.009 C 58.800 92.204,58.350 92.814,57.800 93.364 C 57.250 93.914,56.800 94.570,56.800 94.821 C 56.800 95.073,56.260 95.783,55.600 96.400 C 54.940 97.017,54.400 97.737,54.400 98.000 C 54.400 98.263,53.860 98.983,53.200 99.600 C 52.540 100.217,52.000 100.969,52.000 101.272 C 52.000 101.575,51.640 102.083,51.200 102.400 C 50.760 102.717,50.400 103.257,50.400 103.600 C 50.400 103.943,50.040 104.483,49.600 104.800 C 49.160 105.117,48.800 105.697,48.800 106.088 C 48.800 106.480,48.620 106.800,48.400 106.800 C 48.180 106.800,48.000 107.160,48.000 107.600 C 48.000 108.040,47.820 108.400,47.600 108.400 C 47.380 108.400,47.200 108.670,47.200 109.000 C 47.200 109.330,47.020 109.600,46.800 109.600 C 46.580 109.600,46.400 109.960,46.400 110.400 C 46.400 110.840,46.220 111.200,46.000 111.200 C 45.780 111.200,45.600 111.740,45.600 112.400 C 45.600 113.060,45.420 113.600,45.200 113.600 C 44.980 113.600,44.800 113.960,44.800 114.400 C 44.800 114.840,44.620 115.200,44.400 115.200 C 44.180 115.200,44.000 115.740,44.000 116.400 C 44.000 117.060,43.820 117.600,43.600 117.600 C 43.380 117.600,43.200 117.947,43.200 118.371 C 43.200 118.796,42.930 119.413,42.600 119.743 C 42.270 120.073,42.000 120.626,42.000 120.971 C 42.000 121.317,41.820 121.600,41.600 121.600 C 41.380 121.600,41.200 121.960,41.200 122.400 C 41.200 122.840,41.020 123.200,40.800 123.200 C 40.580 123.200,40.400 123.740,40.400 124.400 C 40.400 125.060,40.220 125.600,40.000 125.600 C 39.780 125.600,39.600 125.960,39.600 126.400 C 39.600 126.840,39.420 127.200,39.200 127.200 C 38.980 127.200,38.800 127.470,38.800 127.800 C 38.800 128.130,38.620 128.400,38.400 128.400 C 38.180 128.400,38.000 128.760,38.000 129.200 C 38.000 129.640,37.820 130.000,37.600 130.000 C 37.380 130.000,37.200 130.540,37.200 131.200 C 37.200 131.860,37.020 132.400,36.800 132.400 C 36.580 132.400,36.400 132.760,36.400 133.200 C 36.400 133.640,36.220 134.000,36.000 134.000 C 35.780 134.000,35.600 134.540,35.600 135.200 C 35.600 135.860,35.420 136.400,35.200 136.400 C 34.980 136.400,34.800 136.760,34.800 137.200 C 34.800 137.640,34.620 138.000,34.400 138.000 C 34.180 138.000,34.000 138.540,34.000 139.200 C 34.000 139.860,33.820 140.400,33.600 140.400 C 33.380 140.400,33.200 140.940,33.200 141.600 C 33.200 142.260,33.020 142.800,32.800 142.800 C 32.580 142.800,32.400 143.250,32.400 143.800 C 32.400 144.350,32.220 144.800,32.000 144.800 C 31.780 144.800,31.600 145.340,31.600 146.000 C 31.600 146.660,31.420 147.200,31.200 147.200 C 30.980 147.200,30.800 147.920,30.800 148.800 C 30.800 149.680,30.620 150.400,30.400 150.400 C 30.180 150.400,30.000 150.940,30.000 151.600 C 30.000 152.260,29.820 152.800,29.600 152.800 C 29.380 152.800,29.200 153.520,29.200 154.400 C 29.200 155.280,29.020 156.000,28.800 156.000 C 28.580 156.000,28.400 156.705,28.400 157.567 C 28.400 158.428,28.227 159.193,28.016 159.267 C 27.805 159.340,27.509 160.885,27.359 162.700 C 27.208 164.515,26.931 166.000,26.742 166.000 C 26.554 166.000,26.400 167.080,26.400 168.400 C 26.400 169.733,26.222 170.800,26.000 170.800 C 25.771 170.800,25.600 172.000,25.600 173.600 C 25.600 175.200,25.429 176.400,25.200 176.400 C 24.965 176.400,24.800 177.800,24.800 179.800 C 24.800 181.800,24.635 183.200,24.400 183.200 C 24.140 183.200,24.000 189.067,24.000 200.000 C 24.000 210.933,24.140 216.800,24.400 216.800 C 24.637 216.800,24.800 218.267,24.800 220.400 C 24.800 222.533,24.963 224.000,25.200 224.000 C 25.426 224.000,25.600 225.133,25.600 226.600 C 25.600 228.067,25.774 229.200,26.000 229.200 C 26.222 229.200,26.400 230.267,26.400 231.600 C 26.400 232.920,26.554 234.000,26.742 234.000 C 26.931 234.000,27.209 235.484,27.360 237.297 C 27.511 239.111,27.807 240.767,28.017 240.977 C 28.228 241.188,28.400 241.954,28.400 242.680 C 28.400 243.406,28.580 244.000,28.800 244.000 C 29.020 244.000,29.200 244.720,29.200 245.600 C 29.200 246.480,29.380 247.200,29.600 247.200 C 29.820 247.200,30.000 247.740,30.000 248.400 C 30.000 249.060,30.180 249.600,30.400 249.600 C 30.620 249.600,30.800 250.320,30.800 251.200 C 30.800 252.080,30.980 252.800,31.200 252.800 C 31.420 252.800,31.600 253.340,31.600 254.000 C 31.600 254.660,31.780 255.200,32.000 255.200 C 32.220 255.200,32.400 255.740,32.400 256.400 C 32.400 257.060,32.580 257.600,32.800 257.600 C 33.020 257.600,33.200 258.050,33.200 258.600 C 33.200 259.150,33.380 259.600,33.600 259.600 C 33.820 259.600,34.000 260.140,34.000 260.800 C 34.000 261.460,34.180 262.000,34.400 262.000 C 34.620 262.000,34.800 262.360,34.800 262.800 C 34.800 263.240,34.980 263.600,35.200 263.600 C 35.420 263.600,35.600 264.140,35.600 264.800 C 35.600 265.460,35.780 266.000,36.000 266.000 C 36.220 266.000,36.400 266.360,36.400 266.800 C 36.400 267.240,36.580 267.600,36.800 267.600 C 37.020 267.600,37.200 268.140,37.200 268.800 C 37.200 269.460,37.380 270.000,37.600 270.000 C 37.820 270.000,38.000 270.360,38.000 270.800 C 38.000 271.240,38.180 271.600,38.400 271.600 C 38.620 271.600,38.800 271.960,38.800 272.400 C 38.800 272.840,38.980 273.200,39.200 273.200 C 39.420 273.200,39.600 273.560,39.600 274.000 C 39.600 274.440,39.780 274.800,40.000 274.800 C 40.220 274.800,40.400 275.250,40.400 275.800 C 40.400 276.350,40.580 276.800,40.800 276.800 C 41.020 276.800,41.200 277.160,41.200 277.600 C 41.200 278.040,41.380 278.400,41.600 278.400 C 41.820 278.400,42.000 278.720,42.000 279.112 C 42.000 279.503,42.350 280.075,42.777 280.383 C 43.204 280.691,43.670 281.631,43.812 282.472 C 43.954 283.312,44.234 284.000,44.435 284.000 C 44.636 284.000,44.800 284.360,44.800 284.800 C 44.800 285.240,44.980 285.600,45.200 285.600 C 45.420 285.600,45.600 285.960,45.600 286.400 C 45.600 286.840,45.780 287.200,46.000 287.200 C 46.220 287.200,46.400 287.520,46.400 287.912 C 46.400 288.303,46.760 288.883,47.200 289.200 C 47.640 289.517,48.000 290.097,48.000 290.488 C 48.000 290.880,48.180 291.200,48.400 291.200 C 48.620 291.200,48.800 291.430,48.800 291.712 C 48.800 291.993,49.160 292.483,49.600 292.800 C 50.040 293.117,50.400 293.657,50.400 294.000 C 50.400 294.343,50.760 294.883,51.200 295.200 C 51.640 295.517,52.000 296.097,52.000 296.488 C 52.000 296.880,52.180 297.200,52.400 297.200 C 52.620 297.200,52.800 297.488,52.800 297.840 C 52.800 298.191,53.340 298.983,54.000 299.600 C 54.660 300.217,55.200 300.969,55.200 301.272 C 55.200 301.575,55.560 302.083,56.000 302.400 C 56.440 302.717,56.800 303.225,56.800 303.528 C 56.800 303.831,57.340 304.583,58.000 305.200 C 58.660 305.817,59.200 306.543,59.200 306.815 C 59.200 307.086,59.650 307.725,60.200 308.235 C 60.750 308.745,61.200 309.362,61.200 309.607 C 61.200 309.852,62.100 310.929,63.200 312.000 C 64.300 313.071,65.200 314.147,65.200 314.389 C 65.200 314.632,66.820 316.437,68.800 318.400 C 70.780 320.363,72.405 322.201,72.412 322.485 C 72.419 322.768,72.971 323.450,73.640 324.000 C 74.308 324.550,75.467 325.585,76.214 326.300 C 76.962 327.015,77.676 327.600,77.802 327.600 C 77.928 327.600,79.637 329.220,81.600 331.200 C 83.563 333.180,85.368 334.800,85.611 334.800 C 85.853 334.800,86.929 335.700,88.000 336.800 C 89.071 337.900,90.158 338.800,90.414 338.800 C 90.670 338.800,91.383 339.340,92.000 340.000 C 92.617 340.660,93.311 341.200,93.542 341.200 C 93.774 341.200,94.414 341.650,94.964 342.200 C 95.514 342.750,96.202 343.200,96.494 343.200 C 96.785 343.200,97.283 343.560,97.600 344.000 C 97.917 344.440,98.425 344.800,98.728 344.800 C 99.031 344.800,99.783 345.340,100.400 346.000 C 101.017 346.660,101.809 347.200,102.160 347.200 C 102.512 347.200,102.800 347.380,102.800 347.600 C 102.800 347.820,103.120 348.000,103.512 348.000 C 103.903 348.000,104.483 348.360,104.800 348.800 C 105.117 349.240,105.657 349.600,106.000 349.600 C 106.343 349.600,106.883 349.960,107.200 350.400 C 107.517 350.840,108.097 351.200,108.488 351.200 C 108.880 351.200,109.200 351.380,109.200 351.600 C 109.200 351.820,109.430 352.000,109.712 352.000 C 109.993 352.000,110.483 352.360,110.800 352.800 C 111.117 353.240,111.697 353.600,112.088 353.600 C 112.480 353.600,112.800 353.780,112.800 354.000 C 112.800 354.220,113.160 354.400,113.600 354.400 C 114.040 354.400,114.400 354.580,114.400 354.800 C 114.400 355.020,114.760 355.200,115.200 355.200 C 115.640 355.200,116.000 355.380,116.000 355.600 C 116.000 355.820,116.360 356.000,116.800 356.000 C 117.240 356.000,117.600 356.180,117.600 356.400 C 117.600 356.620,117.960 356.800,118.400 356.800 C 118.840 356.800,119.200 356.980,119.200 357.200 C 119.200 357.420,119.483 357.600,119.829 357.600 C 120.174 357.600,120.727 357.870,121.057 358.200 C 121.387 358.530,122.004 358.800,122.429 358.800 C 122.853 358.800,123.200 358.980,123.200 359.200 C 123.200 359.420,123.740 359.600,124.400 359.600 C 125.060 359.600,125.600 359.780,125.600 360.000 C 125.600 360.220,125.960 360.400,126.400 360.400 C 126.840 360.400,127.200 360.580,127.200 360.800 C 127.200 361.020,127.470 361.200,127.800 361.200 C 128.130 361.200,128.400 361.380,128.400 361.600 C 128.400 361.820,128.760 362.000,129.200 362.000 C 129.640 362.000,130.000 362.180,130.000 362.400 C 130.000 362.620,130.540 362.800,131.200 362.800 C 131.860 362.800,132.400 362.980,132.400 363.200 C 132.400 363.420,132.760 363.600,133.200 363.600 C 133.640 363.600,134.000 363.780,134.000 364.000 C 134.000 364.220,134.540 364.400,135.200 364.400 C 135.860 364.400,136.400 364.580,136.400 364.800 C 136.400 365.020,136.760 365.200,137.200 365.200 C 137.640 365.200,138.000 365.380,138.000 365.600 C 138.000 365.820,138.540 366.000,139.200 366.000 C 139.860 366.000,140.400 366.180,140.400 366.400 C 140.400 366.620,140.940 366.800,141.600 366.800 C 142.260 366.800,142.800 366.980,142.800 367.200 C 142.800 367.420,143.250 367.600,143.800 367.600 C 144.350 367.600,144.800 367.780,144.800 368.000 C 144.800 368.220,145.340 368.400,146.000 368.400 C 146.660 368.400,147.200 368.580,147.200 368.800 C 147.200 369.020,147.920 369.200,148.800 369.200 C 149.680 369.200,150.400 369.380,150.400 369.600 C 150.400 369.820,150.940 370.000,151.600 370.000 C 152.260 370.000,152.800 370.180,152.800 370.400 C 152.800 370.620,153.520 370.800,154.400 370.800 C 155.280 370.800,156.000 370.980,156.000 371.200 C 156.000 371.420,156.720 371.600,157.600 371.600 C 158.480 371.600,159.200 371.780,159.200 372.000 C 159.200 372.220,159.819 372.400,160.576 372.400 C 161.333 372.400,162.064 372.580,162.200 372.800 C 162.336 373.020,163.427 373.200,164.624 373.200 C 165.821 373.200,166.800 373.380,166.800 373.600 C 166.800 373.820,167.685 374.000,168.767 374.000 C 169.848 374.000,170.793 374.164,170.867 374.365 C 170.940 374.566,173.700 374.860,177.000 375.019 C 180.300 375.178,183.090 375.447,183.200 375.617 C 183.547 376.150,228.400 376.587,228.400 376.058 C 228.400 375.752,229.465 375.600,231.600 375.600 C 233.467 375.600,234.800 375.433,234.800 375.200 C 234.800 374.971,236.000 374.800,237.600 374.800 C 239.200 374.800,240.400 374.629,240.400 374.400 C 240.400 374.180,241.210 374.000,242.200 374.000 C 243.190 374.000,244.000 373.820,244.000 373.600 C 244.000 373.380,244.720 373.200,245.600 373.200 C 246.480 373.200,247.200 373.020,247.200 372.800 C 247.200 372.580,247.920 372.400,248.800 372.400 C 249.680 372.400,250.400 372.220,250.400 372.000 C 250.400 371.780,251.120 371.600,252.000 371.600 C 252.880 371.600,253.600 371.420,253.600 371.200 C 253.600 370.980,254.140 370.800,254.800 370.800 C 255.460 370.800,256.000 370.620,256.000 370.400 C 256.000 370.180,256.720 370.000,257.600 370.000 C 258.480 370.000,259.200 369.820,259.200 369.600 C 259.200 369.380,259.650 369.200,260.200 369.200 C 260.750 369.200,261.200 369.020,261.200 368.800 C 261.200 368.580,261.560 368.400,262.000 368.400 C 262.440 368.400,262.800 368.220,262.800 368.000 C 262.800 367.780,263.340 367.600,264.000 367.600 C 264.660 367.600,265.200 367.420,265.200 367.200 C 265.200 366.980,265.560 366.800,266.000 366.800 C 266.440 366.800,266.800 366.620,266.800 366.400 C 266.800 366.180,267.340 366.000,268.000 366.000 C 268.660 366.000,269.200 365.820,269.200 365.600 C 269.200 365.380,269.560 365.200,270.000 365.200 C 270.440 365.200,270.800 365.020,270.800 364.800 C 270.800 364.580,271.160 364.400,271.600 364.400 C 272.040 364.400,272.400 364.220,272.400 364.000 C 272.400 363.780,272.940 363.600,273.600 363.600 C 274.260 363.600,274.800 363.420,274.800 363.200 C 274.800 362.980,275.160 362.800,275.600 362.800 C 276.040 362.800,276.400 362.620,276.400 362.400 C 276.400 362.180,276.670 362.000,277.000 362.000 C 277.330 362.000,277.600 361.820,277.600 361.600 C 277.600 361.380,277.960 361.200,278.400 361.200 C 278.840 361.200,279.200 361.020,279.200 360.800 C 279.200 360.580,279.562 360.400,280.005 360.400 C 280.448 360.400,281.123 360.238,281.505 360.041 C 281.887 359.844,283.010 359.375,284.000 359.000 C 284.990 358.625,286.113 358.156,286.495 357.959 C 286.877 357.762,287.552 357.600,287.995 357.600 C 288.438 357.600,288.800 357.420,288.800 357.200 C 288.800 356.980,289.340 356.800,290.000 356.800 C 290.660 356.800,291.200 356.620,291.200 356.400 C 291.200 356.180,291.740 356.000,292.400 356.000 C 293.060 356.000,293.600 355.820,293.600 355.600 C 293.600 355.380,293.870 355.200,294.200 355.200 C 294.530 355.200,294.800 355.020,294.800 354.800 C 294.800 354.580,295.340 354.400,296.000 354.400 C 296.660 354.400,297.200 354.220,297.200 354.000 C 297.200 353.780,297.560 353.600,298.000 353.600 C 298.440 353.600,298.800 353.420,298.800 353.200 C 298.800 352.980,299.160 352.800,299.600 352.800 C 300.040 352.800,300.400 352.620,300.400 352.400 C 300.400 352.180,300.940 352.000,301.600 352.000 C 302.260 352.000,302.800 351.820,302.800 351.600 C 302.800 351.380,303.160 351.200,303.600 351.200 C 304.040 351.200,304.400 351.020,304.400 350.800 C 304.400 350.580,304.760 350.400,305.200 350.400 C 305.640 350.400,306.000 350.220,306.000 350.000 C 306.000 349.780,306.360 349.600,306.800 349.600 C 307.240 349.600,307.600 349.420,307.600 349.200 C 307.600 348.980,307.960 348.800,308.400 348.800 C 308.840 348.800,309.200 348.620,309.200 348.400 C 309.200 348.180,309.470 348.000,309.800 348.000 C 310.130 348.000,310.400 347.820,310.400 347.600 C 310.400 347.380,310.760 347.200,311.200 347.200 C 311.640 347.200,312.000 347.020,312.000 346.800 C 312.000 346.580,312.360 346.400,312.800 346.400 C 313.240 346.400,313.600 346.220,313.600 346.000 C 313.600 345.780,313.960 345.600,314.400 345.600 C 314.840 345.600,315.200 345.420,315.200 345.200 C 315.200 344.980,315.560 344.800,316.000 344.800 C 316.440 344.800,316.800 344.636,316.800 344.435 C 316.800 344.234,317.520 343.949,318.400 343.800 C 319.280 343.651,320.000 343.366,320.000 343.165 C 320.000 342.964,320.360 342.800,320.800 342.800 C 321.240 342.800,321.600 342.620,321.600 342.400 C 321.600 342.180,321.960 342.000,322.400 342.000 C 322.840 342.000,323.200 341.820,323.200 341.600 C 323.200 341.380,323.483 341.200,323.829 341.200 C 324.871 341.200,325.600 340.141,325.600 338.629 C 325.600 337.467,325.749 337.200,326.400 337.200 C 326.840 337.200,327.200 337.020,327.200 336.800 C 327.200 336.580,327.430 336.400,327.712 336.400 C 327.993 336.400,328.483 336.040,328.800 335.600 C 329.117 335.160,329.697 334.800,330.088 334.800 C 330.480 334.800,330.800 334.620,330.800 334.400 C 330.800 334.180,331.078 334.000,331.418 334.000 C 332.124 334.000,334.000 332.256,334.000 331.600 C 334.000 331.028,335.836 329.200,336.410 329.200 C 336.897 329.200,338.000 328.221,338.000 327.789 C 338.000 327.642,338.540 327.017,339.200 326.400 C 339.860 325.783,340.400 324.991,340.400 324.640 C 340.400 324.267,340.734 324.000,341.200 324.000 C 341.673 324.000,342.000 323.733,342.000 323.347 C 342.000 322.988,342.331 322.403,342.736 322.047 C 343.141 321.691,343.594 320.905,343.744 320.300 C 343.893 319.695,344.192 319.200,344.408 319.200 C 344.623 319.200,344.800 318.880,344.800 318.488 C 344.800 318.097,345.160 317.517,345.600 317.200 C 346.040 316.883,346.400 316.343,346.400 316.000 C 346.400 315.657,346.760 315.117,347.200 314.800 C 347.640 314.483,348.000 313.903,348.000 313.512 C 348.000 313.120,348.180 312.800,348.400 312.800 C 348.620 312.800,348.800 312.440,348.800 312.000 C 348.800 311.560,348.980 311.200,349.200 311.200 C 349.420 311.200,349.600 310.930,349.600 310.600 C 349.600 310.270,349.780 310.000,350.000 310.000 C 350.220 310.000,350.400 309.640,350.400 309.200 C 350.400 308.760,350.580 308.400,350.800 308.400 C 351.020 308.400,351.200 308.040,351.200 307.600 C 351.200 307.160,351.380 306.800,351.600 306.800 C 351.820 306.800,352.000 306.440,352.000 306.000 C 352.000 305.560,352.180 305.200,352.400 305.200 C 352.620 305.200,352.800 304.660,352.800 304.000 C 352.800 303.340,352.980 302.800,353.200 302.800 C 353.420 302.800,353.600 302.440,353.600 302.000 C 353.600 301.560,353.780 301.200,354.000 301.200 C 354.220 301.200,354.400 300.660,354.400 300.000 C 354.400 299.340,354.580 298.800,354.800 298.800 C 355.020 298.800,355.200 298.260,355.200 297.600 C 355.200 296.940,355.380 296.400,355.600 296.400 C 355.820 296.400,356.000 295.860,356.000 295.200 C 356.000 294.540,356.180 294.000,356.400 294.000 C 356.620 294.000,356.800 293.550,356.800 293.000 C 356.800 292.450,356.980 292.000,357.200 292.000 C 357.420 292.000,357.600 291.460,357.600 290.800 C 357.600 290.140,357.780 289.600,358.000 289.600 C 358.220 289.600,358.400 289.060,358.400 288.400 C 358.400 287.740,358.580 287.200,358.800 287.200 C 359.020 287.200,359.200 286.480,359.200 285.600 C 359.200 284.720,359.361 284.000,359.558 284.000 C 359.755 284.000,360.044 282.560,360.200 280.800 C 360.356 279.040,360.645 277.600,360.842 277.600 C 361.039 277.600,361.200 276.790,361.200 275.800 C 361.200 274.810,361.380 274.000,361.600 274.000 C 361.820 274.000,362.000 273.100,362.000 272.000 C 362.000 270.900,362.180 270.000,362.400 270.000 C 362.620 270.000,362.800 269.460,362.800 268.800 C 362.800 268.140,362.980 267.600,363.200 267.600 C 363.420 267.600,363.600 267.240,363.600 266.800 C 363.600 266.360,363.780 266.000,364.000 266.000 C 364.220 266.000,364.400 265.460,364.400 264.800 C 364.400 264.140,364.580 263.600,364.800 263.600 C 365.020 263.600,365.200 263.240,365.200 262.800 C 365.200 262.360,365.380 262.000,365.600 262.000 C 365.820 262.000,366.000 261.460,366.000 260.800 C 366.000 260.140,366.180 259.600,366.400 259.600 C 366.620 259.600,366.800 259.150,366.800 258.600 C 366.800 258.050,366.980 257.600,367.200 257.600 C 367.420 257.600,367.600 257.060,367.600 256.400 C 367.600 255.740,367.780 255.200,368.000 255.200 C 368.220 255.200,368.400 254.660,368.400 254.000 C 368.400 253.340,368.580 252.800,368.800 252.800 C 369.020 252.800,369.200 252.080,369.200 251.200 C 369.200 250.320,369.380 249.600,369.600 249.600 C 369.820 249.600,370.000 249.060,370.000 248.400 C 370.000 247.740,370.180 247.200,370.400 247.200 C 370.620 247.200,370.800 246.480,370.800 245.600 C 370.800 244.720,370.980 244.000,371.200 244.000 C 371.420 244.000,371.600 243.370,371.600 242.600 C 371.600 241.830,371.780 241.200,372.000 241.200 C 372.220 241.200,372.400 240.480,372.400 239.600 C 372.400 238.720,372.580 238.000,372.800 238.000 C 373.022 238.000,373.200 236.933,373.200 235.600 C 373.200 234.267,373.378 233.200,373.600 233.200 C 373.820 233.200,374.000 232.315,374.000 231.233 C 374.000 230.152,374.170 229.207,374.378 229.133 C 374.585 229.060,374.882 226.255,375.037 222.900 C 375.192 219.545,375.472 216.800,375.659 216.800 C 375.847 216.800,376.000 209.240,376.000 200.000 C 376.000 190.760,375.845 183.200,375.656 183.200 C 375.467 183.200,375.183 180.455,375.025 177.100 C 374.867 173.745,374.571 170.940,374.369 170.867 C 374.166 170.793,374.000 169.668,374.000 168.367 C 374.000 167.056,373.822 166.000,373.600 166.000 C 373.380 166.000,373.200 165.201,373.200 164.224 C 373.200 163.247,373.020 162.336,372.800 162.200 C 372.580 162.064,372.400 161.333,372.400 160.576 C 372.400 159.819,372.220 159.200,372.000 159.200 C 371.780 159.200,371.600 158.480,371.600 157.600 C 371.600 156.720,371.420 156.000,371.200 156.000 C 370.980 156.000,370.800 155.280,370.800 154.400 C 370.800 153.520,370.620 152.800,370.400 152.800 C 370.180 152.800,370.000 152.260,370.000 151.600 C 370.000 150.940,369.820 150.400,369.600 150.400 C 369.380 150.400,369.200 149.680,369.200 148.800 C 369.200 147.920,369.020 147.200,368.800 147.200 C 368.580 147.200,368.400 146.660,368.400 146.000 C 368.400 145.340,368.220 144.800,368.000 144.800 C 367.780 144.800,367.600 144.350,367.600 143.800 C 367.600 143.250,367.420 142.800,367.200 142.800 C 366.980 142.800,366.800 142.260,366.800 141.600 C 366.800 140.940,366.620 140.400,366.400 140.400 C 366.180 140.400,366.000 139.860,366.000 139.200 C 366.000 138.540,365.820 138.000,365.600 138.000 C 365.380 138.000,365.200 137.640,365.200 137.200 C 365.200 136.760,365.020 136.400,364.800 136.400 C 364.580 136.400,364.400 135.860,364.400 135.200 C 364.400 134.540,364.220 134.000,364.000 134.000 C 363.780 134.000,363.600 133.640,363.600 133.200 C 363.600 132.760,363.420 132.400,363.200 132.400 C 362.980 132.400,362.800 131.860,362.800 131.200 C 362.800 130.540,362.620 130.000,362.400 130.000 C 362.180 130.000,362.000 129.640,362.000 129.200 C 362.000 128.760,361.820 128.400,361.600 128.400 C 361.380 128.400,361.200 128.130,361.200 127.800 C 361.200 127.470,361.020 127.200,360.800 127.200 C 360.580 127.200,360.400 126.840,360.400 126.400 C 360.400 125.960,360.220 125.600,360.000 125.600 C 359.780 125.600,359.600 125.060,359.600 124.400 C 359.600 123.740,359.436 123.200,359.235 123.200 C 359.034 123.200,358.754 122.512,358.612 121.672 C 358.470 120.831,358.004 119.891,357.577 119.583 C 357.150 119.275,356.800 118.703,356.800 118.312 C 356.800 117.920,356.620 117.600,356.400 117.600 C 356.180 117.600,356.000 117.240,356.000 116.800 C 356.000 116.360,355.820 116.000,355.600 116.000 C 355.380 116.000,355.200 115.640,355.200 115.200 C 355.200 114.760,355.020 114.400,354.800 114.400 C 354.580 114.400,354.400 114.040,354.400 113.600 C 354.400 113.160,354.220 112.800,354.000 112.800 C 353.780 112.800,353.600 112.480,353.600 112.088 C 353.600 111.697,353.240 111.117,352.800 110.800 C 352.360 110.483,352.000 109.993,352.000 109.712 C 352.000 109.430,351.820 109.200,351.600 109.200 C 351.380 109.200,351.200 108.880,351.200 108.488 C 351.200 108.097,350.840 107.517,350.400 107.200 C 349.960 106.883,349.600 106.343,349.600 106.000 C 349.600 105.657,349.240 105.117,348.800 104.800 C 348.360 104.483,348.000 103.903,348.000 103.512 C 348.000 103.120,347.820 102.800,347.600 102.800 C 347.380 102.800,347.200 102.512,347.200 102.160 C 347.200 101.809,346.660 101.017,346.000 100.400 C 345.340 99.783,344.800 99.031,344.800 98.728 C 344.800 98.425,344.440 97.917,344.000 97.600 C 343.560 97.283,343.200 96.785,343.200 96.494 C 343.200 96.202,342.750 95.514,342.200 94.964 C 341.650 94.414,341.200 93.774,341.200 93.542 C 341.200 93.311,340.660 92.617,340.000 92.000 C 339.340 91.383,338.800 90.670,338.800 90.414 C 338.800 90.158,337.900 89.071,336.800 88.000 C 335.700 86.929,334.800 85.853,334.800 85.611 C 334.800 85.368,333.180 83.563,331.200 81.600 C 329.220 79.637,327.600 77.928,327.600 77.802 C 327.600 77.676,327.015 76.962,326.300 76.214 C 325.585 75.467,324.550 74.308,324.000 73.640 C 323.450 72.971,322.768 72.419,322.485 72.412 C 322.201 72.405,320.363 70.780,318.400 68.800 C 316.437 66.820,314.632 65.200,314.389 65.200 C 314.147 65.200,313.071 64.300,312.000 63.200 C 310.929 62.100,309.852 61.200,309.607 61.200 C 309.362 61.200,308.745 60.750,308.235 60.200 C 307.725 59.650,307.086 59.200,306.815 59.200 C 306.543 59.200,305.817 58.660,305.200 58.000 C 304.583 57.340,303.831 56.800,303.528 56.800 C 303.225 56.800,302.717 56.440,302.400 56.000 C 302.083 55.560,301.575 55.200,301.272 55.200 C 300.969 55.200,300.217 54.660,299.600 54.000 C 298.983 53.340,298.191 52.800,297.840 52.800 C 297.488 52.800,297.200 52.620,297.200 52.400 C 297.200 52.180,296.880 52.000,296.488 52.000 C 296.097 52.000,295.517 51.640,295.200 51.200 C 294.883 50.760,294.343 50.400,294.000 50.400 C 293.657 50.400,293.117 50.040,292.800 49.600 C 292.483 49.160,292.081 48.800,291.907 48.800 C 291.732 48.800,289.883 47.135,287.797 45.100 C 279.937 37.434,278.798 36.400,278.207 36.400 C 277.873 36.400,277.600 36.239,277.600 36.042 C 277.600 35.497,275.343 33.200,274.808 33.200 C 274.549 33.200,273.646 32.480,272.800 31.600 C 271.954 30.720,270.979 30.000,270.631 30.000 C 270.284 30.000,270.000 29.820,270.000 29.600 C 270.000 29.380,269.680 29.200,269.288 29.200 C 268.897 29.200,268.317 28.840,268.000 28.400 C 267.683 27.960,267.103 27.600,266.712 27.600 C 266.320 27.600,266.000 27.420,266.000 27.200 C 266.000 26.980,265.680 26.800,265.288 26.800 C 264.897 26.800,264.317 26.440,264.000 26.000 C 263.668 25.539,262.965 25.200,262.340 25.200 C 261.745 25.200,260.987 24.930,260.657 24.600 C 260.327 24.270,259.504 24.000,258.829 24.000 C 257.867 24.000,257.600 23.826,257.600 23.200 C 257.600 22.667,257.333 22.400,256.800 22.400 C 256.360 22.400,256.000 22.220,256.000 22.000 C 256.000 21.780,255.640 21.600,255.200 21.600 C 254.760 21.600,254.400 21.780,254.400 22.000 C 254.400 22.805,253.092 22.369,252.000 21.200 L 250.879 20.000 245.240 20.000 C 239.867 20.000,239.600 19.962,239.600 19.200 C 239.600 18.760,239.420 18.400,239.200 18.400 C 238.980 18.400,238.800 18.040,238.800 17.600 C 238.800 16.889,238.533 16.800,236.400 16.800 C 235.067 16.800,234.000 16.978,234.000 17.200 M246.200 103.200 C 246.336 103.420,247.236 103.600,248.200 103.600 C 249.164 103.600,250.064 103.780,250.200 104.000 C 250.336 104.220,251.067 104.400,251.824 104.400 C 252.581 104.400,253.200 104.580,253.200 104.800 C 253.200 105.020,253.920 105.200,254.800 105.200 C 255.680 105.200,256.400 105.380,256.400 105.600 C 256.400 105.820,256.839 106.000,257.376 106.000 C 257.913 106.000,258.464 106.180,258.600 106.400 C 258.736 106.620,259.182 106.800,259.590 106.800 C 259.999 106.800,260.393 106.941,260.467 107.113 C 260.540 107.285,262.703 108.467,265.273 109.739 C 267.843 111.012,270.160 112.311,270.422 112.626 C 270.684 112.942,271.112 113.200,271.374 113.200 C 271.636 113.200,272.368 113.740,273.000 114.400 C 273.632 115.060,274.326 115.600,274.541 115.600 C 275.091 115.600,284.800 125.264,284.800 125.812 C 284.800 126.059,285.250 126.683,285.800 127.200 C 286.350 127.717,286.800 128.356,286.800 128.621 C 286.800 128.885,287.058 129.316,287.374 129.578 C 287.689 129.840,288.988 132.157,290.261 134.727 C 291.533 137.297,292.715 139.460,292.887 139.533 C 293.059 139.607,293.200 140.001,293.200 140.410 C 293.200 140.818,293.380 141.264,293.600 141.400 C 293.820 141.536,294.000 142.087,294.000 142.624 C 294.000 143.161,294.180 143.600,294.400 143.600 C 294.620 143.600,294.800 144.140,294.800 144.800 C 294.800 145.460,294.980 146.000,295.200 146.000 C 295.420 146.000,295.600 146.720,295.600 147.600 C 295.600 148.480,295.780 149.200,296.000 149.200 C 296.220 149.200,296.400 149.999,296.400 150.976 C 296.400 151.953,296.580 152.864,296.800 153.000 C 297.029 153.142,297.200 155.204,297.200 157.824 C 297.200 160.608,297.357 162.400,297.600 162.400 C 297.864 162.400,298.000 175.200,298.000 200.000 C 298.000 224.800,297.864 237.600,297.600 237.600 C 297.357 237.600,297.200 239.392,297.200 242.176 C 297.200 244.796,297.029 246.858,296.800 247.000 C 296.580 247.136,296.400 248.036,296.400 249.000 C 296.400 249.964,296.220 250.864,296.000 251.000 C 295.780 251.136,295.600 251.867,295.600 252.624 C 295.600 253.381,295.420 254.000,295.200 254.000 C 294.980 254.000,294.800 254.540,294.800 255.200 C 294.800 255.860,294.620 256.400,294.400 256.400 C 294.180 256.400,294.000 256.940,294.000 257.600 C 294.000 258.260,293.820 258.800,293.600 258.800 C 293.380 258.800,293.200 259.160,293.200 259.600 C 293.200 260.040,293.020 260.400,292.800 260.400 C 292.580 260.400,292.400 260.760,292.400 261.200 C 292.400 261.640,292.220 262.000,292.000 262.000 C 291.780 262.000,291.600 262.332,291.600 262.739 C 291.600 263.587,290.532 265.871,289.974 266.216 C 289.767 266.344,289.247 267.218,288.819 268.159 C 288.390 269.100,287.761 270.101,287.420 270.384 C 287.079 270.666,286.800 271.115,286.800 271.379 C 286.800 271.644,286.350 272.283,285.800 272.800 C 285.250 273.317,284.800 273.931,284.800 274.164 C 284.800 274.726,274.737 284.800,274.175 284.800 C 273.936 284.800,273.317 285.250,272.800 285.800 C 272.283 286.350,271.644 286.800,271.379 286.800 C 271.115 286.800,270.666 287.079,270.384 287.420 C 270.101 287.761,269.100 288.390,268.159 288.819 C 267.218 289.247,266.344 289.767,266.216 289.974 C 265.871 290.532,263.587 291.600,262.739 291.600 C 262.332 291.600,262.000 291.780,262.000 292.000 C 262.000 292.220,261.640 292.400,261.200 292.400 C 260.760 292.400,260.400 292.580,260.400 292.800 C 260.400 293.020,260.040 293.200,259.600 293.200 C 259.160 293.200,258.800 293.380,258.800 293.600 C 258.800 293.820,258.260 294.000,257.600 294.000 C 256.940 294.000,256.400 294.180,256.400 294.400 C 256.400 294.620,255.860 294.800,255.200 294.800 C 254.540 294.800,254.000 294.980,254.000 295.200 C 254.000 295.420,253.381 295.600,252.624 295.600 C 251.867 295.600,251.136 295.780,251.000 296.000 C 250.864 296.220,249.964 296.400,249.000 296.400 C 248.036 296.400,247.136 296.580,247.000 296.800 C 246.861 297.025,244.929 297.200,242.576 297.200 C 240.059 297.200,238.400 297.359,238.400 297.600 C 238.400 297.864,225.467 298.000,200.400 298.000 C 175.333 298.000,162.400 297.864,162.400 297.600 C 162.400 297.357,160.608 297.200,157.824 297.200 C 155.204 297.200,153.142 297.029,153.000 296.800 C 152.864 296.580,151.953 296.400,150.976 296.400 C 149.999 296.400,149.200 296.220,149.200 296.000 C 149.200 295.780,148.480 295.600,147.600 295.600 C 146.720 295.600,146.000 295.420,146.000 295.200 C 146.000 294.980,145.460 294.800,144.800 294.800 C 144.140 294.800,143.600 294.620,143.600 294.400 C 143.600 294.180,143.161 294.000,142.624 294.000 C 142.087 294.000,141.536 293.820,141.400 293.600 C 141.264 293.380,140.818 293.200,140.410 293.200 C 140.001 293.200,139.607 293.059,139.533 292.887 C 139.460 292.715,137.297 291.533,134.727 290.261 C 132.157 288.988,129.840 287.689,129.578 287.374 C 129.316 287.058,128.885 286.800,128.621 286.800 C 128.356 286.800,127.717 286.350,127.200 285.800 C 126.683 285.250,126.059 284.800,125.812 284.800 C 125.261 284.800,115.600 275.089,115.600 274.536 C 115.600 274.318,115.135 273.703,114.566 273.170 C 113.997 272.636,113.187 271.446,112.767 270.524 C 112.346 269.603,111.839 268.747,111.639 268.624 C 111.439 268.500,110.409 266.644,109.351 264.500 C 108.292 262.355,107.285 260.540,107.113 260.467 C 106.941 260.393,106.800 259.934,106.800 259.446 C 106.800 258.419,105.941 256.408,105.500 256.403 C 105.335 256.401,105.200 255.680,105.200 254.800 C 105.200 253.920,105.020 253.200,104.800 253.200 C 104.580 253.200,104.400 252.581,104.400 251.824 C 104.400 251.067,104.220 250.336,104.000 250.200 C 103.780 250.064,103.600 249.164,103.600 248.200 C 103.600 247.236,103.420 246.336,103.200 246.200 C 102.937 246.038,102.800 230.204,102.800 200.000 C 102.800 169.796,102.937 153.962,103.200 153.800 C 103.420 153.664,103.600 152.753,103.600 151.776 C 103.600 150.799,103.780 150.000,104.000 150.000 C 104.220 150.000,104.400 149.280,104.400 148.400 C 104.400 147.520,104.580 146.800,104.800 146.800 C 105.020 146.800,105.200 146.265,105.200 145.612 C 105.200 144.959,105.560 143.783,106.000 143.000 C 106.440 142.217,106.800 141.357,106.800 141.091 C 106.800 140.224,111.297 131.537,111.857 131.323 C 112.156 131.208,112.400 130.775,112.400 130.361 C 112.400 129.946,112.760 129.382,113.200 129.107 C 113.640 128.832,114.000 128.363,114.000 128.064 C 114.000 127.765,114.540 127.017,115.200 126.400 C 115.860 125.783,116.400 125.039,116.400 124.747 C 116.400 124.042,124.029 116.400,124.732 116.400 C 125.033 116.400,125.783 115.860,126.400 115.200 C 127.017 114.540,127.765 114.000,128.064 114.000 C 128.363 114.000,128.832 113.640,129.107 113.200 C 129.382 112.760,129.946 112.400,130.361 112.400 C 130.775 112.400,131.208 112.156,131.323 111.857 C 131.537 111.297,140.224 106.800,141.091 106.800 C 141.357 106.800,142.217 106.440,143.000 106.000 C 143.783 105.560,144.959 105.200,145.612 105.200 C 146.265 105.200,146.800 105.020,146.800 104.800 C 146.800 104.580,147.520 104.400,148.400 104.400 C 149.280 104.400,150.000 104.220,150.000 104.000 C 150.000 103.780,150.799 103.600,151.776 103.600 C 152.753 103.600,153.664 103.420,153.800 103.200 C 153.962 102.937,169.796 102.800,200.000 102.800 C 230.204 102.800,246.038 102.937,246.200 103.200 M161.200 124.000 C 161.200 124.233,159.867 124.400,158.000 124.400 C 156.133 124.400,154.800 124.567,154.800 124.800 C 154.800 125.020,154.181 125.200,153.424 125.200 C 152.667 125.200,151.936 125.380,151.800 125.600 C 151.664 125.820,151.124 126.000,150.600 126.000 C 150.076 126.000,149.536 126.180,149.400 126.400 C 149.264 126.620,148.850 126.800,148.480 126.800 C 147.594 126.800,142.205 129.472,141.585 130.218 C 141.319 130.538,140.891 130.800,140.632 130.800 C 140.374 130.800,139.459 131.520,138.600 132.400 C 137.741 133.280,136.859 134.000,136.641 134.000 C 136.089 134.000,134.000 136.052,134.000 136.594 C 134.000 136.838,133.280 137.741,132.400 138.600 C 131.520 139.459,130.800 140.374,130.800 140.632 C 130.800 140.891,130.538 141.319,130.218 141.585 C 129.472 142.205,126.800 147.594,126.800 148.480 C 126.800 148.850,126.620 149.264,126.400 149.400 C 126.180 149.536,126.000 150.076,126.000 150.600 C 126.000 151.124,125.820 151.664,125.600 151.800 C 125.380 151.936,125.200 152.667,125.200 153.424 C 125.200 154.181,125.020 154.800,124.800 154.800 C 124.567 154.800,124.400 156.133,124.400 158.000 C 124.400 159.867,124.233 161.200,124.000 161.200 C 123.736 161.200,123.600 174.392,123.600 199.976 C 123.600 225.396,123.738 238.838,124.000 239.000 C 124.220 239.136,124.400 240.587,124.400 242.224 C 124.400 243.941,124.569 245.200,124.800 245.200 C 125.020 245.200,125.200 245.920,125.200 246.800 C 125.200 247.680,125.380 248.400,125.600 248.400 C 125.820 248.400,126.000 248.839,126.000 249.376 C 126.000 249.913,126.180 250.464,126.400 250.600 C 126.620 250.736,126.800 251.150,126.800 251.520 C 126.800 252.406,129.472 257.795,130.218 258.415 C 130.538 258.681,130.800 259.112,130.800 259.374 C 130.800 259.636,131.340 260.368,132.000 261.000 C 132.660 261.632,133.200 262.348,133.200 262.590 C 133.200 263.143,136.882 266.800,137.439 266.800 C 137.665 266.800,138.368 267.340,139.000 268.000 C 139.632 268.660,140.364 269.200,140.626 269.200 C 140.888 269.200,141.319 269.462,141.585 269.782 C 142.205 270.528,147.594 273.200,148.480 273.200 C 148.850 273.200,149.264 273.380,149.400 273.600 C 149.536 273.820,150.076 274.000,150.600 274.000 C 151.124 274.000,151.664 274.180,151.800 274.400 C 151.936 274.620,152.487 274.800,153.024 274.800 C 153.561 274.800,154.000 274.980,154.000 275.200 C 154.000 275.433,155.333 275.600,157.200 275.600 C 159.067 275.600,160.400 275.767,160.400 276.000 C 160.400 276.264,173.867 276.400,200.000 276.400 C 226.133 276.400,239.600 276.264,239.600 276.000 C 239.600 275.767,240.933 275.600,242.800 275.600 C 244.667 275.600,246.000 275.433,246.000 275.200 C 246.000 274.980,246.720 274.800,247.600 274.800 C 248.480 274.800,249.201 274.665,249.203 274.500 C 249.207 274.167,251.121 273.200,251.776 273.200 C 252.470 273.200,257.897 270.406,258.415 269.782 C 258.681 269.462,259.118 269.200,259.387 269.200 C 259.656 269.200,260.202 268.840,260.600 268.400 C 260.998 267.960,261.527 267.600,261.775 267.600 C 262.337 267.600,266.800 263.127,266.800 262.563 C 266.800 262.336,267.340 261.632,268.000 261.000 C 268.660 260.368,269.200 259.636,269.200 259.374 C 269.200 259.112,269.460 258.682,269.777 258.419 C 270.534 257.791,274.000 250.796,274.000 249.897 C 274.000 249.514,274.180 249.200,274.400 249.200 C 274.620 249.200,274.800 248.480,274.800 247.600 C 274.800 246.720,274.980 246.000,275.200 246.000 C 275.429 246.000,275.600 244.800,275.600 243.200 C 275.600 241.600,275.771 240.400,276.000 240.400 C 276.264 240.400,276.400 226.667,276.400 200.000 C 276.400 173.333,276.264 159.600,276.000 159.600 C 275.771 159.600,275.600 158.400,275.600 156.800 C 275.600 155.200,275.429 154.000,275.200 154.000 C 274.980 154.000,274.800 153.561,274.800 153.024 C 274.800 152.487,274.620 151.936,274.400 151.800 C 274.180 151.664,274.000 151.124,274.000 150.600 C 274.000 150.076,273.820 149.536,273.600 149.400 C 273.380 149.264,273.200 148.850,273.200 148.480 C 273.200 147.594,270.528 142.205,269.782 141.585 C 269.462 141.319,269.200 140.888,269.200 140.626 C 269.200 140.364,268.660 139.632,268.000 139.000 C 267.340 138.368,266.800 137.651,266.800 137.406 C 266.800 136.858,263.917 134.000,263.364 134.000 C 263.143 134.000,262.259 133.280,261.400 132.400 C 260.541 131.520,259.626 130.800,259.368 130.800 C 259.109 130.800,258.681 130.538,258.415 130.218 C 257.795 129.472,252.406 126.800,251.520 126.800 C 251.150 126.800,250.736 126.620,250.600 126.400 C 250.464 126.180,249.913 126.000,249.376 126.000 C 248.839 126.000,248.400 125.820,248.400 125.600 C 248.400 125.380,247.680 125.200,246.800 125.200 C 245.920 125.200,245.200 125.020,245.200 124.800 C 245.200 124.569,243.941 124.400,242.224 124.400 C 240.587 124.400,239.136 124.220,239.000 124.000 C 238.838 123.738,225.396 123.600,199.976 123.600 C 174.392 123.600,161.200 123.736,161.200 124.000 M254.800 139.200 C 254.800 139.420,255.120 139.600,255.512 139.600 C 255.903 139.600,256.483 139.960,256.800 140.400 C 257.117 140.840,257.697 141.200,258.088 141.200 C 258.504 141.200,258.800 141.496,258.800 141.912 C 258.800 142.303,259.160 142.883,259.600 143.200 C 262.404 145.221,258.805 154.800,255.241 154.800 C 254.804 154.800,254.336 154.980,254.200 155.200 C 253.083 157.007,246.549 153.785,244.990 150.659 C 244.324 149.325,244.175 144.400,244.800 144.400 C 245.020 144.400,245.200 144.125,245.200 143.789 C 245.200 142.902,248.641 139.600,249.566 139.600 C 249.999 139.600,250.464 139.420,250.600 139.200 C 250.736 138.980,251.737 138.800,252.824 138.800 C 253.911 138.800,254.800 138.980,254.800 139.200 M207.800 150.800 C 207.936 151.020,208.836 151.200,209.800 151.200 C 210.764 151.200,211.664 151.380,211.800 151.600 C 211.936 151.820,212.656 152.000,213.400 152.000 C 214.144 152.000,214.864 152.180,215.000 152.400 C 215.136 152.620,215.687 152.800,216.224 152.800 C 216.761 152.800,217.200 152.980,217.200 153.200 C 217.200 153.420,217.560 153.600,218.000 153.600 C 218.440 153.600,218.800 153.780,218.800 154.000 C 218.800 154.220,219.160 154.400,219.600 154.400 C 220.040 154.400,220.400 154.580,220.400 154.800 C 220.400 155.020,220.760 155.200,221.200 155.200 C 221.640 155.200,222.001 155.335,222.003 155.500 C 222.007 155.859,223.944 156.800,224.680 156.800 C 224.966 156.800,225.200 156.980,225.200 157.200 C 225.200 157.420,225.520 157.600,225.912 157.600 C 226.303 157.600,226.883 157.960,227.200 158.400 C 227.517 158.840,228.007 159.200,228.289 159.200 C 228.571 159.200,229.453 159.920,230.248 160.800 C 231.043 161.680,231.892 162.400,232.136 162.400 C 232.708 162.400,237.600 167.241,237.600 167.807 C 237.600 168.044,238.320 168.941,239.200 169.800 C 240.080 170.659,240.800 171.594,240.800 171.878 C 240.800 172.161,241.160 172.618,241.600 172.893 C 242.040 173.168,242.400 173.709,242.400 174.096 C 242.400 174.483,242.580 174.800,242.800 174.800 C 243.020 174.800,243.200 175.160,243.200 175.600 C 243.200 176.040,243.380 176.400,243.600 176.400 C 243.820 176.400,244.000 176.760,244.000 177.200 C 244.000 177.640,244.180 178.000,244.400 178.000 C 244.620 178.000,244.800 178.360,244.800 178.800 C 244.800 179.240,244.980 179.600,245.200 179.600 C 245.420 179.600,245.600 179.960,245.600 180.400 C 245.600 180.840,245.780 181.200,246.000 181.200 C 246.220 181.200,246.400 181.560,246.400 182.000 C 246.400 182.440,246.580 182.800,246.800 182.800 C 247.020 182.800,247.200 183.239,247.200 183.776 C 247.200 184.313,247.380 184.864,247.600 185.000 C 247.820 185.136,248.000 185.856,248.000 186.600 C 248.000 187.344,248.180 188.064,248.400 188.200 C 248.620 188.336,248.800 189.236,248.800 190.200 C 248.800 191.164,248.980 192.064,249.200 192.200 C 249.444 192.351,249.600 195.396,249.600 200.000 C 249.600 204.604,249.444 207.649,249.200 207.800 C 248.980 207.936,248.800 208.836,248.800 209.800 C 248.800 210.764,248.620 211.664,248.400 211.800 C 248.180 211.936,248.000 212.656,248.000 213.400 C 248.000 214.144,247.820 214.864,247.600 215.000 C 247.380 215.136,247.200 215.561,247.200 215.944 C 247.200 216.819,246.301 218.793,245.900 218.797 C 245.735 218.799,245.600 219.160,245.600 219.600 C 245.600 220.040,245.420 220.400,245.200 220.400 C 244.980 220.400,244.800 220.760,244.800 221.200 C 244.800 221.640,244.620 222.000,244.400 222.000 C 244.180 222.000,244.000 222.360,244.000 222.800 C 244.000 223.240,243.820 223.600,243.600 223.600 C 243.380 223.600,243.200 223.960,243.200 224.400 C 243.200 224.840,243.020 225.200,242.800 225.200 C 242.580 225.200,242.400 225.520,242.400 225.912 C 242.400 226.303,242.040 226.883,241.600 227.200 C 241.160 227.517,240.800 228.012,240.800 228.301 C 240.800 228.589,240.080 229.487,239.200 230.296 C 238.320 231.105,237.600 231.950,237.600 232.173 C 237.600 232.717,232.738 237.600,232.195 237.600 C 231.960 237.600,231.105 238.320,230.296 239.200 C 229.487 240.080,228.589 240.800,228.301 240.800 C 228.012 240.800,227.517 241.160,227.200 241.600 C 226.883 242.040,226.303 242.400,225.912 242.400 C 225.520 242.400,225.200 242.580,225.200 242.800 C 225.200 243.020,224.840 243.200,224.400 243.200 C 223.960 243.200,223.600 243.380,223.600 243.600 C 223.600 243.820,223.240 244.000,222.800 244.000 C 222.360 244.000,222.000 244.180,222.000 244.400 C 222.000 244.620,221.640 244.800,221.200 244.800 C 220.760 244.800,220.400 244.980,220.400 245.200 C 220.400 245.420,220.040 245.600,219.600 245.600 C 219.160 245.600,218.799 245.735,218.797 245.900 C 218.793 246.301,216.819 247.200,215.944 247.200 C 215.561 247.200,215.136 247.380,215.000 247.600 C 214.864 247.820,214.144 248.000,213.400 248.000 C 212.656 248.000,211.936 248.180,211.800 248.400 C 211.664 248.620,210.764 248.800,209.800 248.800 C 208.836 248.800,207.936 248.980,207.800 249.200 C 207.649 249.444,204.604 249.600,200.000 249.600 C 195.396 249.600,192.351 249.444,192.200 249.200 C 192.064 248.980,191.164 248.800,190.200 248.800 C 189.236 248.800,188.336 248.620,188.200 248.400 C 188.064 248.180,187.344 248.000,186.600 248.000 C 185.856 248.000,185.136 247.820,185.000 247.600 C 184.864 247.380,184.313 247.200,183.776 247.200 C 183.239 247.200,182.800 247.020,182.800 246.800 C 182.800 246.580,182.440 246.400,182.000 246.400 C 181.560 246.400,181.200 246.220,181.200 246.000 C 181.200 245.780,180.840 245.600,180.400 245.600 C 179.960 245.600,179.600 245.420,179.600 245.200 C 179.600 244.980,179.240 244.800,178.800 244.800 C 178.360 244.800,178.000 244.620,178.000 244.400 C 178.000 244.180,177.640 244.000,177.200 244.000 C 176.760 244.000,176.400 243.820,176.400 243.600 C 176.400 243.380,176.040 243.200,175.600 243.200 C 175.160 243.200,174.800 243.020,174.800 242.800 C 174.800 242.580,174.483 242.400,174.096 242.400 C 173.709 242.400,173.168 242.040,172.893 241.600 C 172.618 241.160,172.161 240.800,171.878 240.800 C 171.594 240.800,170.659 240.080,169.800 239.200 C 168.941 238.320,168.054 237.600,167.830 237.600 C 167.261 237.600,162.400 232.728,162.400 232.158 C 162.400 231.902,161.680 231.043,160.800 230.248 C 159.920 229.453,159.200 228.571,159.200 228.289 C 159.200 228.007,158.840 227.517,158.400 227.200 C 157.960 226.883,157.600 226.303,157.600 225.912 C 157.600 225.520,157.420 225.200,157.200 225.200 C 156.980 225.200,156.800 224.966,156.800 224.680 C 156.800 223.944,155.859 222.007,155.500 222.003 C 155.335 222.001,155.200 221.640,155.200 221.200 C 155.200 220.760,155.020 220.400,154.800 220.400 C 154.580 220.400,154.400 220.040,154.400 219.600 C 154.400 219.160,154.220 218.800,154.000 218.800 C 153.780 218.800,153.600 218.440,153.600 218.000 C 153.600 217.560,153.420 217.200,153.200 217.200 C 152.980 217.200,152.800 216.761,152.800 216.224 C 152.800 215.687,152.620 215.136,152.400 215.000 C 152.180 214.864,152.000 214.144,152.000 213.400 C 152.000 212.656,151.820 211.936,151.600 211.800 C 151.380 211.664,151.200 210.764,151.200 209.800 C 151.200 208.836,151.020 207.936,150.800 207.800 C 150.556 207.649,150.400 204.604,150.400 200.000 C 150.400 195.396,150.556 192.351,150.800 192.200 C 151.020 192.064,151.200 191.164,151.200 190.200 C 151.200 189.236,151.380 188.336,151.600 188.200 C 151.820 188.064,152.000 187.333,152.000 186.576 C 152.000 185.819,152.180 185.200,152.400 185.200 C 152.620 185.200,152.800 184.845,152.800 184.412 C 152.800 183.979,153.160 182.983,153.600 182.200 C 154.040 181.417,154.400 180.526,154.400 180.221 C 154.400 179.916,154.535 179.607,154.700 179.533 C 155.132 179.341,156.800 176.028,156.800 175.362 C 156.800 175.053,156.980 174.800,157.200 174.800 C 157.420 174.800,157.600 174.558,157.600 174.262 C 157.600 173.966,157.960 173.398,158.400 173.000 C 158.840 172.602,159.200 172.070,159.200 171.819 C 159.200 171.568,159.920 170.659,160.800 169.800 C 161.680 168.941,162.400 168.054,162.400 167.830 C 162.400 167.282,167.262 162.400,167.807 162.400 C 168.044 162.400,168.941 161.680,169.800 160.800 C 170.659 159.920,171.568 159.200,171.819 159.200 C 172.070 159.200,172.602 158.840,173.000 158.400 C 173.398 157.960,173.966 157.600,174.262 157.600 C 174.558 157.600,174.800 157.420,174.800 157.200 C 174.800 156.980,175.053 156.800,175.362 156.800 C 176.028 156.800,179.341 155.132,179.533 154.700 C 179.607 154.535,179.916 154.400,180.221 154.400 C 180.526 154.400,181.417 154.040,182.200 153.600 C 182.983 153.160,183.979 152.800,184.412 152.800 C 184.845 152.800,185.200 152.620,185.200 152.400 C 185.200 152.180,185.819 152.000,186.576 152.000 C 187.333 152.000,188.064 151.820,188.200 151.600 C 188.336 151.380,189.236 151.200,190.200 151.200 C 191.164 151.200,192.064 151.020,192.200 150.800 C 192.351 150.556,195.396 150.400,200.000 150.400 C 204.604 150.400,207.649 150.556,207.800 150.800 M194.000 170.000 C 194.000 170.220,193.381 170.400,192.624 170.400 C 191.867 170.400,191.136 170.580,191.000 170.800 C 190.864 171.020,190.450 171.200,190.080 171.200 C 189.194 171.200,183.805 173.872,183.185 174.618 C 182.919 174.938,182.495 175.200,182.242 175.200 C 181.654 175.200,175.200 181.670,175.200 182.259 C 175.200 182.503,174.938 182.919,174.618 183.185 C 173.872 183.805,171.200 189.194,171.200 190.080 C 171.200 190.450,171.020 190.864,170.800 191.000 C 170.580 191.136,170.400 191.867,170.400 192.624 C 170.400 193.381,170.220 194.000,170.000 194.000 C 169.751 194.000,169.600 196.267,169.600 200.000 C 169.600 203.733,169.751 206.000,170.000 206.000 C 170.220 206.000,170.400 206.720,170.400 207.600 C 170.400 208.480,170.580 209.200,170.800 209.200 C 171.020 209.200,171.200 209.725,171.200 210.367 C 171.200 211.008,171.342 211.593,171.515 211.667 C 171.688 211.740,172.322 212.816,172.924 214.059 C 173.526 215.301,174.284 216.538,174.609 216.808 C 174.934 217.077,175.200 217.505,175.200 217.758 C 175.200 218.346,181.670 224.800,182.259 224.800 C 182.503 224.800,182.923 225.066,183.192 225.391 C 183.462 225.716,184.699 226.474,185.941 227.076 C 187.184 227.678,188.260 228.312,188.333 228.485 C 188.407 228.658,188.992 228.800,189.633 228.800 C 190.275 228.800,190.800 228.980,190.800 229.200 C 190.800 229.420,191.520 229.600,192.400 229.600 C 193.280 229.600,194.000 229.780,194.000 230.000 C 194.000 230.249,196.267 230.400,200.000 230.400 C 203.733 230.400,206.000 230.249,206.000 230.000 C 206.000 229.780,206.720 229.600,207.600 229.600 C 208.480 229.600,209.200 229.420,209.200 229.200 C 209.200 228.980,209.740 228.800,210.400 228.800 C 211.060 228.800,211.600 228.620,211.600 228.400 C 211.600 228.180,211.960 228.000,212.400 228.000 C 212.840 228.000,213.200 227.820,213.200 227.600 C 213.200 227.380,213.560 227.200,214.000 227.200 C 214.440 227.200,214.800 227.020,214.800 226.800 C 214.800 226.580,215.117 226.400,215.504 226.400 C 215.891 226.400,216.432 226.040,216.707 225.600 C 216.982 225.160,217.434 224.800,217.712 224.800 C 218.359 224.800,224.800 218.344,224.800 217.695 C 224.800 217.426,225.160 216.982,225.600 216.707 C 226.040 216.432,226.400 215.891,226.400 215.504 C 226.400 215.117,226.580 214.800,226.800 214.800 C 227.020 214.800,227.200 214.440,227.200 214.000 C 227.200 213.560,227.380 213.200,227.600 213.200 C 227.820 213.200,228.000 212.840,228.000 212.400 C 228.000 211.960,228.180 211.600,228.400 211.600 C 228.620 211.600,228.800 211.060,228.800 210.400 C 228.800 209.740,228.980 209.200,229.200 209.200 C 229.420 209.200,229.600 208.480,229.600 207.600 C 229.600 206.720,229.780 206.000,230.000 206.000 C 230.249 206.000,230.400 203.733,230.400 200.000 C 230.400 196.267,230.249 194.000,230.000 194.000 C 229.780 194.000,229.600 193.280,229.600 192.400 C 229.600 191.520,229.420 190.800,229.200 190.800 C 228.980 190.800,228.800 190.275,228.800 189.633 C 228.800 188.992,228.658 188.407,228.485 188.333 C 228.312 188.260,227.678 187.184,227.076 185.941 C 226.474 184.699,225.716 183.462,225.391 183.192 C 225.066 182.923,224.800 182.495,224.800 182.242 C 224.800 181.654,218.330 175.200,217.741 175.200 C 217.497 175.200,217.077 174.934,216.808 174.609 C 216.538 174.284,215.301 173.526,214.059 172.924 C 212.816 172.322,211.740 171.688,211.667 171.515 C 211.593 171.342,211.008 171.200,210.367 171.200 C 209.725 171.200,209.200 171.020,209.200 170.800 C 209.200 170.580,208.480 170.400,207.600 170.400 C 206.720 170.400,206.000 170.220,206.000 170.000 C 206.000 169.751,203.733 169.600,200.000 169.600 C 196.267 169.600,194.000 169.751,194.000 170.000 " stroke="none" fill="#fcfcfc" fill-rule="evenodd"></path><path id="path1" d="M154.000 103.600 C 154.000 103.820,153.100 104.000,152.000 104.000 C 150.900 104.000,150.000 104.180,150.000 104.400 C 150.000 104.620,149.381 104.800,148.624 104.800 C 147.867 104.800,147.136 104.980,147.000 105.200 C 146.864 105.420,146.229 105.600,145.589 105.600 C 144.948 105.600,143.783 105.960,143.000 106.400 C 142.217 106.840,141.357 107.200,141.091 107.200 C 140.824 107.200,138.624 108.208,136.203 109.439 C 130.560 112.309,130.153 112.538,129.271 113.336 C 128.867 113.701,128.360 114.000,128.143 114.000 C 127.927 114.000,127.232 114.540,126.600 115.200 C 125.968 115.860,125.302 116.400,125.121 116.400 C 124.939 116.400,122.903 118.288,120.595 120.595 C 118.288 122.903,116.400 124.939,116.400 125.121 C 116.400 125.302,115.860 125.968,115.200 126.600 C 114.540 127.232,114.000 127.927,114.000 128.143 C 114.000 128.360,113.701 128.867,113.336 129.271 C 112.538 130.153,112.309 130.560,109.439 136.203 C 108.208 138.624,107.200 140.824,107.200 141.091 C 107.200 141.357,106.840 142.217,106.400 143.000 C 105.960 143.783,105.600 144.948,105.600 145.589 C 105.600 146.229,105.420 146.864,105.200 147.000 C 104.980 147.136,104.800 147.867,104.800 148.624 C 104.800 149.381,104.620 150.000,104.400 150.000 C 104.180 150.000,104.000 150.900,104.000 152.000 C 104.000 153.100,103.820 154.000,103.600 154.000 C 103.336 154.000,103.200 169.600,103.200 200.000 C 103.200 230.400,103.336 246.000,103.600 246.000 C 103.820 246.000,104.000 246.900,104.000 248.000 C 104.000 249.100,104.180 250.000,104.400 250.000 C 104.620 250.000,104.800 250.720,104.800 251.600 C 104.800 252.480,104.980 253.200,105.200 253.200 C 105.420 253.200,105.600 253.735,105.600 254.388 C 105.600 255.041,105.960 256.217,106.400 257.000 C 106.840 257.783,107.200 258.643,107.200 258.909 C 107.200 259.332,109.730 264.496,112.600 269.934 C 113.104 270.888,113.985 272.158,114.558 272.756 C 115.131 273.354,115.600 274.005,115.600 274.201 C 115.600 274.709,125.312 284.392,125.825 284.396 C 126.059 284.398,126.768 284.940,127.400 285.600 C 128.032 286.260,128.764 286.800,129.026 286.800 C 129.288 286.800,129.729 287.073,130.006 287.407 C 130.283 287.741,131.160 288.305,131.955 288.659 C 132.750 289.014,135.381 290.270,137.803 291.452 C 140.224 292.633,142.509 293.600,142.879 293.600 C 143.250 293.600,143.664 293.780,143.800 294.000 C 143.936 294.220,144.476 294.400,145.000 294.400 C 145.524 294.400,146.064 294.580,146.200 294.800 C 146.336 295.020,147.067 295.200,147.824 295.200 C 148.581 295.200,149.200 295.380,149.200 295.600 C 149.200 295.820,150.100 296.000,151.200 296.000 C 152.300 296.000,153.200 296.180,153.200 296.400 C 153.200 296.643,154.992 296.800,157.776 296.800 C 160.396 296.800,162.458 296.971,162.600 297.200 C 162.762 297.462,175.796 297.600,200.400 297.600 C 225.004 297.600,238.038 297.462,238.200 297.200 C 238.339 296.975,240.263 296.800,242.600 296.800 C 244.937 296.800,246.861 296.625,247.000 296.400 C 247.136 296.180,248.047 296.000,249.024 296.000 C 250.001 296.000,250.800 295.820,250.800 295.600 C 250.800 295.380,251.520 295.200,252.400 295.200 C 253.280 295.200,254.000 295.020,254.000 294.800 C 254.000 294.580,254.439 294.400,254.976 294.400 C 255.513 294.400,256.064 294.220,256.200 294.000 C 256.336 293.780,256.778 293.600,257.183 293.600 C 257.588 293.600,258.945 293.060,260.200 292.400 C 261.455 291.740,262.778 291.187,263.141 291.171 C 263.503 291.155,264.340 290.801,265.000 290.385 C 265.660 289.968,266.936 289.270,267.835 288.834 C 268.734 288.397,269.701 287.761,269.984 287.420 C 270.266 287.079,270.712 286.800,270.974 286.800 C 271.236 286.800,271.968 286.260,272.600 285.600 C 273.232 284.940,273.944 284.400,274.181 284.400 C 274.736 284.400,284.400 274.725,284.400 274.169 C 284.400 273.938,284.940 273.232,285.600 272.600 C 286.260 271.968,286.800 271.236,286.800 270.974 C 286.800 270.712,287.079 270.266,287.420 269.984 C 287.761 269.701,288.397 268.734,288.834 267.835 C 289.270 266.936,289.968 265.660,290.385 265.000 C 290.801 264.340,291.155 263.503,291.171 263.141 C 291.187 262.778,291.740 261.455,292.400 260.200 C 293.060 258.945,293.600 257.588,293.600 257.183 C 293.600 256.778,293.780 256.336,294.000 256.200 C 294.220 256.064,294.400 255.513,294.400 254.976 C 294.400 254.439,294.580 254.000,294.800 254.000 C 295.020 254.000,295.200 253.280,295.200 252.400 C 295.200 251.520,295.380 250.800,295.600 250.800 C 295.820 250.800,296.000 250.001,296.000 249.024 C 296.000 248.047,296.180 247.136,296.400 247.000 C 296.629 246.858,296.800 244.796,296.800 242.176 C 296.800 239.392,296.957 237.600,297.200 237.600 C 297.464 237.600,297.600 224.875,297.600 200.224 C 297.600 175.737,297.462 162.762,297.200 162.600 C 296.971 162.458,296.800 160.396,296.800 157.776 C 296.800 154.992,296.643 153.200,296.400 153.200 C 296.180 153.200,296.000 152.300,296.000 151.200 C 296.000 150.100,295.820 149.200,295.600 149.200 C 295.380 149.200,295.200 148.581,295.200 147.824 C 295.200 147.067,295.020 146.336,294.800 146.200 C 294.580 146.064,294.400 145.524,294.400 145.000 C 294.400 144.476,294.220 143.936,294.000 143.800 C 293.780 143.664,293.600 143.250,293.600 142.879 C 293.600 142.509,292.633 140.224,291.452 137.803 C 290.270 135.381,289.014 132.750,288.659 131.955 C 288.305 131.160,287.741 130.283,287.407 130.006 C 287.073 129.729,286.800 129.288,286.800 129.026 C 286.800 128.764,286.260 128.032,285.600 127.400 C 284.940 126.768,284.400 126.068,284.400 125.846 C 284.400 125.336,274.734 115.609,274.222 115.604 C 274.014 115.602,273.350 115.127,272.747 114.550 C 271.439 113.297,271.631 113.406,263.917 109.500 C 260.551 107.795,257.492 106.400,257.121 106.400 C 256.751 106.400,256.336 106.220,256.200 106.000 C 256.064 105.780,255.333 105.600,254.576 105.600 C 253.819 105.600,253.200 105.420,253.200 105.200 C 253.200 104.980,252.480 104.800,251.600 104.800 C 250.720 104.800,250.000 104.620,250.000 104.400 C 250.000 104.180,249.100 104.000,248.000 104.000 C 246.900 104.000,246.000 103.820,246.000 103.600 C 246.000 103.336,230.400 103.200,200.000 103.200 C 169.600 103.200,154.000 103.336,154.000 103.600 M239.000 123.600 C 239.136 123.820,240.486 124.000,242.000 124.000 C 243.514 124.000,244.864 124.180,245.000 124.400 C 245.136 124.620,245.856 124.800,246.600 124.800 C 247.344 124.800,248.064 124.980,248.200 125.200 C 248.336 125.420,248.876 125.600,249.400 125.600 C 249.924 125.600,250.464 125.780,250.600 126.000 C 250.736 126.220,251.150 126.400,251.520 126.400 C 252.406 126.400,257.795 129.072,258.415 129.818 C 258.681 130.138,259.109 130.400,259.368 130.400 C 259.626 130.400,260.541 131.120,261.400 132.000 C 262.259 132.880,263.144 133.600,263.366 133.600 C 263.919 133.600,267.200 136.860,267.200 137.408 C 267.200 137.651,267.740 138.368,268.400 139.000 C 269.060 139.632,269.600 140.364,269.600 140.626 C 269.600 140.888,269.862 141.319,270.182 141.585 C 270.928 142.205,273.600 147.594,273.600 148.480 C 273.600 148.850,273.780 149.264,274.000 149.400 C 274.220 149.536,274.400 150.076,274.400 150.600 C 274.400 151.124,274.580 151.664,274.800 151.800 C 275.020 151.936,275.200 152.487,275.200 153.024 C 275.200 153.561,275.380 154.000,275.600 154.000 C 275.825 154.000,276.000 155.125,276.000 156.576 C 276.000 157.993,276.180 159.264,276.400 159.400 C 276.662 159.562,276.800 173.530,276.800 200.000 C 276.800 226.470,276.662 240.438,276.400 240.600 C 276.180 240.736,276.000 242.007,276.000 243.424 C 276.000 244.875,275.825 246.000,275.600 246.000 C 275.380 246.000,275.200 246.619,275.200 247.376 C 275.200 248.133,275.020 248.864,274.800 249.000 C 274.580 249.136,274.400 249.762,274.400 250.390 C 274.400 251.019,274.259 251.593,274.086 251.667 C 273.914 251.740,273.096 253.180,272.269 254.866 C 271.441 256.552,270.502 258.149,270.182 258.415 C 269.862 258.681,269.600 259.112,269.600 259.374 C 269.600 259.636,269.060 260.368,268.400 261.000 C 267.740 261.632,267.200 262.336,267.200 262.564 C 267.200 263.128,262.336 268.000,261.774 268.000 C 261.526 268.000,260.998 268.360,260.600 268.800 C 260.202 269.240,259.656 269.600,259.387 269.600 C 259.118 269.600,258.681 269.862,258.415 270.182 C 257.787 270.939,252.400 273.600,251.496 273.600 C 251.113 273.600,250.800 273.780,250.800 274.000 C 250.800 274.220,250.451 274.400,250.024 274.400 C 249.597 274.400,249.136 274.580,249.000 274.800 C 248.864 275.020,248.133 275.200,247.376 275.200 C 246.619 275.200,246.000 275.380,246.000 275.600 C 246.000 275.831,244.741 276.000,243.024 276.000 C 241.387 276.000,239.936 276.180,239.800 276.400 C 239.459 276.952,160.541 276.952,160.200 276.400 C 160.064 276.180,158.613 276.000,156.976 276.000 C 155.259 276.000,154.000 275.831,154.000 275.600 C 154.000 275.380,153.561 275.200,153.024 275.200 C 152.487 275.200,151.936 275.020,151.800 274.800 C 151.664 274.580,151.124 274.400,150.600 274.400 C 150.076 274.400,149.536 274.220,149.400 274.000 C 149.264 273.780,148.850 273.600,148.480 273.600 C 147.594 273.600,142.205 270.928,141.585 270.182 C 141.319 269.862,140.888 269.600,140.626 269.600 C 140.364 269.600,139.632 269.060,139.000 268.400 C 138.368 267.740,137.665 267.200,137.438 267.200 C 136.881 267.200,132.800 263.142,132.800 262.589 C 132.800 262.347,132.260 261.632,131.600 261.000 C 130.940 260.368,130.400 259.636,130.400 259.374 C 130.400 259.112,130.138 258.681,129.818 258.415 C 129.072 257.795,126.400 252.406,126.400 251.520 C 126.400 251.150,126.220 250.736,126.000 250.600 C 125.780 250.464,125.600 249.924,125.600 249.400 C 125.600 248.876,125.420 248.336,125.200 248.200 C 124.980 248.064,124.800 247.344,124.800 246.600 C 124.800 245.856,124.620 245.136,124.400 245.000 C 124.180 244.864,124.000 243.514,124.000 242.000 C 124.000 240.486,123.820 239.136,123.600 239.000 C 123.338 238.838,123.200 225.404,123.200 200.000 C 123.200 174.596,123.338 161.162,123.600 161.000 C 123.820 160.864,124.000 159.514,124.000 158.000 C 124.000 156.486,124.180 155.136,124.400 155.000 C 124.620 154.864,124.800 154.144,124.800 153.400 C 124.800 152.656,124.980 151.936,125.200 151.800 C 125.420 151.664,125.600 151.124,125.600 150.600 C 125.600 150.076,125.780 149.536,126.000 149.400 C 126.220 149.264,126.400 148.850,126.400 148.480 C 126.400 147.594,129.072 142.205,129.818 141.585 C 130.138 141.319,130.400 140.891,130.400 140.632 C 130.400 140.374,131.120 139.459,132.000 138.600 C 132.880 137.741,133.600 136.858,133.600 136.638 C 133.600 136.088,136.054 133.600,136.597 133.600 C 136.839 133.600,137.741 132.880,138.600 132.000 C 139.459 131.120,140.374 130.400,140.632 130.400 C 140.891 130.400,141.319 130.138,141.585 129.818 C 142.205 129.072,147.594 126.400,148.480 126.400 C 148.850 126.400,149.264 126.220,149.400 126.000 C 149.536 125.780,150.076 125.600,150.600 125.600 C 151.124 125.600,151.664 125.420,151.800 125.200 C 151.936 124.980,152.656 124.800,153.400 124.800 C 154.144 124.800,154.864 124.620,155.000 124.400 C 155.136 124.180,156.486 124.000,158.000 124.000 C 159.514 124.000,160.864 123.820,161.000 123.600 C 161.162 123.338,174.596 123.200,200.000 123.200 C 225.404 123.200,238.838 123.338,239.000 123.600 M250.800 139.600 C 250.800 139.820,250.365 140.000,249.834 140.000 C 248.829 140.000,246.732 141.785,245.500 143.690 C 244.623 145.046,244.560 148.996,245.390 150.659 C 246.859 153.604,252.803 156.813,253.800 155.200 C 253.936 154.980,254.449 154.800,254.940 154.800 C 255.836 154.800,258.510 152.282,259.501 150.505 C 260.349 148.985,260.149 144.259,259.200 143.400 C 258.760 143.002,258.400 142.434,258.400 142.138 C 258.400 141.842,258.152 141.600,257.849 141.600 C 257.546 141.600,257.077 141.334,256.807 141.008 C 255.609 139.565,250.800 138.437,250.800 139.600 M192.200 151.200 C 192.064 151.420,191.153 151.600,190.176 151.600 C 189.199 151.600,188.400 151.780,188.400 152.000 C 188.400 152.220,187.680 152.400,186.800 152.400 C 185.920 152.400,185.200 152.580,185.200 152.800 C 185.200 153.020,184.761 153.200,184.224 153.200 C 183.687 153.200,183.136 153.380,183.000 153.600 C 182.864 153.820,182.418 154.000,182.010 154.000 C 181.601 154.000,181.207 154.141,181.133 154.313 C 181.060 154.485,179.258 155.486,177.130 156.536 C 175.001 157.586,173.044 158.706,172.781 159.023 C 172.518 159.340,172.089 159.600,171.829 159.600 C 171.570 159.600,170.746 160.230,170.000 161.000 C 169.254 161.770,168.449 162.400,168.211 162.400 C 167.662 162.400,162.400 167.680,162.400 168.232 C 162.400 168.458,161.770 169.254,161.000 170.000 C 160.230 170.746,159.600 171.570,159.600 171.829 C 159.600 172.089,159.340 172.518,159.023 172.781 C 158.706 173.044,157.586 175.001,156.536 177.130 C 155.486 179.258,154.485 181.060,154.313 181.133 C 154.141 181.207,154.000 181.601,154.000 182.010 C 154.000 182.418,153.820 182.864,153.600 183.000 C 153.380 183.136,153.200 183.687,153.200 184.224 C 153.200 184.761,153.020 185.200,152.800 185.200 C 152.580 185.200,152.400 185.920,152.400 186.800 C 152.400 187.680,152.220 188.400,152.000 188.400 C 151.780 188.400,151.600 189.199,151.600 190.176 C 151.600 191.153,151.420 192.064,151.200 192.200 C 150.956 192.351,150.800 195.396,150.800 200.000 C 150.800 204.604,150.956 207.649,151.200 207.800 C 151.420 207.936,151.600 208.836,151.600 209.800 C 151.600 210.764,151.780 211.664,152.000 211.800 C 152.220 211.936,152.400 212.667,152.400 213.424 C 152.400 214.181,152.580 214.800,152.800 214.800 C 153.020 214.800,153.200 215.340,153.200 216.000 C 153.200 216.660,153.380 217.200,153.600 217.200 C 153.820 217.200,154.000 217.560,154.000 218.000 C 154.000 218.440,154.180 218.800,154.400 218.800 C 154.620 218.800,154.800 219.145,154.800 219.567 C 154.800 219.988,154.941 220.393,155.114 220.467 C 155.286 220.540,156.104 221.980,156.931 223.666 C 157.759 225.352,158.698 226.949,159.018 227.215 C 159.338 227.481,159.600 227.911,159.600 228.171 C 159.600 228.430,160.230 229.254,161.000 230.000 C 161.770 230.746,162.400 231.551,162.400 231.789 C 162.400 232.338,167.680 237.600,168.232 237.600 C 168.458 237.600,169.254 238.230,170.000 239.000 C 170.746 239.770,171.570 240.400,171.829 240.400 C 172.089 240.400,172.518 240.660,172.781 240.977 C 173.044 241.294,175.001 242.414,177.130 243.464 C 179.258 244.514,181.060 245.515,181.133 245.687 C 181.207 245.859,181.612 246.000,182.033 246.000 C 182.455 246.000,182.800 246.180,182.800 246.400 C 182.800 246.620,183.340 246.800,184.000 246.800 C 184.660 246.800,185.200 246.980,185.200 247.200 C 185.200 247.420,185.819 247.600,186.576 247.600 C 187.333 247.600,188.064 247.780,188.200 248.000 C 188.336 248.220,189.236 248.400,190.200 248.400 C 191.164 248.400,192.064 248.580,192.200 248.800 C 192.351 249.044,195.396 249.200,200.000 249.200 C 204.604 249.200,207.649 249.044,207.800 248.800 C 207.936 248.580,208.836 248.400,209.800 248.400 C 210.764 248.400,211.664 248.220,211.800 248.000 C 211.936 247.780,212.667 247.600,213.424 247.600 C 214.181 247.600,214.800 247.420,214.800 247.200 C 214.800 246.980,215.340 246.800,216.000 246.800 C 216.660 246.800,217.200 246.620,217.200 246.400 C 217.200 246.180,217.560 246.000,218.000 246.000 C 218.440 246.000,218.800 245.820,218.800 245.600 C 218.800 245.380,219.145 245.200,219.567 245.200 C 219.988 245.200,220.393 245.059,220.467 244.886 C 220.540 244.714,221.980 243.896,223.666 243.069 C 225.352 242.241,226.949 241.302,227.215 240.982 C 227.481 240.662,227.911 240.400,228.171 240.400 C 228.430 240.400,229.254 239.770,230.000 239.000 C 230.746 238.230,231.551 237.600,231.789 237.600 C 232.338 237.600,237.600 232.320,237.600 231.768 C 237.600 231.542,238.230 230.746,239.000 230.000 C 239.770 229.254,240.400 228.430,240.400 228.171 C 240.400 227.911,240.662 227.481,240.982 227.215 C 241.302 226.949,242.241 225.352,243.069 223.666 C 243.896 221.980,244.714 220.540,244.886 220.467 C 245.059 220.393,245.200 219.988,245.200 219.567 C 245.200 219.145,245.380 218.800,245.600 218.800 C 245.820 218.800,246.000 218.440,246.000 218.000 C 246.000 217.560,246.180 217.200,246.400 217.200 C 246.620 217.200,246.800 216.660,246.800 216.000 C 246.800 215.340,246.980 214.800,247.200 214.800 C 247.420 214.800,247.600 214.181,247.600 213.424 C 247.600 212.667,247.780 211.936,248.000 211.800 C 248.220 211.664,248.400 210.764,248.400 209.800 C 248.400 208.836,248.580 207.936,248.800 207.800 C 249.044 207.649,249.200 204.604,249.200 200.000 C 249.200 195.396,249.044 192.351,248.800 192.200 C 248.580 192.064,248.400 191.164,248.400 190.200 C 248.400 189.236,248.220 188.336,248.000 188.200 C 247.780 188.064,247.600 187.333,247.600 186.576 C 247.600 185.819,247.420 185.200,247.200 185.200 C 246.980 185.200,246.800 184.660,246.800 184.000 C 246.800 183.340,246.620 182.800,246.400 182.800 C 246.180 182.800,246.000 182.455,246.000 182.033 C 246.000 181.612,245.859 181.207,245.687 181.133 C 245.515 181.060,244.514 179.258,243.464 177.130 C 242.414 175.001,241.294 173.044,240.977 172.781 C 240.660 172.518,240.400 172.089,240.400 171.829 C 240.400 171.570,239.770 170.746,239.000 170.000 C 238.230 169.254,237.600 168.449,237.600 168.211 C 237.600 167.662,232.320 162.400,231.768 162.400 C 231.542 162.400,230.746 161.770,230.000 161.000 C 229.254 160.230,228.430 159.600,228.171 159.600 C 227.911 159.600,227.481 159.338,227.215 159.018 C 226.949 158.698,225.352 157.759,223.666 156.931 C 221.980 156.104,220.540 155.286,220.467 155.114 C 220.393 154.941,219.988 154.800,219.567 154.800 C 219.145 154.800,218.800 154.620,218.800 154.400 C 218.800 154.180,218.440 154.000,218.000 154.000 C 217.560 154.000,217.200 153.820,217.200 153.600 C 217.200 153.380,216.660 153.200,216.000 153.200 C 215.340 153.200,214.800 153.020,214.800 152.800 C 214.800 152.580,214.181 152.400,213.424 152.400 C 212.667 152.400,211.936 152.220,211.800 152.000 C 211.664 151.780,210.764 151.600,209.800 151.600 C 208.836 151.600,207.936 151.420,207.800 151.200 C 207.649 150.956,204.604 150.800,200.000 150.800 C 195.396 150.800,192.351 150.956,192.200 151.200 M206.400 170.000 C 206.400 170.220,207.019 170.400,207.776 170.400 C 208.533 170.400,209.264 170.580,209.400 170.800 C 209.536 171.020,209.966 171.200,210.356 171.200 C 210.746 171.200,211.950 171.649,213.032 172.198 C 214.114 172.747,215.197 173.197,215.438 173.198 C 215.679 173.199,216.202 173.560,216.600 174.000 C 216.998 174.440,217.518 174.800,217.754 174.800 C 218.335 174.800,225.200 181.663,225.200 182.243 C 225.200 182.495,225.462 182.919,225.782 183.185 C 226.854 184.075,229.217 189.423,229.465 191.523 C 229.601 192.665,229.866 193.600,230.056 193.600 C 230.507 193.600,230.505 206.288,230.053 206.567 C 229.862 206.685,229.615 207.594,229.503 208.587 C 229.291 210.461,226.801 215.970,225.782 216.815 C 225.462 217.081,225.200 217.497,225.200 217.741 C 225.200 218.330,218.345 225.200,217.757 225.200 C 217.505 225.200,217.081 225.462,216.815 225.782 C 215.970 226.801,210.461 229.291,208.587 229.503 C 207.594 229.615,206.685 229.862,206.567 230.053 C 206.288 230.505,193.600 230.507,193.600 230.056 C 193.600 229.866,192.665 229.601,191.523 229.465 C 189.423 229.217,184.075 226.854,183.185 225.782 C 182.919 225.462,182.495 225.200,182.243 225.200 C 181.663 225.200,174.800 218.335,174.800 217.754 C 174.800 217.518,174.440 216.998,174.000 216.600 C 173.560 216.202,173.199 215.679,173.198 215.438 C 173.197 215.197,172.747 214.114,172.198 213.032 C 171.649 211.950,171.200 210.746,171.200 210.356 C 171.200 209.966,171.020 209.536,170.800 209.400 C 170.580 209.264,170.400 208.533,170.400 207.776 C 170.400 207.019,170.220 206.400,170.000 206.400 C 169.750 206.400,169.600 204.000,169.600 200.000 C 169.600 196.000,169.750 193.600,170.000 193.600 C 170.220 193.600,170.400 192.981,170.400 192.224 C 170.400 191.467,170.580 190.736,170.800 190.600 C 171.020 190.464,171.200 190.034,171.200 189.644 C 171.200 189.254,171.649 188.050,172.198 186.968 C 172.747 185.886,173.197 184.803,173.198 184.562 C 173.199 184.321,173.560 183.798,174.000 183.400 C 174.440 183.002,174.800 182.475,174.800 182.230 C 174.800 181.658,181.673 174.800,182.246 174.800 C 182.482 174.800,183.002 174.440,183.400 174.000 C 183.798 173.560,184.321 173.199,184.562 173.198 C 184.803 173.197,185.886 172.747,186.968 172.198 C 188.050 171.649,189.254 171.200,189.644 171.200 C 190.034 171.200,190.464 171.020,190.600 170.800 C 190.736 170.580,191.467 170.400,192.224 170.400 C 192.981 170.400,193.600 170.220,193.600 170.000 C 193.600 169.750,196.000 169.600,200.000 169.600 C 204.000 169.600,206.400 169.750,206.400 170.000 " stroke="none" fill="#040404" fill-rule="evenodd"></path><path id="path2" d="" stroke="none" fill="#bc10080" fill-rule="evenodd"></path><path id="path3" d="" stroke="none" fill="#bc10080" fill-rule="evenodd"></path><path id="path4" d="" stroke="none" fill="#bc10080" fill-rule="evenodd"></path></g></svg>