<?xml version="1.0" encoding="UTF-8"?>
<!DOCTYPE svg PUBLIC "-//W3C//DTD SVG 1.1//EN" "http://www.w3.org/Graphics/SVG/1.1/DTD/svg11.dtd">
<svg xmlns="http://www.w3.org/2000/svg" version="1.1" width="512px" height="512px" style="shape-rendering:geometricPrecision; text-rendering:geometricPrecision; image-rendering:optimizeQuality; fill-rule:evenodd; clip-rule:evenodd" xmlns:xlink="http://www.w3.org/1999/xlink">
<g><path style="opacity:1" fill="#fefffe" d="M 232.5,-0.5 C 247.833,-0.5 263.167,-0.5 278.5,-0.5C 368.144,10.3879 435.644,54.7213 481,132.5C 497.695,163.971 507.861,197.304 511.5,232.5C 511.5,247.833 511.5,263.167 511.5,278.5C 500.612,368.144 456.279,435.644 378.5,481C 347.029,497.695 313.696,507.861 278.5,511.5C 263.167,511.5 247.833,511.5 232.5,511.5C 142.856,500.612 75.3562,456.279 30,378.5C 13.3053,347.029 3.1386,313.696 -0.5,278.5C -0.5,263.167 -0.5,247.833 -0.5,232.5C 10.3875,142.857 54.7208,75.3573 132.5,30C 163.971,13.3053 197.304,3.1386 232.5,-0.5 Z"/></g>
<g><path style="opacity:1" fill="#000000" d="M 248.5,108.5 C 271.493,109.164 294.493,109.664 317.5,110C 353.234,110.43 378.734,126.596 394,158.5C 398.127,169.804 400.461,181.47 401,193.5C 401.667,234.833 401.667,276.167 401,317.5C 397.167,369.333 369.333,397.167 317.5,401C 296.825,401.252 276.158,401.752 255.5,402.5C 234.842,401.752 214.175,401.252 193.5,401C 157.766,400.57 132.266,384.404 117,352.5C 112.873,341.196 110.539,329.53 110,317.5C 109.822,296.79 109.322,276.123 108.5,255.5C 109.322,234.877 109.822,214.21 110,193.5C 110.76,153.442 129.926,126.942 167.5,114C 175.712,111.909 184.045,110.576 192.5,110C 211.338,109.832 230.004,109.332 248.5,108.5 Z"/></g>
<g><path style="opacity:1" fill="#fefffe" d="M 204.5,134.5 C 238.502,134.333 272.502,134.5 306.5,135C 354.333,133.5 377.5,156.667 376,204.5C 376.889,244.181 376.555,283.848 375,323.5C 372.124,351.034 357.29,367.868 330.5,374C 322.536,375.057 314.536,375.723 306.5,376C 266.819,376.889 227.152,376.555 187.5,375C 159.842,372.28 143.009,357.447 137,330.5C 135.96,322.869 135.294,315.202 135,307.5C 134.103,267.485 134.436,227.485 136,187.5C 138.72,159.842 153.553,143.009 180.5,137C 188.644,136.106 196.644,135.273 204.5,134.5 Z"/></g>
<g><path style="opacity:1" fill="#000000" d="M 332.5,159.5 C 343.136,160.636 349.47,166.469 351.5,177C 348.374,191.816 339.708,196.816 325.5,192C 313.655,182.028 313.655,172.028 325.5,162C 328.004,161.302 330.337,160.469 332.5,159.5 Z"/></g>
<g><path style="opacity:1" fill="#000000" d="M 247.5,180.5 C 283.778,179.212 309.611,194.879 325,227.5C 337.017,265.113 327.184,295.613 295.5,319C 265.404,335.64 236.404,333.973 208.5,314C 181.992,290.133 174.492,261.3 186,227.5C 198.321,200.999 218.821,185.333 247.5,180.5 Z"/></g>
<g><path style="opacity:1" fill="#fefffe" d="M 245.5,206.5 C 270.88,203.437 289.38,213.103 301,235.5C 310.34,264.506 301.84,286.339 275.5,301C 246.494,310.34 224.661,301.84 210,275.5C 201.571,251.373 207.071,231.206 226.5,215C 232.453,211.081 238.786,208.248 245.5,206.5 Z"/></g>
</svg>
