<?xml version="1.0" encoding="UTF-8"?>
<!DOCTYPE svg PUBLIC "-//W3C//DTD SVG 1.1//EN" "http://www.w3.org/Graphics/SVG/1.1/DTD/svg11.dtd">
<svg xmlns="http://www.w3.org/2000/svg" version="1.1" width="512px" height="512px" style="shape-rendering:geometricPrecision; text-rendering:geometricPrecision; image-rendering:optimizeQuality; fill-rule:evenodd; clip-rule:evenodd" xmlns:xlink="http://www.w3.org/1999/xlink">
<g><path style="opacity:1" fill="#fefffe" d="M 232.5,-0.5 C 247.833,-0.5 263.167,-0.5 278.5,-0.5C 368.144,10.3879 435.644,54.7213 481,132.5C 497.695,163.971 507.861,197.304 511.5,232.5C 511.5,247.833 511.5,263.167 511.5,278.5C 500.612,368.144 456.279,435.644 378.5,481C 347.029,497.695 313.696,507.861 278.5,511.5C 263.167,511.5 247.833,511.5 232.5,511.5C 142.856,500.612 75.3562,456.279 30,378.5C 13.3053,347.029 3.1386,313.696 -0.5,278.5C -0.5,263.167 -0.5,247.833 -0.5,232.5C 10.3875,142.857 54.7208,75.3573 132.5,30C 163.971,13.3053 197.304,3.1386 232.5,-0.5 Z"/></g>
<g><path style="opacity:1" fill="#000000" d="M 307.5,141.5 C 326.723,140.571 343.056,146.904 356.5,160.5C 368.823,157.948 380.49,153.614 391.5,147.5C 387.336,160.152 379.336,170.318 367.5,178C 370.833,178.114 374.166,177.781 377.5,177C 385.035,175.286 392.368,173.286 399.5,171C 391.667,181.5 382.5,190.667 372,198.5C 372.434,258.795 348.934,307.295 301.5,344C 251.425,376.069 198.425,381.736 142.5,361C 134.221,357.527 126.221,353.527 118.5,349C 149.839,351.005 177.839,342.505 202.5,323.5C 176.676,320.778 158.676,307.612 148.5,284C 155.167,283.667 161.833,283.333 168.5,283C 170.715,282.83 172.715,282.163 174.5,281C 148.779,274.612 133.279,258.446 128,232.5C 127.182,229.773 127.348,227.106 128.5,224.5C 136.334,228.7 144.667,230.533 153.5,230C 128.066,209.672 121.733,184.505 134.5,154.5C 135.002,153.479 135.668,153.312 136.5,154C 168.016,190.591 208.016,210.424 256.5,213.5C 252.587,174.446 269.587,150.446 307.5,141.5 Z"/></g>
</svg>
