<svg id="svg" version="1.1" xmlns="http://www.w3.org/2000/svg" xmlns:xlink="http://www.w3.org/1999/xlink" width="400" height="400" viewBox="0, 0, 400,400"><g id="svgg"><path id="path0" d="M178.200 128.000 C 178.049 128.244,174.929 128.400,170.176 128.400 C 165.259 128.400,162.400 128.547,162.400 128.800 C 162.400 129.048,160.208 129.200,156.624 129.200 C 153.204 129.200,150.746 129.363,150.600 129.600 C 150.462 129.823,148.604 130.000,146.400 130.000 C 144.226 130.000,142.353 130.152,142.239 130.338 C 142.124 130.523,139.564 130.787,136.550 130.923 C 133.535 131.059,130.883 131.357,130.655 131.585 C 130.427 131.813,129.657 132.000,128.944 132.000 C 128.231 132.000,127.536 132.180,127.400 132.400 C 127.264 132.620,126.713 132.800,126.176 132.800 C 125.639 132.800,125.200 132.980,125.200 133.200 C 125.200 133.420,124.840 133.600,124.400 133.600 C 123.960 133.600,123.600 133.780,123.600 134.000 C 123.600 134.220,123.240 134.400,122.800 134.400 C 122.360 134.400,121.999 134.535,121.997 134.700 C 121.993 135.059,120.056 136.000,119.320 136.000 C 119.034 136.000,118.800 136.180,118.800 136.400 C 118.800 136.620,118.558 136.800,118.262 136.800 C 117.966 136.800,117.398 137.160,117.000 137.600 C 116.602 138.040,116.075 138.400,115.829 138.400 C 115.258 138.400,108.800 144.874,108.800 145.446 C 108.800 145.683,108.440 146.202,108.000 146.600 C 107.560 146.998,107.200 147.566,107.200 147.862 C 107.200 148.158,107.020 148.400,106.800 148.400 C 106.580 148.400,106.400 148.760,106.400 149.200 C 106.400 149.640,106.220 150.000,106.000 150.000 C 105.780 150.000,105.600 150.540,105.600 151.200 C 105.600 151.860,105.420 152.400,105.200 152.400 C 104.980 152.400,104.800 153.300,104.800 154.400 C 104.800 155.500,104.620 156.400,104.400 156.400 C 104.180 156.400,104.000 157.379,104.000 158.576 C 104.000 159.773,103.820 160.864,103.600 161.000 C 103.380 161.136,103.200 162.396,103.200 163.800 C 103.200 165.204,103.020 166.464,102.800 166.600 C 102.580 166.736,102.400 168.187,102.400 169.824 C 102.400 171.541,102.231 172.800,102.000 172.800 C 101.762 172.800,101.600 174.325,101.600 176.576 C 101.600 178.663,101.421 180.463,101.200 180.600 C 100.942 180.759,100.800 187.663,100.800 200.000 C 100.800 212.337,100.942 219.241,101.200 219.400 C 101.421 219.537,101.600 221.337,101.600 223.424 C 101.600 225.675,101.762 227.200,102.000 227.200 C 102.231 227.200,102.400 228.459,102.400 230.176 C 102.400 231.813,102.580 233.264,102.800 233.400 C 103.020 233.536,103.200 234.796,103.200 236.200 C 103.200 237.604,103.380 238.864,103.600 239.000 C 103.820 239.136,104.000 240.216,104.000 241.400 C 104.000 242.584,104.180 243.664,104.400 243.800 C 104.620 243.936,104.800 244.847,104.800 245.824 C 104.800 246.801,104.980 247.600,105.200 247.600 C 105.420 247.600,105.600 248.140,105.600 248.800 C 105.600 249.460,105.780 250.000,106.000 250.000 C 106.220 250.000,106.400 250.360,106.400 250.800 C 106.400 251.240,106.580 251.600,106.800 251.600 C 107.020 251.600,107.200 251.894,107.200 252.253 C 107.200 252.612,107.532 253.197,107.937 253.553 C 108.343 253.909,108.748 254.413,108.837 254.674 C 109.103 255.448,115.249 261.600,115.756 261.600 C 116.013 261.600,116.483 261.960,116.800 262.400 C 117.117 262.840,117.697 263.200,118.088 263.200 C 118.480 263.200,118.800 263.380,118.800 263.600 C 118.800 263.820,119.160 264.000,119.600 264.000 C 120.040 264.000,120.400 264.180,120.400 264.400 C 120.400 264.620,120.760 264.800,121.200 264.800 C 121.640 264.800,122.000 264.980,122.000 265.200 C 122.000 265.420,122.360 265.600,122.800 265.600 C 123.240 265.600,123.601 265.735,123.603 265.900 C 123.607 266.301,125.581 267.200,126.456 267.200 C 126.839 267.200,127.264 267.380,127.400 267.600 C 127.536 267.820,128.076 268.000,128.600 268.000 C 129.124 268.000,129.664 268.180,129.800 268.400 C 129.936 268.620,130.836 268.800,131.800 268.800 C 132.764 268.800,133.664 268.980,133.800 269.200 C 133.939 269.425,135.860 269.600,138.190 269.600 C 140.469 269.600,142.393 269.762,142.467 269.959 C 142.609 270.343,156.879 271.129,169.397 271.444 C 173.576 271.549,177.167 271.807,177.377 272.017 C 177.911 272.551,222.670 272.534,223.000 272.000 C 223.151 271.756,226.196 271.600,230.800 271.600 C 234.954 271.600,238.447 271.448,238.562 271.262 C 238.677 271.076,242.962 270.797,248.085 270.641 C 253.208 270.485,257.571 270.187,257.780 269.979 C 257.989 269.770,259.913 269.600,262.056 269.600 C 264.223 269.600,266.063 269.422,266.200 269.200 C 266.336 268.980,267.236 268.800,268.200 268.800 C 269.164 268.800,270.064 268.620,270.200 268.400 C 270.336 268.180,270.876 268.000,271.400 268.000 C 271.924 268.000,272.464 267.820,272.600 267.600 C 272.736 267.380,273.180 267.200,273.586 267.200 C 274.384 267.200,277.715 265.591,277.933 265.100 C 278.007 264.935,278.412 264.800,278.833 264.800 C 279.255 264.800,279.600 264.620,279.600 264.400 C 279.600 264.180,279.960 264.000,280.400 264.000 C 280.840 264.000,281.200 263.820,281.200 263.600 C 281.200 263.380,281.520 263.200,281.912 263.200 C 282.303 263.200,282.883 262.840,283.200 262.400 C 283.517 261.960,284.011 261.600,284.297 261.600 C 284.963 261.600,291.200 255.348,291.200 254.680 C 291.200 254.403,291.560 253.917,292.000 253.600 C 292.440 253.283,292.800 252.703,292.800 252.312 C 292.800 251.920,292.980 251.600,293.200 251.600 C 293.420 251.600,293.600 251.240,293.600 250.800 C 293.600 250.360,293.780 250.000,294.000 250.000 C 294.220 250.000,294.400 249.561,294.400 249.024 C 294.400 248.487,294.580 247.936,294.800 247.800 C 295.020 247.664,295.200 246.764,295.200 245.800 C 295.200 244.836,295.380 243.936,295.600 243.800 C 295.820 243.664,296.000 242.584,296.000 241.400 C 296.000 240.216,296.180 239.136,296.400 239.000 C 296.620 238.864,296.800 237.593,296.800 236.176 C 296.800 234.725,296.975 233.600,297.200 233.600 C 297.431 233.600,297.600 232.341,297.600 230.624 C 297.600 228.987,297.780 227.536,298.000 227.400 C 298.221 227.264,298.400 225.470,298.400 223.400 C 298.400 221.330,298.579 219.536,298.800 219.400 C 299.045 219.249,299.200 216.070,299.200 211.200 C 299.200 206.330,299.355 203.151,299.600 203.000 C 299.820 202.864,300.000 201.334,300.000 199.600 C 300.000 197.866,299.820 196.336,299.600 196.200 C 299.355 196.049,299.200 192.870,299.200 188.000 C 299.200 183.130,299.045 179.951,298.800 179.800 C 298.579 179.663,298.400 177.863,298.400 175.776 C 298.400 173.525,298.238 172.000,298.000 172.000 C 297.769 172.000,297.600 170.741,297.600 169.024 C 297.600 167.387,297.420 165.936,297.200 165.800 C 296.980 165.664,296.800 164.404,296.800 163.000 C 296.800 161.596,296.620 160.336,296.400 160.200 C 296.180 160.064,296.000 158.984,296.000 157.800 C 296.000 156.616,295.820 155.536,295.600 155.400 C 295.380 155.264,295.200 154.353,295.200 153.376 C 295.200 152.399,295.020 151.600,294.800 151.600 C 294.580 151.600,294.400 151.240,294.400 150.800 C 294.400 150.360,294.220 150.000,294.000 150.000 C 293.780 150.000,293.600 149.640,293.600 149.200 C 293.600 148.760,293.420 148.400,293.200 148.400 C 292.980 148.400,292.800 148.158,292.800 147.862 C 292.800 147.566,292.440 146.998,292.000 146.600 C 291.560 146.202,291.198 145.679,291.195 145.438 C 291.187 144.813,284.888 138.400,284.282 138.400 C 284.004 138.400,283.517 138.040,283.200 137.600 C 282.883 137.160,282.343 136.800,282.000 136.800 C 281.657 136.800,281.117 136.440,280.800 136.000 C 280.483 135.560,279.903 135.200,279.512 135.200 C 279.120 135.200,278.800 135.020,278.800 134.800 C 278.800 134.580,278.260 134.400,277.600 134.400 C 276.940 134.400,276.400 134.220,276.400 134.000 C 276.400 133.780,276.040 133.600,275.600 133.600 C 275.160 133.600,274.800 133.420,274.800 133.200 C 274.800 132.980,274.361 132.800,273.824 132.800 C 273.287 132.800,272.736 132.620,272.600 132.400 C 272.464 132.180,271.949 132.000,271.456 132.000 C 270.963 132.000,270.378 131.818,270.156 131.596 C 269.791 131.231,264.132 130.718,254.200 130.151 C 252.220 130.038,250.429 129.778,250.220 129.573 C 250.011 129.368,247.266 129.200,244.120 129.200 C 240.573 129.200,238.400 129.048,238.400 128.800 C 238.400 128.546,235.400 128.400,230.200 128.400 C 225.000 128.400,222.000 128.254,222.000 128.000 C 222.000 127.738,214.475 127.600,200.224 127.600 C 186.137 127.600,178.360 127.741,178.200 128.000 M178.600 162.400 C 178.998 162.840,179.544 163.200,179.813 163.200 C 180.082 163.200,180.534 163.479,180.816 163.820 C 181.099 164.161,182.100 164.790,183.041 165.219 C 183.982 165.647,184.860 166.174,184.993 166.388 C 185.125 166.603,185.901 167.093,186.717 167.476 C 187.533 167.860,188.549 168.495,188.975 168.887 C 189.402 169.279,189.987 169.600,190.275 169.600 C 190.564 169.600,190.800 169.745,190.800 169.923 C 190.800 170.101,191.495 170.552,192.343 170.927 C 193.192 171.301,194.300 171.966,194.805 172.404 C 195.309 172.842,195.965 173.200,196.261 173.200 C 196.558 173.200,196.800 173.380,196.800 173.600 C 196.800 173.820,197.036 174.000,197.325 174.000 C 197.613 174.000,198.236 174.360,198.708 174.800 C 199.180 175.240,199.804 175.600,200.095 175.600 C 200.386 175.600,200.883 175.960,201.200 176.400 C 201.517 176.840,202.097 177.200,202.488 177.200 C 202.880 177.200,203.200 177.380,203.200 177.600 C 203.200 177.820,203.448 178.000,203.751 178.000 C 204.054 178.000,204.534 178.279,204.816 178.620 C 205.099 178.961,206.082 179.582,207.000 180.000 C 207.918 180.418,208.901 181.039,209.184 181.380 C 209.466 181.721,209.924 182.000,210.200 182.000 C 210.476 182.000,210.929 182.273,211.206 182.607 C 211.483 182.941,212.360 183.512,213.155 183.874 C 213.950 184.237,214.912 184.799,215.293 185.123 C 215.994 185.718,218.056 186.878,221.035 188.352 C 221.934 188.796,222.901 189.439,223.184 189.780 C 223.466 190.121,223.924 190.400,224.200 190.400 C 224.476 190.400,224.934 190.679,225.216 191.020 C 225.499 191.361,226.482 191.982,227.400 192.400 C 228.318 192.818,229.301 193.439,229.584 193.780 C 229.866 194.121,230.346 194.400,230.649 194.400 C 230.952 194.400,231.200 194.580,231.200 194.800 C 231.200 195.020,231.520 195.200,231.912 195.200 C 232.303 195.200,232.883 195.560,233.200 196.000 C 233.517 196.440,234.057 196.800,234.400 196.800 C 234.743 196.800,235.283 197.160,235.600 197.600 C 235.917 198.040,236.497 198.400,236.888 198.400 C 237.280 198.400,237.600 198.580,237.600 198.800 C 237.600 199.020,237.960 199.200,238.400 199.200 C 238.933 199.200,239.200 199.467,239.200 200.000 C 239.200 200.533,238.933 200.800,238.400 200.800 C 237.960 200.800,237.600 200.980,237.600 201.200 C 237.600 201.420,237.358 201.600,237.062 201.600 C 236.766 201.600,236.198 201.960,235.800 202.400 C 235.402 202.840,234.856 203.200,234.587 203.200 C 234.318 203.200,233.866 203.479,233.584 203.820 C 233.301 204.161,232.300 204.790,231.359 205.219 C 230.418 205.647,229.537 206.179,229.400 206.400 C 229.263 206.621,228.382 207.153,227.441 207.581 C 226.500 208.010,225.499 208.639,225.216 208.980 C 224.934 209.321,224.476 209.600,224.200 209.600 C 223.924 209.600,223.466 209.879,223.184 210.220 C 222.901 210.561,221.900 211.190,220.959 211.619 C 220.018 212.047,219.137 212.579,219.000 212.800 C 218.863 213.021,217.997 213.573,217.076 214.026 C 214.793 215.149,213.733 215.765,212.903 216.453 C 212.516 216.773,211.660 217.297,211.000 217.617 C 210.340 217.938,209.451 218.515,209.025 218.900 C 208.598 219.285,208.013 219.600,207.725 219.600 C 207.436 219.600,207.200 219.780,207.200 220.000 C 207.200 220.220,206.880 220.400,206.488 220.400 C 206.097 220.400,205.517 220.760,205.200 221.200 C 204.883 221.640,204.303 222.000,203.912 222.000 C 203.520 222.000,203.200 222.180,203.200 222.400 C 203.200 222.620,202.880 222.800,202.488 222.800 C 202.097 222.800,201.517 223.160,201.200 223.600 C 200.883 224.040,200.369 224.400,200.059 224.400 C 199.748 224.400,199.203 224.724,198.847 225.120 C 198.491 225.517,197.533 226.151,196.717 226.531 C 195.901 226.911,195.129 227.392,195.000 227.600 C 194.871 227.808,194.099 228.284,193.283 228.656 C 192.467 229.029,191.484 229.603,191.097 229.932 C 190.279 230.628,189.247 231.231,186.924 232.374 C 186.003 232.827,185.137 233.379,185.000 233.600 C 184.863 233.821,183.982 234.353,183.041 234.781 C 182.100 235.210,181.099 235.839,180.816 236.180 C 180.534 236.521,180.076 236.800,179.800 236.800 C 179.524 236.800,179.077 237.066,178.807 237.392 C 178.179 238.148,176.118 239.184,175.824 238.891 C 175.503 238.570,175.546 162.188,175.867 161.867 C 176.403 161.330,177.895 161.621,178.600 162.400 " stroke="none" fill="#fcfcfc" fill-rule="evenodd"></path><path id="path1" d="M178.700 0.275 C 176.555 0.360,174.800 0.602,174.800 0.814 C 174.800 1.027,173.540 1.200,172.000 1.200 C 170.400 1.200,169.200 1.371,169.200 1.600 C 169.200 1.822,168.133 2.000,166.800 2.000 C 165.467 2.000,164.400 2.178,164.400 2.400 C 164.400 2.620,163.410 2.800,162.200 2.800 C 160.990 2.800,160.000 2.980,160.000 3.200 C 160.000 3.420,159.280 3.600,158.400 3.600 C 157.520 3.600,156.800 3.780,156.800 4.000 C 156.800 4.220,155.900 4.400,154.800 4.400 C 153.700 4.400,152.800 4.580,152.800 4.800 C 152.800 5.020,152.080 5.200,151.200 5.200 C 150.320 5.200,149.600 5.380,149.600 5.600 C 149.600 5.820,148.880 6.000,148.000 6.000 C 147.120 6.000,146.400 6.180,146.400 6.400 C 146.400 6.620,145.860 6.800,145.200 6.800 C 144.540 6.800,144.000 6.980,144.000 7.200 C 144.000 7.420,143.370 7.600,142.600 7.600 C 141.830 7.600,141.200 7.780,141.200 8.000 C 141.200 8.220,140.660 8.400,140.000 8.400 C 139.340 8.400,138.800 8.580,138.800 8.800 C 138.800 9.020,138.260 9.200,137.600 9.200 C 136.940 9.200,136.400 9.357,136.400 9.548 C 136.400 9.740,135.493 10.017,134.384 10.164 C 133.275 10.311,131.739 10.785,130.972 11.216 C 130.204 11.647,129.232 12.000,128.811 12.000 C 128.391 12.000,127.936 12.180,127.800 12.400 C 127.664 12.620,127.113 12.800,126.576 12.800 C 126.039 12.800,125.600 12.980,125.600 13.200 C 125.600 13.420,125.240 13.600,124.800 13.600 C 124.360 13.600,124.000 13.780,124.000 14.000 C 124.000 14.220,123.460 14.400,122.800 14.400 C 122.140 14.400,121.600 14.580,121.600 14.800 C 121.600 15.020,121.240 15.200,120.800 15.200 C 120.360 15.200,120.000 15.380,120.000 15.600 C 120.000 15.820,119.640 16.000,119.200 16.000 C 118.760 16.000,118.400 16.180,118.400 16.400 C 118.400 16.620,118.040 16.800,117.600 16.800 C 117.160 16.800,116.800 16.980,116.800 17.200 C 116.800 17.420,116.260 17.600,115.600 17.600 C 114.940 17.600,114.400 17.780,114.400 18.000 C 114.400 18.220,114.040 18.400,113.600 18.400 C 113.160 18.400,112.800 18.580,112.800 18.800 C 112.800 19.020,112.440 19.200,112.000 19.200 C 111.560 19.200,111.200 19.380,111.200 19.600 C 111.200 19.820,110.930 20.000,110.600 20.000 C 110.270 20.000,110.000 20.180,110.000 20.400 C 110.000 20.620,109.640 20.800,109.200 20.800 C 108.760 20.800,108.400 20.980,108.400 21.200 C 108.400 21.420,108.040 21.600,107.600 21.600 C 107.160 21.600,106.800 21.780,106.800 22.000 C 106.800 22.220,106.480 22.400,106.088 22.400 C 105.697 22.400,105.117 22.760,104.800 23.200 C 104.483 23.640,103.903 24.000,103.512 24.000 C 103.120 24.000,102.800 24.180,102.800 24.400 C 102.800 24.620,102.440 24.800,102.000 24.800 C 101.560 24.800,101.200 24.980,101.200 25.200 C 101.200 25.420,100.840 25.600,100.400 25.600 C 99.960 25.600,99.600 25.780,99.600 26.000 C 99.600 26.220,99.240 26.400,98.800 26.400 C 98.360 26.400,98.000 26.546,98.000 26.725 C 98.000 26.904,97.094 27.446,95.986 27.930 C 94.878 28.413,93.869 29.077,93.743 29.405 C 93.617 29.732,93.213 30.000,92.846 30.000 C 92.478 30.000,91.917 30.360,91.600 30.800 C 91.283 31.240,90.743 31.600,90.400 31.600 C 90.057 31.600,89.517 31.960,89.200 32.400 C 88.883 32.840,88.343 33.200,88.000 33.200 C 87.657 33.200,87.117 33.560,86.800 34.000 C 86.483 34.440,85.943 34.800,85.600 34.800 C 85.257 34.800,84.717 35.160,84.400 35.600 C 84.083 36.040,83.575 36.400,83.272 36.400 C 82.969 36.400,82.217 36.940,81.600 37.600 C 80.983 38.260,80.263 38.800,80.000 38.800 C 79.737 38.800,79.017 39.340,78.400 40.000 C 77.783 40.660,77.165 41.200,77.026 41.200 C 76.887 41.200,76.143 41.830,75.373 42.600 C 74.603 43.370,73.754 44.002,73.487 44.004 C 73.219 44.006,72.057 44.906,70.905 46.004 C 69.752 47.102,68.582 48.009,68.305 48.019 C 68.027 48.029,66.090 49.853,64.000 52.072 C 61.910 54.291,58.878 57.387,57.262 58.953 C 49.365 66.607,48.000 67.997,48.000 68.388 C 48.000 68.620,47.102 69.752,46.004 70.905 C 44.906 72.057,44.006 73.219,44.004 73.487 C 44.002 73.754,43.370 74.603,42.600 75.373 C 41.830 76.143,41.200 76.887,41.200 77.026 C 41.200 77.165,40.660 77.783,40.000 78.400 C 39.340 79.017,38.800 79.737,38.800 80.000 C 38.800 80.263,38.260 80.983,37.600 81.600 C 36.940 82.217,36.400 82.969,36.400 83.272 C 36.400 83.575,36.040 84.083,35.600 84.400 C 35.160 84.717,34.800 85.257,34.800 85.600 C 34.800 85.943,34.440 86.483,34.000 86.800 C 33.560 87.117,33.200 87.657,33.200 88.000 C 33.200 88.343,32.840 88.883,32.400 89.200 C 31.960 89.517,31.600 90.057,31.600 90.400 C 31.600 90.743,31.240 91.283,30.800 91.600 C 30.360 91.917,30.000 92.478,30.000 92.846 C 30.000 93.213,29.732 93.617,29.405 93.743 C 29.077 93.869,28.413 94.878,27.930 95.986 C 27.446 97.094,26.904 98.000,26.725 98.000 C 26.546 98.000,26.400 98.360,26.400 98.800 C 26.400 99.240,26.220 99.600,26.000 99.600 C 25.780 99.600,25.600 99.960,25.600 100.400 C 25.600 100.840,25.420 101.200,25.200 101.200 C 24.980 101.200,24.800 101.560,24.800 102.000 C 24.800 102.440,24.620 102.800,24.400 102.800 C 24.180 102.800,24.000 103.120,24.000 103.512 C 24.000 103.903,23.640 104.483,23.200 104.800 C 22.760 105.117,22.400 105.697,22.400 106.088 C 22.400 106.480,22.220 106.800,22.000 106.800 C 21.780 106.800,21.600 107.160,21.600 107.600 C 21.600 108.040,21.420 108.400,21.200 108.400 C 20.980 108.400,20.800 108.760,20.800 109.200 C 20.800 109.640,20.620 110.000,20.400 110.000 C 20.180 110.000,20.000 110.270,20.000 110.600 C 20.000 110.930,19.820 111.200,19.600 111.200 C 19.380 111.200,19.200 111.560,19.200 112.000 C 19.200 112.440,19.020 112.800,18.800 112.800 C 18.580 112.800,18.400 113.160,18.400 113.600 C 18.400 114.040,18.220 114.400,18.000 114.400 C 17.780 114.400,17.600 114.940,17.600 115.600 C 17.600 116.260,17.420 116.800,17.200 116.800 C 16.980 116.800,16.800 117.160,16.800 117.600 C 16.800 118.040,16.620 118.400,16.400 118.400 C 16.180 118.400,16.000 118.760,16.000 119.200 C 16.000 119.640,15.820 120.000,15.600 120.000 C 15.380 120.000,15.200 120.360,15.200 120.800 C 15.200 121.240,15.020 121.600,14.800 121.600 C 14.580 121.600,14.400 122.140,14.400 122.800 C 14.400 123.460,14.220 124.000,14.000 124.000 C 13.780 124.000,13.600 124.360,13.600 124.800 C 13.600 125.240,13.420 125.600,13.200 125.600 C 12.980 125.600,12.800 126.039,12.800 126.576 C 12.800 127.113,12.620 127.664,12.400 127.800 C 12.180 127.936,12.000 128.391,12.000 128.811 C 12.000 129.232,11.647 130.204,11.216 130.972 C 10.785 131.739,10.311 133.275,10.164 134.384 C 10.017 135.493,9.740 136.400,9.548 136.400 C 9.357 136.400,9.200 136.940,9.200 137.600 C 9.200 138.260,9.020 138.800,8.800 138.800 C 8.580 138.800,8.400 139.340,8.400 140.000 C 8.400 140.660,8.220 141.200,8.000 141.200 C 7.780 141.200,7.600 141.830,7.600 142.600 C 7.600 143.370,7.420 144.000,7.200 144.000 C 6.980 144.000,6.800 144.540,6.800 145.200 C 6.800 145.860,6.620 146.400,6.400 146.400 C 6.180 146.400,6.000 147.120,6.000 148.000 C 6.000 148.880,5.820 149.600,5.600 149.600 C 5.380 149.600,5.200 150.320,5.200 151.200 C 5.200 152.080,5.020 152.800,4.800 152.800 C 4.580 152.800,4.400 153.700,4.400 154.800 C 4.400 155.900,4.220 156.800,4.000 156.800 C 3.780 156.800,3.600 157.520,3.600 158.400 C 3.600 159.280,3.420 160.000,3.200 160.000 C 2.980 160.000,2.800 160.990,2.800 162.200 C 2.800 163.410,2.620 164.400,2.400 164.400 C 2.178 164.400,2.000 165.467,2.000 166.800 C 2.000 168.133,1.822 169.200,1.600 169.200 C 1.372 169.200,1.200 170.389,1.200 171.967 C 1.200 173.824,1.036 174.788,0.700 174.900 C -0.032 175.144,-0.032 224.856,0.700 225.100 C 1.036 225.212,1.200 226.176,1.200 228.033 C 1.200 229.611,1.372 230.800,1.600 230.800 C 1.822 230.800,2.000 231.867,2.000 233.200 C 2.000 234.533,2.178 235.600,2.400 235.600 C 2.622 235.600,2.800 236.667,2.800 238.000 C 2.800 239.333,2.978 240.400,3.200 240.400 C 3.420 240.400,3.600 241.030,3.600 241.800 C 3.600 242.570,3.780 243.200,4.000 243.200 C 4.220 243.200,4.400 244.100,4.400 245.200 C 4.400 246.300,4.580 247.200,4.800 247.200 C 5.020 247.200,5.200 247.920,5.200 248.800 C 5.200 249.680,5.380 250.400,5.600 250.400 C 5.820 250.400,6.000 251.120,6.000 252.000 C 6.000 252.880,6.180 253.600,6.400 253.600 C 6.620 253.600,6.800 254.140,6.800 254.800 C 6.800 255.460,6.980 256.000,7.200 256.000 C 7.420 256.000,7.600 256.630,7.600 257.400 C 7.600 258.170,7.780 258.800,8.000 258.800 C 8.220 258.800,8.400 259.340,8.400 260.000 C 8.400 260.660,8.580 261.200,8.800 261.200 C 9.020 261.200,9.200 261.740,9.200 262.400 C 9.200 263.060,9.362 263.600,9.561 263.600 C 9.759 263.600,10.047 264.680,10.200 266.000 C 10.353 267.320,10.596 268.401,10.739 268.403 C 11.109 268.408,12.000 270.424,12.000 271.256 C 12.000 271.639,12.180 272.064,12.400 272.200 C 12.620 272.336,12.800 272.761,12.800 273.144 C 12.800 274.019,13.699 275.993,14.100 275.997 C 14.265 275.999,14.400 276.360,14.400 276.800 C 14.400 277.240,14.580 277.600,14.800 277.600 C 15.020 277.600,15.200 278.140,15.200 278.800 C 15.200 279.460,15.380 280.000,15.600 280.000 C 15.820 280.000,16.000 280.360,16.000 280.800 C 16.000 281.240,16.180 281.600,16.400 281.600 C 16.620 281.600,16.800 281.960,16.800 282.400 C 16.800 282.840,16.980 283.200,17.200 283.200 C 17.420 283.200,17.600 283.740,17.600 284.400 C 17.600 285.060,17.780 285.600,18.000 285.600 C 18.220 285.600,18.400 285.960,18.400 286.400 C 18.400 286.840,18.580 287.200,18.800 287.200 C 19.020 287.200,19.200 287.560,19.200 288.000 C 19.200 288.440,19.380 288.800,19.600 288.800 C 19.820 288.800,20.000 289.160,20.000 289.600 C 20.000 290.040,20.180 290.400,20.400 290.400 C 20.620 290.400,20.800 290.670,20.800 291.000 C 20.800 291.330,20.980 291.600,21.200 291.600 C 21.420 291.600,21.600 291.960,21.600 292.400 C 21.600 292.840,21.780 293.200,22.000 293.200 C 22.220 293.200,22.400 293.520,22.400 293.912 C 22.400 294.303,22.760 294.883,23.200 295.200 C 23.640 295.517,24.000 296.097,24.000 296.488 C 24.000 296.880,24.180 297.200,24.400 297.200 C 24.620 297.200,24.800 297.560,24.800 298.000 C 24.800 298.440,24.980 298.800,25.200 298.800 C 25.420 298.800,25.600 299.160,25.600 299.600 C 25.600 300.040,25.780 300.400,26.000 300.400 C 26.220 300.400,26.400 300.760,26.400 301.200 C 26.400 301.640,26.546 302.000,26.725 302.000 C 26.904 302.000,27.428 302.864,27.889 303.921 C 28.350 304.978,29.014 306.080,29.364 306.370 C 29.714 306.660,30.000 307.144,30.000 307.446 C 30.000 307.747,30.360 308.218,30.800 308.493 C 31.240 308.768,31.600 309.269,31.600 309.608 C 31.600 309.946,31.960 310.483,32.400 310.800 C 32.840 311.117,33.200 311.657,33.200 312.000 C 33.200 312.343,33.560 312.883,34.000 313.200 C 34.440 313.517,34.800 314.057,34.800 314.400 C 34.800 314.743,35.160 315.283,35.600 315.600 C 36.040 315.917,36.400 316.425,36.400 316.728 C 36.400 317.031,36.940 317.783,37.600 318.400 C 38.260 319.017,38.800 319.737,38.800 320.000 C 38.800 320.263,39.340 320.983,40.000 321.600 C 40.660 322.217,41.200 322.943,41.200 323.214 C 41.200 323.743,42.707 325.200,43.254 325.200 C 43.436 325.200,43.708 325.691,43.858 326.290 C 44.009 326.890,45.002 328.228,46.066 329.264 C 47.130 330.300,48.000 331.349,48.000 331.594 C 48.000 331.840,50.205 334.186,52.900 336.810 C 58.913 342.661,59.082 342.831,63.994 347.900 C 66.179 350.155,68.166 352.000,68.409 352.000 C 68.653 352.000,69.729 352.900,70.800 354.000 C 71.871 355.100,72.946 356.000,73.187 356.000 C 73.429 356.000,74.257 356.630,75.027 357.400 C 75.797 358.170,76.618 358.800,76.853 358.800 C 77.087 358.800,77.783 359.340,78.400 360.000 C 79.017 360.660,79.737 361.200,80.000 361.200 C 80.263 361.200,80.983 361.740,81.600 362.400 C 82.217 363.060,82.969 363.600,83.272 363.600 C 83.575 363.600,84.083 363.960,84.400 364.400 C 84.717 364.840,85.257 365.200,85.600 365.200 C 85.943 365.200,86.483 365.560,86.800 366.000 C 87.117 366.440,87.657 366.800,88.000 366.800 C 88.343 366.800,88.883 367.160,89.200 367.600 C 89.517 368.040,90.057 368.400,90.400 368.400 C 90.743 368.400,91.283 368.760,91.600 369.200 C 91.917 369.640,92.478 370.000,92.846 370.000 C 93.213 370.000,93.615 370.261,93.737 370.581 C 93.860 370.900,94.768 371.530,95.756 371.980 C 96.743 372.430,97.663 372.979,97.800 373.200 C 98.120 373.717,101.365 375.200,102.178 375.200 C 102.520 375.200,102.800 375.380,102.800 375.600 C 102.800 375.820,103.120 376.000,103.512 376.000 C 103.903 376.000,104.483 376.360,104.800 376.800 C 105.117 377.240,105.697 377.600,106.088 377.600 C 106.480 377.600,106.800 377.780,106.800 378.000 C 106.800 378.220,107.160 378.400,107.600 378.400 C 108.040 378.400,108.400 378.580,108.400 378.800 C 108.400 379.020,108.760 379.200,109.200 379.200 C 109.640 379.200,110.000 379.346,110.000 379.525 C 110.000 379.704,110.630 380.098,111.400 380.400 C 112.170 380.702,112.800 381.096,112.800 381.275 C 112.800 381.454,113.160 381.600,113.600 381.600 C 114.040 381.600,114.400 381.780,114.400 382.000 C 114.400 382.220,114.940 382.400,115.600 382.400 C 116.260 382.400,116.800 382.580,116.800 382.800 C 116.800 383.020,117.160 383.200,117.600 383.200 C 118.040 383.200,118.400 383.380,118.400 383.600 C 118.400 383.820,118.760 384.000,119.200 384.000 C 119.640 384.000,120.000 384.180,120.000 384.400 C 120.000 384.620,120.540 384.800,121.200 384.800 C 121.860 384.800,122.400 384.980,122.400 385.200 C 122.400 385.420,122.760 385.600,123.200 385.600 C 123.640 385.600,124.000 385.780,124.000 386.000 C 124.000 386.220,124.360 386.400,124.800 386.400 C 125.240 386.400,125.600 386.580,125.600 386.800 C 125.600 387.020,126.039 387.200,126.576 387.200 C 127.113 387.200,127.664 387.380,127.800 387.600 C 127.936 387.820,128.487 388.000,129.024 388.000 C 129.561 388.000,130.000 388.180,130.000 388.400 C 130.000 388.620,130.349 388.800,130.776 388.800 C 131.203 388.800,131.664 388.980,131.800 389.200 C 131.936 389.420,132.487 389.600,133.024 389.600 C 133.561 389.600,134.000 389.780,134.000 390.000 C 134.000 390.220,134.540 390.400,135.200 390.400 C 135.860 390.400,136.400 390.569,136.400 390.776 C 136.400 390.982,137.660 391.276,139.200 391.427 C 140.740 391.579,142.000 391.860,142.000 392.052 C 142.000 392.243,142.450 392.400,143.000 392.400 C 143.550 392.400,144.000 392.580,144.000 392.800 C 144.000 393.020,144.720 393.200,145.600 393.200 C 146.480 393.200,147.200 393.380,147.200 393.600 C 147.200 393.820,147.740 394.000,148.400 394.000 C 149.060 394.000,149.600 394.180,149.600 394.400 C 149.600 394.620,150.320 394.800,151.200 394.800 C 152.080 394.800,152.800 394.980,152.800 395.200 C 152.800 395.420,153.700 395.600,154.800 395.600 C 155.900 395.600,156.800 395.780,156.800 396.000 C 156.800 396.220,157.520 396.400,158.400 396.400 C 159.280 396.400,160.000 396.580,160.000 396.800 C 160.000 397.020,160.990 397.200,162.200 397.200 C 163.410 397.200,164.400 397.380,164.400 397.600 C 164.400 397.822,165.467 398.000,166.800 398.000 C 168.133 398.000,169.200 398.178,169.200 398.400 C 169.200 398.628,170.389 398.800,171.967 398.800 C 173.824 398.800,174.788 398.964,174.900 399.300 C 175.144 400.032,224.856 400.032,225.100 399.300 C 225.212 398.964,226.176 398.800,228.033 398.800 C 229.611 398.800,230.800 398.628,230.800 398.400 C 230.800 398.178,231.867 398.000,233.200 398.000 C 234.533 398.000,235.600 397.822,235.600 397.600 C 235.600 397.380,236.579 397.200,237.776 397.200 C 238.973 397.200,240.064 397.020,240.200 396.800 C 240.336 396.580,241.067 396.400,241.824 396.400 C 242.581 396.400,243.200 396.220,243.200 396.000 C 243.200 395.780,244.100 395.600,245.200 395.600 C 246.300 395.600,247.200 395.420,247.200 395.200 C 247.200 394.980,247.920 394.800,248.800 394.800 C 249.680 394.800,250.400 394.620,250.400 394.400 C 250.400 394.180,251.120 394.000,252.000 394.000 C 252.880 394.000,253.600 393.820,253.600 393.600 C 253.600 393.380,254.140 393.200,254.800 393.200 C 255.460 393.200,256.000 393.020,256.000 392.800 C 256.000 392.580,256.630 392.400,257.400 392.400 C 258.170 392.400,258.800 392.241,258.800 392.046 C 258.800 391.851,259.787 391.569,260.994 391.418 C 262.200 391.267,263.291 390.977,263.417 390.772 C 263.544 390.567,264.177 390.400,264.824 390.400 C 265.471 390.400,266.000 390.220,266.000 390.000 C 266.000 389.780,266.540 389.600,267.200 389.600 C 267.860 389.600,268.401 389.465,268.403 389.300 C 268.408 388.853,270.426 388.000,271.480 388.000 C 271.986 388.000,272.400 387.820,272.400 387.600 C 272.400 387.380,272.724 387.200,273.120 387.200 C 274.014 387.200,275.993 386.306,275.997 385.900 C 275.999 385.735,276.540 385.600,277.200 385.600 C 277.860 385.600,278.400 385.420,278.400 385.200 C 278.400 384.980,278.760 384.800,279.200 384.800 C 279.640 384.800,280.000 384.620,280.000 384.400 C 280.000 384.180,280.360 384.000,280.800 384.000 C 281.240 384.000,281.600 383.820,281.600 383.600 C 281.600 383.380,281.960 383.200,282.400 383.200 C 282.840 383.200,283.200 383.020,283.200 382.800 C 283.200 382.580,283.740 382.400,284.400 382.400 C 285.060 382.400,285.600 382.220,285.600 382.000 C 285.600 381.780,285.960 381.600,286.400 381.600 C 286.840 381.600,287.200 381.420,287.200 381.200 C 287.200 380.980,287.560 380.800,288.000 380.800 C 288.440 380.800,288.800 380.654,288.800 380.475 C 288.800 380.296,289.430 379.902,290.200 379.600 C 290.970 379.298,291.600 378.904,291.600 378.725 C 291.600 378.546,291.960 378.400,292.400 378.400 C 292.840 378.400,293.200 378.220,293.200 378.000 C 293.200 377.780,293.520 377.600,293.912 377.600 C 294.303 377.600,294.883 377.240,295.200 376.800 C 295.517 376.360,296.097 376.000,296.488 376.000 C 296.880 376.000,297.200 375.836,297.200 375.635 C 297.200 375.434,297.920 375.149,298.800 375.000 C 299.680 374.851,300.400 374.566,300.400 374.365 C 300.400 374.164,300.717 374.000,301.104 374.000 C 301.491 374.000,302.032 373.640,302.307 373.200 C 302.582 372.760,303.165 372.400,303.603 372.400 C 304.042 372.400,304.400 372.220,304.400 372.000 C 304.400 371.780,304.717 371.600,305.104 371.600 C 305.491 371.600,306.032 371.240,306.307 370.800 C 306.582 370.360,307.074 370.000,307.400 370.000 C 307.726 370.000,308.218 369.640,308.493 369.200 C 308.768 368.760,309.269 368.400,309.608 368.400 C 309.946 368.400,310.483 368.040,310.800 367.600 C 311.117 367.160,311.657 366.800,312.000 366.800 C 312.343 366.800,312.883 366.440,313.200 366.000 C 313.517 365.560,314.057 365.200,314.400 365.200 C 314.743 365.200,315.283 364.840,315.600 364.400 C 315.917 363.960,316.425 363.600,316.728 363.600 C 317.031 363.600,317.783 363.060,318.400 362.400 C 319.017 361.740,319.737 361.200,320.000 361.200 C 320.263 361.200,320.983 360.660,321.600 360.000 C 322.217 359.340,322.986 358.800,323.310 358.800 C 323.633 358.800,324.436 358.170,325.094 357.400 C 325.752 356.630,326.506 356.000,326.771 356.000 C 327.035 356.000,328.129 355.100,329.200 354.000 C 330.271 352.900,331.345 352.000,331.586 352.000 C 331.827 352.000,334.185 349.795,336.826 347.100 C 342.585 341.223,341.223 342.585,347.100 336.826 C 349.795 334.185,352.000 331.827,352.000 331.586 C 352.000 331.345,352.900 330.271,354.000 329.200 C 355.100 328.129,356.000 327.036,356.000 326.773 C 356.000 326.254,357.514 324.800,358.054 324.800 C 358.236 324.800,358.508 324.305,358.660 323.700 C 358.811 323.095,359.444 322.123,360.067 321.540 C 360.690 320.956,361.200 320.263,361.200 320.000 C 361.200 319.737,361.740 319.017,362.400 318.400 C 363.060 317.783,363.600 317.031,363.600 316.728 C 363.600 316.425,363.960 315.917,364.400 315.600 C 364.840 315.283,365.200 314.743,365.200 314.400 C 365.200 314.057,365.560 313.517,366.000 313.200 C 366.440 312.883,366.800 312.343,366.800 312.000 C 366.800 311.657,367.160 311.117,367.600 310.800 C 368.040 310.483,368.400 309.915,368.400 309.539 C 368.400 309.162,368.760 308.740,369.200 308.600 C 369.640 308.460,370.000 308.000,370.000 307.576 C 370.000 307.153,370.360 306.582,370.800 306.307 C 371.240 306.032,371.600 305.491,371.600 305.104 C 371.600 304.717,371.780 304.400,372.000 304.400 C 372.220 304.400,372.400 304.042,372.400 303.603 C 372.400 303.165,372.760 302.582,373.200 302.307 C 373.640 302.032,374.000 301.491,374.000 301.104 C 374.000 300.717,374.164 300.400,374.365 300.400 C 374.566 300.400,374.851 299.680,375.000 298.800 C 375.149 297.920,375.434 297.200,375.635 297.200 C 375.836 297.200,376.000 296.880,376.000 296.488 C 376.000 296.097,376.360 295.517,376.800 295.200 C 377.240 294.883,377.600 294.303,377.600 293.912 C 377.600 293.520,377.780 293.200,378.000 293.200 C 378.220 293.200,378.400 292.840,378.400 292.400 C 378.400 291.960,378.580 291.600,378.800 291.600 C 379.020 291.600,379.200 291.330,379.200 291.000 C 379.200 290.670,379.380 290.400,379.600 290.400 C 379.820 290.400,380.000 290.040,380.000 289.600 C 380.000 289.160,380.180 288.800,380.400 288.800 C 380.620 288.800,380.800 288.440,380.800 288.000 C 380.800 287.560,380.980 287.200,381.200 287.200 C 381.420 287.200,381.600 286.840,381.600 286.400 C 381.600 285.960,381.780 285.600,382.000 285.600 C 382.220 285.600,382.400 285.060,382.400 284.400 C 382.400 283.740,382.580 283.200,382.800 283.200 C 383.020 283.200,383.200 282.840,383.200 282.400 C 383.200 281.960,383.380 281.600,383.600 281.600 C 383.820 281.600,384.000 281.240,384.000 280.800 C 384.000 280.360,384.180 280.000,384.400 280.000 C 384.620 280.000,384.800 279.640,384.800 279.200 C 384.800 278.760,384.980 278.400,385.200 278.400 C 385.420 278.400,385.600 277.860,385.600 277.200 C 385.600 276.540,385.780 276.000,386.000 276.000 C 386.220 276.000,386.400 275.730,386.400 275.400 C 386.400 275.070,386.580 274.800,386.800 274.800 C 387.020 274.800,387.200 274.260,387.200 273.600 C 387.200 272.940,387.380 272.400,387.600 272.400 C 387.820 272.400,388.000 271.860,388.000 271.200 C 388.000 270.540,388.180 270.000,388.400 270.000 C 388.620 270.000,388.800 269.640,388.800 269.200 C 388.800 268.760,388.980 268.400,389.200 268.400 C 389.420 268.400,389.600 267.860,389.600 267.200 C 389.600 266.540,389.780 266.000,390.000 266.000 C 390.220 266.000,390.400 265.460,390.400 264.800 C 390.400 264.140,390.562 263.600,390.761 263.600 C 390.959 263.600,391.247 262.520,391.400 261.200 C 391.553 259.880,391.841 258.800,392.039 258.800 C 392.238 258.800,392.400 258.170,392.400 257.400 C 392.400 256.630,392.580 256.000,392.800 256.000 C 393.020 256.000,393.200 255.460,393.200 254.800 C 393.200 254.140,393.380 253.600,393.600 253.600 C 393.820 253.600,394.000 252.880,394.000 252.000 C 394.000 251.120,394.180 250.400,394.400 250.400 C 394.620 250.400,394.800 249.680,394.800 248.800 C 394.800 247.920,394.980 247.200,395.200 247.200 C 395.420 247.200,395.600 246.300,395.600 245.200 C 395.600 244.100,395.780 243.200,396.000 243.200 C 396.220 243.200,396.400 242.581,396.400 241.824 C 396.400 241.067,396.580 240.336,396.800 240.200 C 397.020 240.064,397.200 238.973,397.200 237.776 C 397.200 236.579,397.380 235.600,397.600 235.600 C 397.822 235.600,398.000 234.533,398.000 233.200 C 398.000 231.867,398.178 230.800,398.400 230.800 C 398.628 230.800,398.800 229.611,398.800 228.033 C 398.800 226.176,398.964 225.212,399.300 225.100 C 400.032 224.856,400.032 175.144,399.300 174.900 C 398.956 174.785,398.800 173.744,398.800 171.567 C 398.800 169.722,398.633 168.400,398.400 168.400 C 398.178 168.400,398.000 167.333,398.000 166.000 C 398.000 164.667,397.822 163.600,397.600 163.600 C 397.380 163.600,397.200 162.790,397.200 161.800 C 397.200 160.810,397.020 160.000,396.800 160.000 C 396.580 160.000,396.400 159.100,396.400 158.000 C 396.400 156.900,396.220 156.000,396.000 156.000 C 395.780 156.000,395.600 155.280,395.600 154.400 C 395.600 153.520,395.420 152.800,395.200 152.800 C 394.980 152.800,394.800 152.080,394.800 151.200 C 394.800 150.320,394.620 149.600,394.400 149.600 C 394.180 149.600,394.000 148.880,394.000 148.000 C 394.000 147.120,393.820 146.400,393.600 146.400 C 393.380 146.400,393.200 145.860,393.200 145.200 C 393.200 144.540,393.020 144.000,392.800 144.000 C 392.580 144.000,392.400 143.370,392.400 142.600 C 392.400 141.830,392.238 141.200,392.039 141.200 C 391.841 141.200,391.553 140.120,391.400 138.800 C 391.247 137.480,390.959 136.400,390.761 136.400 C 390.562 136.400,390.400 135.860,390.400 135.200 C 390.400 134.540,390.220 134.000,390.000 134.000 C 389.780 134.000,389.600 133.561,389.600 133.024 C 389.600 132.487,389.420 131.936,389.200 131.800 C 388.980 131.664,388.800 131.023,388.800 130.376 C 388.800 129.729,388.665 129.199,388.500 129.197 C 388.094 129.193,387.200 127.214,387.200 126.320 C 387.200 125.924,387.020 125.600,386.800 125.600 C 386.580 125.600,386.400 125.240,386.400 124.800 C 386.400 124.360,386.220 124.000,386.000 124.000 C 385.780 124.000,385.600 123.460,385.600 122.800 C 385.600 122.140,385.420 121.600,385.200 121.600 C 384.980 121.600,384.800 121.240,384.800 120.800 C 384.800 120.360,384.620 120.000,384.400 120.000 C 384.180 120.000,384.000 119.640,384.000 119.200 C 384.000 118.760,383.820 118.400,383.600 118.400 C 383.380 118.400,383.200 118.040,383.200 117.600 C 383.200 117.160,383.020 116.800,382.800 116.800 C 382.580 116.800,382.400 116.260,382.400 115.600 C 382.400 114.940,382.220 114.400,382.000 114.400 C 381.780 114.400,381.600 114.040,381.600 113.600 C 381.600 113.160,381.454 112.800,381.275 112.800 C 381.096 112.800,380.702 112.170,380.400 111.400 C 380.098 110.630,379.704 110.000,379.525 110.000 C 379.346 110.000,379.200 109.640,379.200 109.200 C 379.200 108.760,379.020 108.400,378.800 108.400 C 378.580 108.400,378.400 108.040,378.400 107.600 C 378.400 107.160,378.220 106.800,378.000 106.800 C 377.780 106.800,377.600 106.440,377.600 106.000 C 377.600 105.560,377.420 105.200,377.200 105.200 C 376.980 105.200,376.800 104.880,376.800 104.488 C 376.800 104.097,376.440 103.517,376.000 103.200 C 375.560 102.883,375.200 102.383,375.200 102.090 C 375.200 101.345,373.688 98.102,373.200 97.800 C 372.979 97.663,372.430 96.743,371.980 95.756 C 371.530 94.768,370.900 93.860,370.581 93.737 C 370.261 93.615,370.000 93.213,370.000 92.846 C 370.000 92.478,369.640 91.917,369.200 91.600 C 368.760 91.283,368.400 90.743,368.400 90.400 C 368.400 90.057,368.040 89.517,367.600 89.200 C 367.160 88.883,366.800 88.343,366.800 88.000 C 366.800 87.657,366.440 87.117,366.000 86.800 C 365.560 86.483,365.200 85.943,365.200 85.600 C 365.200 85.257,364.840 84.717,364.400 84.400 C 363.960 84.083,363.600 83.575,363.600 83.272 C 363.600 82.969,363.060 82.217,362.400 81.600 C 361.740 80.983,361.200 80.263,361.200 80.000 C 361.200 79.737,360.660 79.017,360.000 78.400 C 359.340 77.783,358.800 77.087,358.800 76.853 C 358.800 76.618,358.170 75.797,357.400 75.027 C 356.630 74.257,356.000 73.429,356.000 73.187 C 356.000 72.946,355.100 71.871,354.000 70.800 C 352.900 69.729,352.000 68.653,352.000 68.409 C 352.000 68.166,350.155 66.179,347.900 63.994 C 342.831 59.082,342.661 58.913,336.810 52.900 C 334.186 50.205,331.840 48.000,331.594 48.000 C 331.349 48.000,330.300 47.130,329.264 46.066 C 328.228 45.002,326.890 44.009,326.290 43.858 C 325.691 43.708,325.200 43.436,325.200 43.254 C 325.200 42.707,323.743 41.200,323.214 41.200 C 322.943 41.200,322.217 40.660,321.600 40.000 C 320.983 39.340,320.263 38.800,320.000 38.800 C 319.737 38.800,319.017 38.260,318.400 37.600 C 317.783 36.940,317.031 36.400,316.728 36.400 C 316.425 36.400,315.917 36.040,315.600 35.600 C 315.283 35.160,314.743 34.800,314.400 34.800 C 314.057 34.800,313.517 34.440,313.200 34.000 C 312.883 33.560,312.343 33.200,312.000 33.200 C 311.657 33.200,311.117 32.840,310.800 32.400 C 310.483 31.960,309.946 31.600,309.608 31.600 C 309.269 31.600,308.768 31.240,308.493 30.800 C 308.218 30.360,307.747 30.000,307.446 30.000 C 307.144 30.000,306.660 29.714,306.370 29.364 C 306.080 29.014,304.978 28.350,303.921 27.889 C 302.864 27.428,302.000 26.904,302.000 26.725 C 302.000 26.546,301.640 26.400,301.200 26.400 C 300.760 26.400,300.400 26.220,300.400 26.000 C 300.400 25.780,300.040 25.600,299.600 25.600 C 299.160 25.600,298.800 25.420,298.800 25.200 C 298.800 24.980,298.480 24.800,298.088 24.800 C 297.697 24.800,297.117 24.440,296.800 24.000 C 296.483 23.560,295.903 23.200,295.512 23.200 C 295.120 23.200,294.800 23.020,294.800 22.800 C 294.800 22.580,294.440 22.400,294.000 22.400 C 293.560 22.400,293.200 22.220,293.200 22.000 C 293.200 21.780,292.840 21.600,292.400 21.600 C 291.960 21.600,291.600 21.420,291.600 21.200 C 291.600 20.980,291.330 20.800,291.000 20.800 C 290.670 20.800,290.400 20.620,290.400 20.400 C 290.400 20.180,290.040 20.000,289.600 20.000 C 289.160 20.000,288.800 19.820,288.800 19.600 C 288.800 19.380,288.440 19.200,288.000 19.200 C 287.560 19.200,287.200 19.020,287.200 18.800 C 287.200 18.580,286.840 18.400,286.400 18.400 C 285.960 18.400,285.600 18.220,285.600 18.000 C 285.600 17.780,285.240 17.600,284.800 17.600 C 284.360 17.600,284.000 17.420,284.000 17.200 C 284.000 16.980,283.460 16.800,282.800 16.800 C 282.140 16.800,281.600 16.620,281.600 16.400 C 281.600 16.180,281.240 16.000,280.800 16.000 C 280.360 16.000,280.000 15.820,280.000 15.600 C 280.000 15.380,279.640 15.200,279.200 15.200 C 278.760 15.200,278.400 15.020,278.400 14.800 C 278.400 14.580,277.860 14.400,277.200 14.400 C 276.540 14.400,275.999 14.265,275.997 14.100 C 275.993 13.744,274.059 12.800,273.332 12.800 C 273.053 12.800,272.183 12.440,271.400 12.000 C 270.617 11.560,269.621 11.200,269.188 11.200 C 268.755 11.200,268.400 11.038,268.400 10.839 C 268.400 10.641,267.320 10.353,266.000 10.200 C 264.680 10.047,263.600 9.759,263.600 9.561 C 263.600 9.362,263.060 9.200,262.400 9.200 C 261.740 9.200,261.200 9.020,261.200 8.800 C 261.200 8.580,260.660 8.400,260.000 8.400 C 259.340 8.400,258.800 8.220,258.800 8.000 C 258.800 7.780,258.170 7.600,257.400 7.600 C 256.630 7.600,256.000 7.420,256.000 7.200 C 256.000 6.980,255.460 6.800,254.800 6.800 C 254.140 6.800,253.600 6.620,253.600 6.400 C 253.600 6.180,252.880 6.000,252.000 6.000 C 251.120 6.000,250.400 5.820,250.400 5.600 C 250.400 5.380,249.680 5.200,248.800 5.200 C 247.920 5.200,247.200 5.020,247.200 4.800 C 247.200 4.580,246.480 4.400,245.600 4.400 C 244.720 4.400,244.000 4.220,244.000 4.000 C 244.000 3.780,243.190 3.600,242.200 3.600 C 241.210 3.600,240.400 3.420,240.400 3.200 C 240.400 2.980,239.500 2.800,238.400 2.800 C 237.300 2.800,236.400 2.620,236.400 2.400 C 236.400 2.178,235.333 2.000,234.000 2.000 C 232.667 2.000,231.600 1.822,231.600 1.600 C 231.600 1.367,230.278 1.200,228.433 1.200 C 226.288 1.200,225.214 1.042,225.103 0.709 C 224.941 0.224,188.617 -0.116,178.700 0.275 M222.200 127.600 C 222.351 127.845,225.530 128.000,230.400 128.000 C 235.270 128.000,238.449 128.155,238.600 128.400 C 238.746 128.636,241.130 128.800,244.400 128.800 C 247.670 128.800,250.054 128.964,250.200 129.200 C 250.336 129.421,252.130 129.600,254.200 129.600 C 256.270 129.600,258.064 129.779,258.200 130.000 C 258.339 130.225,260.271 130.400,262.624 130.400 C 264.921 130.400,266.800 130.554,266.800 130.742 C 266.800 130.930,268.002 131.197,269.472 131.334 C 270.941 131.471,272.327 131.767,272.552 131.992 C 272.776 132.216,273.279 132.400,273.668 132.400 C 274.057 132.400,275.017 132.760,275.800 133.200 C 276.583 133.640,277.461 134.000,277.751 134.000 C 278.504 134.000,280.629 135.112,281.207 135.808 C 281.477 136.134,281.918 136.400,282.187 136.400 C 282.456 136.400,283.002 136.760,283.400 137.200 C 283.798 137.640,284.319 138.000,284.558 138.000 C 285.116 138.000,291.600 144.695,291.600 145.271 C 291.600 145.510,291.917 145.997,292.304 146.353 C 293.552 147.499,295.600 152.022,295.600 153.633 C 295.600 154.469,295.780 155.264,296.000 155.400 C 296.220 155.536,296.400 156.627,296.400 157.824 C 296.400 159.021,296.580 160.000,296.800 160.000 C 297.025 160.000,297.200 161.125,297.200 162.576 C 297.200 163.993,297.380 165.264,297.600 165.400 C 297.820 165.536,298.000 166.976,298.000 168.600 C 298.000 170.224,298.180 171.664,298.400 171.800 C 298.621 171.937,298.800 173.737,298.800 175.824 C 298.800 178.075,298.962 179.600,299.200 179.600 C 299.454 179.600,299.600 182.600,299.600 187.800 C 299.600 193.000,299.746 196.000,300.000 196.000 C 300.237 196.000,300.400 197.459,300.400 199.576 C 300.400 201.543,300.220 203.264,300.000 203.400 C 299.755 203.551,299.600 206.730,299.600 211.600 C 299.600 216.470,299.445 219.649,299.200 219.800 C 298.980 219.936,298.800 221.646,298.800 223.600 C 298.800 225.554,298.620 227.264,298.400 227.400 C 298.180 227.536,298.000 228.976,298.000 230.600 C 298.000 232.224,297.820 233.664,297.600 233.800 C 297.380 233.936,297.200 235.207,297.200 236.624 C 297.200 238.075,297.025 239.200,296.800 239.200 C 296.578 239.200,296.400 240.267,296.400 241.600 C 296.400 242.933,296.222 244.000,296.000 244.000 C 295.780 244.000,295.600 244.900,295.600 246.000 C 295.600 247.100,295.420 248.000,295.200 248.000 C 294.980 248.000,294.800 248.325,294.800 248.721 C 294.800 249.745,292.804 253.624,292.148 253.875 C 291.847 253.991,291.600 254.361,291.600 254.697 C 291.600 255.400,285.228 262.000,284.549 262.000 C 284.301 262.000,283.881 262.262,283.615 262.582 C 283.349 262.902,281.752 263.841,280.066 264.669 C 278.380 265.496,276.940 266.314,276.867 266.486 C 276.793 266.659,276.399 266.800,275.990 266.800 C 275.582 266.800,275.136 266.980,275.000 267.200 C 274.864 267.420,274.313 267.600,273.776 267.600 C 273.239 267.600,272.800 267.780,272.800 268.000 C 272.800 268.220,272.271 268.400,271.624 268.400 C 270.977 268.400,270.336 268.580,270.200 268.800 C 270.064 269.020,269.254 269.200,268.400 269.200 C 267.546 269.200,266.736 269.380,266.600 269.600 C 266.461 269.825,264.556 270.000,262.256 270.000 C 260.003 270.000,257.986 270.174,257.774 270.386 C 257.562 270.598,253.199 270.897,248.079 271.049 C 242.958 271.202,238.675 271.478,238.561 271.663 C 238.446 271.849,234.954 272.000,230.800 272.000 C 226.196 272.000,223.151 272.156,223.000 272.400 C 222.840 272.659,214.729 272.800,199.976 272.800 C 185.059 272.800,177.200 272.662,177.200 272.400 C 177.200 272.147,174.341 272.000,169.424 272.000 C 165.147 272.000,161.553 271.847,161.437 271.660 C 161.322 271.473,157.039 271.191,151.921 271.032 C 146.802 270.873,142.428 270.589,142.200 270.400 C 141.973 270.212,139.990 269.969,137.793 269.860 C 133.056 269.627,130.342 269.252,129.820 268.759 C 129.611 268.562,129.037 268.400,128.544 268.400 C 128.051 268.400,127.536 268.220,127.400 268.000 C 127.264 267.780,126.850 267.600,126.479 267.600 C 125.600 267.600,116.997 263.319,116.378 262.574 C 116.116 262.258,115.724 262.000,115.507 262.000 C 114.905 262.000,108.400 255.257,108.400 254.633 C 108.400 254.332,108.153 253.991,107.852 253.875 C 107.204 253.627,105.200 249.750,105.200 248.745 C 105.200 248.361,105.020 247.936,104.800 247.800 C 104.580 247.664,104.400 246.764,104.400 245.800 C 104.400 244.836,104.220 243.936,104.000 243.800 C 103.780 243.664,103.600 242.573,103.600 241.376 C 103.600 240.179,103.420 239.200,103.200 239.200 C 102.975 239.200,102.800 238.075,102.800 236.624 C 102.800 235.207,102.620 233.936,102.400 233.800 C 102.180 233.664,102.000 232.224,102.000 230.600 C 102.000 228.976,101.820 227.536,101.600 227.400 C 101.379 227.263,101.200 225.463,101.200 223.376 C 101.200 221.125,101.038 219.600,100.800 219.600 C 100.539 219.600,100.400 212.800,100.400 200.000 C 100.400 187.200,100.539 180.400,100.800 180.400 C 101.038 180.400,101.200 178.875,101.200 176.624 C 101.200 174.537,101.379 172.737,101.600 172.600 C 101.820 172.464,102.000 171.024,102.000 169.400 C 102.000 167.776,102.180 166.336,102.400 166.200 C 102.620 166.064,102.800 164.793,102.800 163.376 C 102.800 161.925,102.975 160.800,103.200 160.800 C 103.420 160.800,103.600 159.821,103.600 158.624 C 103.600 157.427,103.780 156.336,104.000 156.200 C 104.220 156.064,104.400 155.164,104.400 154.200 C 104.400 153.236,104.580 152.336,104.800 152.200 C 105.020 152.064,105.200 151.620,105.200 151.214 C 105.200 150.276,106.781 147.203,107.700 146.353 C 108.085 145.997,108.400 145.507,108.400 145.263 C 108.400 144.710,114.967 138.000,115.507 138.000 C 115.724 138.000,116.116 137.742,116.378 137.426 C 116.997 136.681,125.600 132.400,126.479 132.400 C 126.850 132.400,127.257 132.232,127.383 132.027 C 127.510 131.822,129.051 131.528,130.807 131.375 C 132.563 131.222,134.000 130.940,134.000 130.748 C 134.000 130.557,135.800 130.400,138.000 130.400 C 140.400 130.400,142.000 130.240,142.000 130.000 C 142.000 129.759,143.659 129.600,146.176 129.600 C 148.529 129.600,150.461 129.425,150.600 129.200 C 150.746 128.963,153.204 128.800,156.624 128.800 C 160.208 128.800,162.400 128.648,162.400 128.400 C 162.400 128.147,165.267 128.000,170.200 128.000 C 175.133 128.000,178.000 127.853,178.000 127.600 C 178.000 127.338,185.592 127.200,199.976 127.200 C 214.196 127.200,222.040 127.341,222.200 127.600 M176.032 200.500 C 176.049 221.675,176.154 238.775,176.265 238.500 C 176.376 238.225,176.772 238.000,177.145 238.000 C 177.518 238.000,178.083 237.640,178.400 237.200 C 178.717 236.760,179.257 236.400,179.600 236.400 C 179.943 236.400,180.483 236.040,180.800 235.600 C 181.117 235.160,181.697 234.800,182.088 234.800 C 182.480 234.800,182.800 234.620,182.800 234.400 C 182.800 234.180,182.971 234.000,183.180 234.000 C 183.389 234.000,184.334 233.483,185.280 232.850 C 186.226 232.218,187.405 231.576,187.900 231.423 C 188.395 231.271,188.800 230.978,188.800 230.773 C 188.800 230.568,189.120 230.400,189.512 230.400 C 189.903 230.400,190.483 230.040,190.800 229.600 C 191.117 229.160,191.697 228.800,192.088 228.800 C 192.480 228.800,192.800 228.620,192.800 228.400 C 192.800 228.180,193.120 228.000,193.512 228.000 C 193.903 228.000,194.483 227.640,194.800 227.200 C 195.117 226.760,195.697 226.400,196.088 226.400 C 196.480 226.400,196.800 226.220,196.800 226.000 C 196.800 225.780,197.042 225.600,197.338 225.600 C 197.634 225.600,198.202 225.240,198.600 224.800 C 198.998 224.360,199.544 224.000,199.813 224.000 C 200.082 224.000,200.534 223.721,200.816 223.380 C 201.099 223.039,202.100 222.410,203.041 221.981 C 203.982 221.553,204.863 221.021,205.000 220.800 C 205.137 220.579,206.037 220.039,207.000 219.600 C 207.963 219.161,208.860 218.626,208.993 218.412 C 209.125 218.197,209.901 217.716,210.717 217.344 C 211.533 216.971,212.516 216.397,212.903 216.068 C 213.769 215.332,215.169 214.496,216.100 214.160 C 216.485 214.021,216.800 213.748,216.800 213.553 C 216.800 213.359,217.120 213.200,217.512 213.200 C 217.903 213.200,218.483 212.840,218.800 212.400 C 219.117 211.960,219.697 211.600,220.088 211.600 C 220.480 211.600,220.800 211.420,220.800 211.200 C 220.800 210.980,221.120 210.800,221.512 210.800 C 221.903 210.800,222.483 210.440,222.800 210.000 C 223.117 209.560,223.657 209.200,224.000 209.200 C 224.343 209.200,224.883 208.840,225.200 208.400 C 225.517 207.960,226.097 207.600,226.488 207.600 C 226.880 207.600,227.200 207.420,227.200 207.200 C 227.200 206.980,227.520 206.800,227.912 206.800 C 228.303 206.800,228.883 206.440,229.200 206.000 C 229.517 205.560,230.097 205.200,230.488 205.200 C 230.880 205.200,231.200 205.020,231.200 204.800 C 231.200 204.580,231.442 204.400,231.738 204.400 C 232.034 204.400,232.602 204.040,233.000 203.600 C 233.398 203.160,233.938 202.800,234.200 202.800 C 234.462 202.800,234.970 202.475,235.329 202.078 C 235.689 201.681,236.617 201.107,237.391 200.803 C 238.166 200.499,238.800 200.138,238.800 200.000 C 238.800 199.862,238.166 199.501,237.391 199.197 C 236.617 198.893,235.689 198.319,235.329 197.922 C 234.970 197.525,234.462 197.200,234.200 197.200 C 233.938 197.200,233.398 196.840,233.000 196.400 C 232.602 195.960,232.034 195.600,231.738 195.600 C 231.442 195.600,231.200 195.420,231.200 195.200 C 231.200 194.980,230.880 194.800,230.488 194.800 C 230.097 194.800,229.517 194.440,229.200 194.000 C 228.883 193.560,228.303 193.200,227.912 193.200 C 227.520 193.200,227.200 193.020,227.200 192.800 C 227.200 192.580,226.880 192.400,226.488 192.400 C 226.097 192.400,225.517 192.040,225.200 191.600 C 224.883 191.160,224.343 190.800,224.000 190.800 C 223.657 190.800,223.117 190.440,222.800 190.000 C 222.483 189.560,221.903 189.200,221.512 189.200 C 221.120 189.200,220.800 189.020,220.800 188.800 C 220.800 188.580,220.440 188.400,220.000 188.400 C 219.560 188.400,219.200 188.265,219.199 188.100 C 219.199 187.935,218.209 187.283,216.999 186.651 C 215.790 186.019,214.800 185.344,214.800 185.151 C 214.800 184.958,214.440 184.800,214.000 184.800 C 213.560 184.800,213.200 184.620,213.200 184.400 C 213.200 184.180,212.964 184.000,212.675 184.000 C 212.387 184.000,211.764 183.640,211.292 183.200 C 210.820 182.760,210.196 182.400,209.905 182.400 C 209.614 182.400,209.117 182.040,208.800 181.600 C 208.483 181.160,207.903 180.800,207.512 180.800 C 207.120 180.800,206.800 180.620,206.800 180.400 C 206.800 180.180,206.564 180.000,206.275 180.000 C 205.987 180.000,205.402 179.679,204.975 179.287 C 204.549 178.895,203.550 178.268,202.755 177.894 C 201.960 177.521,201.083 176.941,200.806 176.607 C 200.529 176.273,200.076 176.000,199.800 176.000 C 199.524 176.000,199.071 175.727,198.794 175.393 C 198.517 175.059,197.640 174.479,196.845 174.106 C 196.050 173.732,195.051 173.105,194.625 172.713 C 194.198 172.321,193.613 172.000,193.325 172.000 C 193.036 172.000,192.800 171.820,192.800 171.600 C 192.800 171.380,192.462 171.200,192.049 171.200 C 191.636 171.200,191.074 170.930,190.800 170.600 C 190.526 170.270,190.076 170.000,189.800 170.000 C 189.524 170.000,189.066 169.721,188.784 169.380 C 188.501 169.039,187.500 168.410,186.559 167.981 C 185.618 167.553,184.740 167.026,184.607 166.812 C 184.475 166.597,183.699 166.111,182.883 165.731 C 182.067 165.351,181.109 164.717,180.753 164.320 C 180.397 163.924,179.852 163.600,179.541 163.600 C 179.231 163.600,178.717 163.240,178.400 162.800 C 178.083 162.360,177.413 162.000,176.912 162.000 L 176.000 162.000 176.032 200.500 " stroke="none" fill="#04acec" fill-rule="evenodd"></path><path id="path2" d="" stroke="none" fill="#100d4f4" fill-rule="evenodd"></path><path id="path3" d="M178.000 127.600 C 178.000 127.850,175.039 128.034,170.100 128.091 L 162.200 128.182 169.971 128.300 C 174.891 128.374,177.892 128.268,178.151 128.009 C 178.710 127.450,222.000 127.442,222.000 128.000 C 222.000 128.254,225.000 128.400,230.200 128.400 C 235.400 128.400,238.400 128.546,238.400 128.800 C 238.400 129.048,240.573 129.200,244.120 129.200 C 247.266 129.200,250.011 129.368,250.220 129.573 C 250.429 129.778,252.220 130.044,254.200 130.164 C 256.180 130.284,259.825 130.521,262.301 130.691 C 264.776 130.861,266.801 130.865,266.801 130.700 C 266.800 130.535,264.921 130.400,262.624 130.400 C 260.271 130.400,258.339 130.225,258.200 130.000 C 258.064 129.779,256.270 129.600,254.200 129.600 C 252.130 129.600,250.336 129.421,250.200 129.200 C 250.054 128.964,247.670 128.800,244.400 128.800 C 241.130 128.800,238.746 128.636,238.600 128.400 C 238.449 128.155,235.270 128.000,230.400 128.000 C 225.530 128.000,222.351 127.845,222.200 127.600 C 222.040 127.341,214.196 127.200,199.976 127.200 C 185.592 127.200,178.000 127.338,178.000 127.600 M150.600 129.200 C 150.461 129.425,148.529 129.600,146.176 129.600 C 143.659 129.600,142.000 129.759,142.000 130.000 C 142.000 130.240,140.400 130.400,138.000 130.400 C 135.800 130.400,134.000 130.535,133.999 130.700 C 133.998 131.130,141.724 130.821,142.180 130.373 C 142.389 130.168,144.288 130.000,146.400 130.000 C 148.512 130.000,150.415 129.825,150.628 129.612 C 150.842 129.398,153.623 129.168,156.808 129.100 L 162.600 128.976 156.724 128.888 C 153.139 128.834,150.751 128.956,150.600 129.200 M129.200 131.493 C 128.430 131.583,127.629 131.824,127.420 132.029 C 127.211 132.233,126.762 132.400,126.423 132.400 C 125.584 132.400,116.974 136.709,116.378 137.426 C 116.116 137.742,115.724 138.000,115.507 138.000 C 114.967 138.000,108.400 144.710,108.400 145.263 C 108.400 145.507,108.085 145.997,107.700 146.353 C 106.781 147.203,105.200 150.276,105.200 151.214 C 105.200 151.620,105.020 152.064,104.800 152.200 C 104.580 152.336,104.400 153.236,104.400 154.200 C 104.400 155.164,104.220 156.064,104.000 156.200 C 103.780 156.336,103.600 157.427,103.600 158.624 C 103.600 159.821,103.420 160.800,103.200 160.800 C 102.975 160.800,102.800 161.925,102.800 163.376 C 102.800 164.793,102.620 166.064,102.400 166.200 C 102.180 166.336,102.000 167.776,102.000 169.400 C 102.000 171.024,101.820 172.464,101.600 172.600 C 101.379 172.737,101.200 174.537,101.200 176.624 C 101.200 178.875,101.038 180.400,100.800 180.400 C 100.539 180.400,100.400 187.200,100.400 200.000 C 100.400 212.800,100.539 219.600,100.800 219.600 C 101.038 219.600,101.200 221.125,101.200 223.376 C 101.200 225.463,101.379 227.263,101.600 227.400 C 101.820 227.536,102.000 228.976,102.000 230.600 C 102.000 232.224,102.180 233.664,102.400 233.800 C 102.620 233.936,102.800 235.207,102.800 236.624 C 102.800 238.075,102.975 239.200,103.200 239.200 C 103.420 239.200,103.600 240.179,103.600 241.376 C 103.600 242.573,103.780 243.664,104.000 243.800 C 104.220 243.936,104.400 244.836,104.400 245.800 C 104.400 246.764,104.580 247.664,104.800 247.800 C 105.020 247.936,105.200 248.361,105.200 248.745 C 105.200 249.129,105.666 250.377,106.235 251.519 C 107.254 253.564,108.000 254.454,108.000 253.624 C 108.000 253.391,107.820 253.200,107.600 253.200 C 107.380 253.200,107.200 252.840,107.200 252.400 C 107.200 251.960,107.020 251.600,106.800 251.600 C 106.580 251.600,106.400 251.240,106.400 250.800 C 106.400 250.360,106.220 250.000,106.000 250.000 C 105.780 250.000,105.600 249.460,105.600 248.800 C 105.600 248.140,105.420 247.600,105.200 247.600 C 104.980 247.600,104.800 246.801,104.800 245.824 C 104.800 244.847,104.620 243.936,104.400 243.800 C 104.180 243.664,104.000 242.584,104.000 241.400 C 104.000 240.216,103.820 239.136,103.600 239.000 C 103.380 238.864,103.200 237.604,103.200 236.200 C 103.200 234.796,103.020 233.536,102.800 233.400 C 102.580 233.264,102.400 231.813,102.400 230.176 C 102.400 228.459,102.231 227.200,102.000 227.200 C 101.762 227.200,101.600 225.675,101.600 223.424 C 101.600 221.337,101.421 219.537,101.200 219.400 C 100.942 219.241,100.800 212.337,100.800 200.000 C 100.800 187.663,100.942 180.759,101.200 180.600 C 101.421 180.463,101.600 178.663,101.600 176.576 C 101.600 174.325,101.762 172.800,102.000 172.800 C 102.231 172.800,102.400 171.541,102.400 169.824 C 102.400 168.187,102.580 166.736,102.800 166.600 C 103.020 166.464,103.200 165.204,103.200 163.800 C 103.200 162.396,103.380 161.136,103.600 161.000 C 103.820 160.864,104.000 159.773,104.000 158.576 C 104.000 157.379,104.180 156.400,104.400 156.400 C 104.620 156.400,104.800 155.500,104.800 154.400 C 104.800 153.300,104.980 152.400,105.200 152.400 C 105.420 152.400,105.600 151.860,105.600 151.200 C 105.600 150.540,105.780 150.000,106.000 150.000 C 106.220 150.000,106.400 149.640,106.400 149.200 C 106.400 148.760,106.580 148.400,106.800 148.400 C 107.020 148.400,107.200 148.158,107.200 147.862 C 107.200 147.566,107.560 146.998,108.000 146.600 C 108.440 146.202,108.800 145.675,108.800 145.429 C 108.800 144.858,115.274 138.400,115.846 138.400 C 116.083 138.400,116.602 138.040,117.000 137.600 C 117.398 137.160,117.966 136.800,118.262 136.800 C 118.558 136.800,118.800 136.620,118.800 136.400 C 118.800 136.180,119.034 136.000,119.320 136.000 C 120.056 136.000,121.993 135.059,121.997 134.700 C 121.999 134.535,122.360 134.400,122.800 134.400 C 123.240 134.400,123.600 134.220,123.600 134.000 C 123.600 133.780,123.960 133.600,124.400 133.600 C 124.840 133.600,125.200 133.420,125.200 133.200 C 125.200 132.980,125.639 132.800,126.176 132.800 C 126.713 132.800,127.264 132.620,127.400 132.400 C 127.536 132.180,128.256 132.000,129.000 132.000 C 129.744 132.000,130.464 131.820,130.600 131.600 C 130.736 131.380,130.792 131.229,130.724 131.264 C 130.656 131.299,129.970 131.402,129.200 131.493 M270.245 131.672 C 270.356 131.853,270.876 132.000,271.400 132.000 C 271.924 132.000,272.464 132.180,272.600 132.400 C 272.736 132.620,273.287 132.800,273.824 132.800 C 274.361 132.800,274.800 132.980,274.800 133.200 C 274.800 133.420,275.160 133.600,275.600 133.600 C 276.040 133.600,276.400 133.780,276.400 134.000 C 276.400 134.220,276.940 134.400,277.600 134.400 C 278.260 134.400,278.800 134.580,278.800 134.800 C 278.800 135.020,279.120 135.200,279.512 135.200 C 279.903 135.200,280.483 135.560,280.800 136.000 C 281.117 136.440,281.657 136.800,282.000 136.800 C 282.343 136.800,282.883 137.160,283.200 137.600 C 283.517 138.040,284.005 138.400,284.285 138.400 C 284.564 138.400,285.309 138.940,285.940 139.600 C 286.571 140.260,287.237 140.800,287.422 140.800 C 287.606 140.800,287.146 140.170,286.400 139.400 C 285.654 138.630,284.836 138.000,284.584 138.000 C 284.331 138.000,283.798 137.640,283.400 137.200 C 283.002 136.760,282.456 136.400,282.187 136.400 C 281.918 136.400,281.477 136.134,281.207 135.808 C 280.629 135.112,278.504 134.000,277.751 134.000 C 277.461 134.000,276.583 133.640,275.800 133.200 C 275.017 132.760,274.032 132.400,273.611 132.400 C 273.191 132.400,272.749 132.241,272.629 132.046 C 272.508 131.851,271.877 131.614,271.226 131.518 C 270.575 131.423,270.133 131.492,270.245 131.672 M289.315 143.114 C 290.352 144.166,291.200 145.218,291.200 145.452 C 291.200 145.685,291.560 146.202,292.000 146.600 C 292.440 146.998,292.800 147.566,292.800 147.862 C 292.800 148.158,292.980 148.400,293.200 148.400 C 293.420 148.400,293.600 148.760,293.600 149.200 C 293.600 149.640,293.780 150.000,294.000 150.000 C 294.220 150.000,294.400 150.360,294.400 150.800 C 294.400 151.240,294.580 151.600,294.800 151.600 C 295.020 151.600,295.200 152.399,295.200 153.376 C 295.200 154.353,295.380 155.264,295.600 155.400 C 295.820 155.536,296.000 156.616,296.000 157.800 C 296.000 158.984,296.180 160.064,296.400 160.200 C 296.620 160.336,296.800 161.596,296.800 163.000 C 296.800 164.404,296.980 165.664,297.200 165.800 C 297.420 165.936,297.600 167.387,297.600 169.024 C 297.600 170.741,297.769 172.000,298.000 172.000 C 298.238 172.000,298.400 173.525,298.400 175.776 C 298.400 177.863,298.579 179.663,298.800 179.800 C 299.045 179.951,299.200 183.130,299.200 188.000 C 299.200 192.870,299.355 196.049,299.600 196.200 C 299.820 196.336,300.000 197.866,300.000 199.600 C 300.000 201.334,299.820 202.864,299.600 203.000 C 299.355 203.151,299.200 206.330,299.200 211.200 C 299.200 216.070,299.045 219.249,298.800 219.400 C 298.579 219.536,298.400 221.330,298.400 223.400 C 298.400 225.470,298.221 227.264,298.000 227.400 C 297.780 227.536,297.600 228.987,297.600 230.624 C 297.600 232.341,297.431 233.600,297.200 233.600 C 296.975 233.600,296.800 234.725,296.800 236.176 C 296.800 237.593,296.620 238.864,296.400 239.000 C 296.180 239.136,296.000 240.216,296.000 241.400 C 296.000 242.584,295.820 243.664,295.600 243.800 C 295.380 243.936,295.200 244.836,295.200 245.800 C 295.200 246.764,295.020 247.664,294.800 247.800 C 294.580 247.936,294.400 248.487,294.400 249.024 C 294.400 249.561,294.220 250.000,294.000 250.000 C 293.780 250.000,293.600 250.360,293.600 250.800 C 293.600 251.240,293.420 251.600,293.200 251.600 C 292.980 251.600,292.800 251.960,292.800 252.400 C 292.800 252.840,292.620 253.200,292.400 253.200 C 292.180 253.200,292.000 253.391,292.000 253.624 C 292.000 254.454,292.746 253.564,293.765 251.519 C 294.334 250.377,294.800 249.118,294.800 248.721 C 294.800 248.325,294.980 248.000,295.200 248.000 C 295.420 248.000,295.600 247.100,295.600 246.000 C 295.600 244.900,295.780 244.000,296.000 244.000 C 296.222 244.000,296.400 242.933,296.400 241.600 C 296.400 240.267,296.578 239.200,296.800 239.200 C 297.025 239.200,297.200 238.075,297.200 236.624 C 297.200 235.207,297.380 233.936,297.600 233.800 C 297.820 233.664,298.000 232.224,298.000 230.600 C 298.000 228.976,298.180 227.536,298.400 227.400 C 298.620 227.264,298.800 225.554,298.800 223.600 C 298.800 221.646,298.980 219.936,299.200 219.800 C 299.445 219.649,299.600 216.470,299.600 211.600 C 299.600 206.730,299.755 203.551,300.000 203.400 C 300.220 203.264,300.400 201.543,300.400 199.576 C 300.400 197.459,300.237 196.000,300.000 196.000 C 299.746 196.000,299.600 193.000,299.600 187.800 C 299.600 182.600,299.454 179.600,299.200 179.600 C 298.962 179.600,298.800 178.075,298.800 175.824 C 298.800 173.737,298.621 171.937,298.400 171.800 C 298.180 171.664,298.000 170.224,298.000 168.600 C 298.000 166.976,297.820 165.536,297.600 165.400 C 297.380 165.264,297.200 163.993,297.200 162.576 C 297.200 161.125,297.025 160.000,296.800 160.000 C 296.580 160.000,296.400 159.021,296.400 157.824 C 296.400 156.627,296.220 155.536,296.000 155.400 C 295.780 155.264,295.600 154.469,295.600 153.633 C 295.600 152.022,293.552 147.499,292.304 146.353 C 291.917 145.997,291.600 145.498,291.600 145.243 C 291.600 144.739,288.208 141.200,287.726 141.200 C 287.563 141.200,288.278 142.061,289.315 143.114 M175.867 161.867 C 175.546 162.188,175.503 238.570,175.824 238.891 C 176.118 239.184,178.179 238.148,178.807 237.392 C 179.077 237.066,179.524 236.800,179.800 236.800 C 180.076 236.800,180.534 236.521,180.816 236.180 C 181.099 235.839,182.100 235.210,183.041 234.781 C 183.982 234.353,184.863 233.821,185.000 233.600 C 185.137 233.379,186.003 232.827,186.924 232.374 C 189.247 231.231,190.279 230.628,191.097 229.932 C 191.484 229.603,192.467 229.029,193.283 228.656 C 194.099 228.284,194.871 227.808,195.000 227.600 C 195.129 227.392,195.901 226.911,196.717 226.531 C 197.533 226.151,198.491 225.517,198.847 225.120 C 199.203 224.724,199.748 224.400,200.059 224.400 C 200.369 224.400,200.883 224.040,201.200 223.600 C 201.517 223.160,202.097 222.800,202.488 222.800 C 202.880 222.800,203.200 222.620,203.200 222.400 C 203.200 222.180,203.520 222.000,203.912 222.000 C 204.303 222.000,204.883 221.640,205.200 221.200 C 205.517 220.760,206.097 220.400,206.488 220.400 C 206.880 220.400,207.200 220.220,207.200 220.000 C 207.200 219.780,207.436 219.600,207.725 219.600 C 208.013 219.600,208.598 219.285,209.025 218.900 C 209.451 218.515,210.340 217.938,211.000 217.617 C 211.660 217.297,212.516 216.773,212.903 216.453 C 213.733 215.765,214.793 215.149,217.076 214.026 C 217.997 213.573,218.863 213.021,219.000 212.800 C 219.137 212.579,220.018 212.047,220.959 211.619 C 221.900 211.190,222.901 210.561,223.184 210.220 C 223.466 209.879,223.924 209.600,224.200 209.600 C 224.476 209.600,224.934 209.321,225.216 208.980 C 225.499 208.639,226.500 208.010,227.441 207.581 C 228.382 207.153,229.263 206.621,229.400 206.400 C 229.537 206.179,230.418 205.647,231.359 205.219 C 232.300 204.790,233.301 204.161,233.584 203.820 C 233.866 203.479,234.318 203.200,234.587 203.200 C 234.856 203.200,235.402 202.840,235.800 202.400 C 236.198 201.960,236.766 201.600,237.062 201.600 C 237.358 201.600,237.600 201.420,237.600 201.200 C 237.600 200.980,237.960 200.800,238.400 200.800 C 238.933 200.800,239.200 200.533,239.200 200.000 C 239.200 199.467,238.933 199.200,238.400 199.200 C 237.960 199.200,237.600 199.020,237.600 198.800 C 237.600 198.580,237.280 198.400,236.888 198.400 C 236.497 198.400,235.917 198.040,235.600 197.600 C 235.283 197.160,234.743 196.800,234.400 196.800 C 234.057 196.800,233.517 196.440,233.200 196.000 C 232.883 195.560,232.258 195.211,231.812 195.225 L 231.000 195.251 231.814 195.581 C 232.262 195.762,232.869 196.201,233.163 196.555 C 233.457 196.910,233.918 197.200,234.187 197.200 C 234.456 197.200,234.970 197.525,235.329 197.922 C 235.689 198.319,236.617 198.893,237.391 199.197 C 239.152 199.888,239.152 200.112,237.391 200.803 C 236.617 201.107,235.689 201.681,235.329 202.078 C 234.970 202.475,234.462 202.800,234.200 202.800 C 233.938 202.800,233.398 203.160,233.000 203.600 C 232.602 204.040,232.034 204.400,231.738 204.400 C 231.442 204.400,231.200 204.580,231.200 204.800 C 231.200 205.020,230.880 205.200,230.488 205.200 C 230.097 205.200,229.517 205.560,229.200 206.000 C 228.883 206.440,228.303 206.800,227.912 206.800 C 227.520 206.800,227.200 206.980,227.200 207.200 C 227.200 207.420,226.880 207.600,226.488 207.600 C 226.097 207.600,225.517 207.960,225.200 208.400 C 224.883 208.840,224.343 209.200,224.000 209.200 C 223.657 209.200,223.117 209.560,222.800 210.000 C 222.483 210.440,221.903 210.800,221.512 210.800 C 221.120 210.800,220.800 210.980,220.800 211.200 C 220.800 211.420,220.480 211.600,220.088 211.600 C 219.697 211.600,219.117 211.960,218.800 212.400 C 218.483 212.840,217.903 213.200,217.512 213.200 C 217.120 213.200,216.800 213.359,216.800 213.553 C 216.800 213.748,216.485 214.021,216.100 214.160 C 215.169 214.496,213.769 215.332,212.903 216.068 C 212.516 216.397,211.533 216.971,210.717 217.344 C 209.901 217.716,209.125 218.197,208.993 218.412 C 208.860 218.626,207.963 219.161,207.000 219.600 C 206.037 220.039,205.137 220.579,205.000 220.800 C 204.863 221.021,203.982 221.553,203.041 221.981 C 202.100 222.410,201.099 223.039,200.816 223.380 C 200.534 223.721,200.082 224.000,199.813 224.000 C 199.544 224.000,198.998 224.360,198.600 224.800 C 198.202 225.240,197.634 225.600,197.338 225.600 C 197.042 225.600,196.800 225.780,196.800 226.000 C 196.800 226.220,196.480 226.400,196.088 226.400 C 195.697 226.400,195.117 226.760,194.800 227.200 C 194.483 227.640,193.903 228.000,193.512 228.000 C 193.120 228.000,192.800 228.180,192.800 228.400 C 192.800 228.620,192.480 228.800,192.088 228.800 C 191.697 228.800,191.117 229.160,190.800 229.600 C 190.483 230.040,189.903 230.400,189.512 230.400 C 189.120 230.400,188.800 230.568,188.800 230.773 C 188.800 230.978,188.395 231.271,187.900 231.423 C 187.405 231.576,186.226 232.218,185.280 232.850 C 184.334 233.483,183.389 234.000,183.180 234.000 C 182.971 234.000,182.800 234.180,182.800 234.400 C 182.800 234.620,182.480 234.800,182.088 234.800 C 181.697 234.800,181.117 235.160,180.800 235.600 C 180.483 236.040,179.943 236.400,179.600 236.400 C 179.257 236.400,178.717 236.760,178.400 237.200 C 178.083 237.640,177.518 238.000,177.145 238.000 C 176.772 238.000,176.376 238.225,176.265 238.500 C 176.154 238.775,176.049 221.675,176.032 200.500 L 176.000 162.000 176.912 162.000 C 177.413 162.000,178.083 162.360,178.400 162.800 C 178.717 163.240,179.231 163.600,179.541 163.600 C 179.852 163.600,180.397 163.924,180.753 164.320 C 181.109 164.717,182.067 165.351,182.883 165.731 C 183.699 166.111,184.475 166.597,184.607 166.812 C 184.740 167.026,185.618 167.553,186.559 167.981 C 187.500 168.410,188.501 169.039,188.784 169.380 C 189.066 169.721,189.524 170.000,189.800 170.000 C 190.076 170.000,190.526 170.270,190.800 170.600 C 191.074 170.930,191.636 171.200,192.049 171.200 C 192.462 171.200,192.801 171.335,192.803 171.500 C 192.805 171.665,193.255 172.008,193.803 172.262 C 194.351 172.517,194.800 172.586,194.800 172.417 C 194.800 172.248,193.900 171.683,192.800 171.161 C 191.700 170.638,190.800 170.074,190.800 169.906 C 190.800 169.738,190.564 169.600,190.275 169.600 C 189.987 169.600,189.402 169.279,188.975 168.887 C 188.549 168.495,187.533 167.860,186.717 167.476 C 185.901 167.093,185.125 166.603,184.993 166.388 C 184.860 166.174,183.982 165.647,183.041 165.219 C 182.100 164.790,181.099 164.161,180.816 163.820 C 180.534 163.479,180.082 163.200,179.813 163.200 C 179.544 163.200,178.998 162.840,178.600 162.400 C 177.895 161.621,176.403 161.330,175.867 161.867 M195.200 173.163 C 195.200 173.321,195.834 173.699,196.609 174.003 C 197.383 174.307,198.311 174.881,198.671 175.278 C 199.030 175.675,199.544 176.000,199.813 176.000 C 200.082 176.000,200.529 176.273,200.806 176.607 C 201.083 176.941,201.960 177.521,202.755 177.894 C 203.550 178.268,204.549 178.895,204.975 179.287 C 205.402 179.679,205.987 180.000,206.275 180.000 C 206.564 180.000,206.800 180.180,206.800 180.400 C 206.800 180.620,207.120 180.800,207.512 180.800 C 207.903 180.800,208.483 181.160,208.800 181.600 C 209.117 182.040,209.614 182.400,209.905 182.400 C 210.196 182.400,210.820 182.760,211.292 183.200 C 211.764 183.640,212.387 184.000,212.675 184.000 C 212.964 184.000,213.200 184.180,213.200 184.400 C 213.200 184.620,213.560 184.800,214.000 184.800 C 214.440 184.800,214.800 184.958,214.800 185.151 C 214.800 185.344,215.790 186.019,216.999 186.651 C 218.209 187.283,219.199 187.935,219.199 188.100 C 219.200 188.265,219.560 188.400,220.000 188.400 C 220.440 188.400,220.800 188.580,220.800 188.800 C 220.800 189.020,221.120 189.200,221.512 189.200 C 221.903 189.200,222.483 189.560,222.800 190.000 C 223.117 190.440,223.657 190.800,224.000 190.800 C 224.343 190.800,224.883 191.160,225.200 191.600 C 225.517 192.040,226.097 192.400,226.488 192.400 C 226.880 192.400,227.200 192.580,227.200 192.800 C 227.200 193.020,227.520 193.200,227.912 193.200 C 228.303 193.200,228.883 193.560,229.200 194.000 C 229.517 194.440,230.142 194.789,230.588 194.775 C 231.371 194.750,231.369 194.737,230.541 194.403 C 230.068 194.212,229.563 193.863,229.417 193.627 C 229.271 193.391,228.382 192.847,227.441 192.419 C 226.500 191.990,225.499 191.361,225.216 191.020 C 224.934 190.679,224.476 190.400,224.200 190.400 C 223.924 190.400,223.466 190.121,223.184 189.780 C 222.901 189.439,221.934 188.796,221.035 188.352 C 218.056 186.878,215.994 185.718,215.293 185.123 C 214.912 184.799,213.950 184.237,213.155 183.874 C 212.360 183.512,211.483 182.941,211.206 182.607 C 210.929 182.273,210.476 182.000,210.200 182.000 C 209.924 182.000,209.466 181.721,209.184 181.380 C 208.901 181.039,207.918 180.418,207.000 180.000 C 206.082 179.582,205.099 178.961,204.816 178.620 C 204.534 178.279,204.054 178.000,203.751 178.000 C 203.448 178.000,203.200 177.820,203.200 177.600 C 203.200 177.380,202.880 177.200,202.488 177.200 C 202.097 177.200,201.517 176.840,201.200 176.400 C 200.883 175.960,200.386 175.600,200.095 175.600 C 199.804 175.600,199.180 175.240,198.708 174.800 C 198.236 174.360,197.613 174.000,197.325 174.000 C 197.036 174.000,196.800 173.841,196.800 173.647 C 196.800 173.452,196.440 173.199,196.000 173.084 C 195.560 172.969,195.200 173.004,195.200 173.163 M108.428 254.490 C 108.399 255.203,114.806 262.000,115.507 262.000 C 115.724 262.000,116.116 262.258,116.378 262.574 C 116.997 263.319,125.600 267.600,126.479 267.600 C 126.850 267.600,127.264 267.780,127.400 268.000 C 127.536 268.220,128.051 268.400,128.544 268.400 C 129.037 268.400,129.611 268.562,129.820 268.759 C 130.342 269.252,133.056 269.627,137.793 269.860 C 139.990 269.969,141.973 270.212,142.200 270.400 C 142.428 270.589,146.802 270.873,151.921 271.032 C 157.039 271.191,161.322 271.473,161.437 271.660 C 161.553 271.847,165.147 272.000,169.424 272.000 C 174.341 272.000,177.200 272.147,177.200 272.400 C 177.200 272.662,185.059 272.800,199.976 272.800 C 214.729 272.800,222.840 272.659,223.000 272.400 C 223.151 272.156,226.196 272.000,230.800 272.000 C 234.954 272.000,238.446 271.849,238.561 271.663 C 238.675 271.478,242.958 271.202,248.079 271.049 C 253.199 270.897,257.562 270.598,257.774 270.386 C 257.986 270.174,260.003 270.000,262.256 270.000 C 264.556 270.000,266.461 269.825,266.600 269.600 C 266.736 269.380,267.546 269.200,268.400 269.200 C 269.254 269.200,270.064 269.020,270.200 268.800 C 270.336 268.580,270.977 268.400,271.624 268.400 C 272.271 268.400,272.800 268.220,272.800 268.000 C 272.800 267.780,273.239 267.600,273.776 267.600 C 274.313 267.600,274.864 267.420,275.000 267.200 C 275.136 266.980,275.582 266.800,275.990 266.800 C 276.399 266.800,276.793 266.659,276.867 266.486 C 276.940 266.314,278.380 265.496,280.066 264.669 C 281.752 263.841,283.349 262.902,283.615 262.582 C 283.881 262.262,284.311 262.000,284.571 262.000 C 284.830 262.000,285.654 261.370,286.400 260.600 C 287.146 259.830,287.614 259.200,287.439 259.200 C 287.264 259.200,286.617 259.740,286.000 260.400 C 285.383 261.060,284.631 261.600,284.328 261.600 C 284.025 261.600,283.517 261.960,283.200 262.400 C 282.883 262.840,282.303 263.200,281.912 263.200 C 281.520 263.200,281.200 263.380,281.200 263.600 C 281.200 263.820,280.840 264.000,280.400 264.000 C 279.960 264.000,279.600 264.180,279.600 264.400 C 279.600 264.620,279.255 264.800,278.833 264.800 C 278.412 264.800,278.007 264.935,277.933 265.100 C 277.715 265.591,274.384 267.200,273.586 267.200 C 273.180 267.200,272.736 267.380,272.600 267.600 C 272.464 267.820,271.924 268.000,271.400 268.000 C 270.876 268.000,270.336 268.180,270.200 268.400 C 270.064 268.620,269.164 268.800,268.200 268.800 C 267.236 268.800,266.336 268.980,266.200 269.200 C 266.063 269.422,264.223 269.600,262.056 269.600 C 259.913 269.600,257.989 269.770,257.780 269.979 C 257.571 270.187,253.208 270.485,248.085 270.641 C 242.962 270.797,238.677 271.076,238.562 271.262 C 238.447 271.448,234.954 271.600,230.800 271.600 C 226.196 271.600,223.151 271.756,223.000 272.000 C 222.670 272.534,177.911 272.551,177.377 272.017 C 177.167 271.807,173.576 271.549,169.397 271.444 C 156.879 271.129,142.609 270.343,142.467 269.959 C 142.393 269.762,140.469 269.600,138.190 269.600 C 135.860 269.600,133.939 269.425,133.800 269.200 C 133.664 268.980,132.764 268.800,131.800 268.800 C 130.836 268.800,129.936 268.620,129.800 268.400 C 129.664 268.180,129.124 268.000,128.600 268.000 C 128.076 268.000,127.536 267.820,127.400 267.600 C 127.264 267.380,126.839 267.200,126.456 267.200 C 125.581 267.200,123.607 266.301,123.603 265.900 C 123.601 265.735,123.240 265.600,122.800 265.600 C 122.360 265.600,122.000 265.420,122.000 265.200 C 122.000 264.980,121.640 264.800,121.200 264.800 C 120.760 264.800,120.400 264.620,120.400 264.400 C 120.400 264.180,120.040 264.000,119.600 264.000 C 119.160 264.000,118.800 263.820,118.800 263.600 C 118.800 263.380,118.480 263.200,118.088 263.200 C 117.697 263.200,117.117 262.840,116.800 262.400 C 116.483 261.960,116.013 261.600,115.756 261.600 C 115.198 261.600,109.117 255.433,108.728 254.472 C 108.477 253.852,108.454 253.854,108.428 254.490 M291.246 254.700 C 291.221 255.195,291.020 255.600,290.800 255.600 C 290.580 255.600,290.400 255.819,290.400 256.086 C 290.400 256.403,290.622 256.350,291.038 255.933 C 291.390 255.582,291.590 254.958,291.485 254.547 C 291.325 253.927,291.285 253.952,291.246 254.700 M288.702 257.629 C 288.103 258.273,287.759 258.800,287.937 258.800 C 288.366 258.800,290.185 256.852,289.964 256.630 C 289.869 256.535,289.301 256.985,288.702 257.629 " stroke="none" fill="#44d4f4" fill-rule="evenodd"></path><path id="path4" d="" stroke="none" fill="#04d8f4" fill-rule="evenodd"></path></g></svg>